<?xml version="1.0" encoding="UTF-8" standalone="no"?>
<svg color-interpolation="auto" color-rendering="auto" fill="#000000" fill-opacity="1" font-family="Dialog" font-size="12px" font-style="normal" font-weight="normal" height="325.27399" image-rendering="auto" shape-rendering="auto" stroke="#000000" stroke-dasharray="none" stroke-dashoffset="0" stroke-linecap="square" stroke-linejoin="miter" stroke-miterlimit="10" stroke-opacity="1" stroke-width="1" text-rendering="auto" width="712.75201" version="1.1" id="svg18" xmlns="http://www.w3.org/2000/svg" xmlns:svg="http://www.w3.org/2000/svg">
  <!--Generated by Marvin with Batik SVG Generator-->
  <defs id="genericDefs"/>
  <g id="g18" transform="translate(-41.909,-143.237)">
    <defs id="2067631385874-defs1">
      <clipPath clipPathUnits="userSpaceOnUse" id="2067631385873-clipPath1">
        <path d="M 0,0 H 800 V 600 H 0 Z" id="path1"/>
      </clipPath>
      <clipPath clipPathUnits="userSpaceOnUse" id="2067631385378-clipPath1">
        <path d="m 549.1198,185.3124 c -31.0068,0 -56.1429,25.1361 -56.1429,56.1429 0,31.0069 25.1361,56.1429 56.1429,56.1429 31.0069,0 56.143,-25.136 56.143,-56.1429 0,-31.0068 -25.1361,-56.1429 -56.143,-56.1429 z" id="path2"/>
      </clipPath>
      <clipPath clipPathUnits="userSpaceOnUse" id="2067631385972-clipPath1">
        <path d="m -654.0766,-140.6369 h 800 v 600 h -800 z" id="path3"/>
      </clipPath>
      <clipPath clipPathUnits="userSpaceOnUse" id="2067631385957-clipPath1">
        <path d="M -723.9203,-165.1073 H 76.0796 v 600 h -799.9999 z" id="path4"/>
      </clipPath>
    </defs>
    <g text-rendering="geometricPrecision" id="g5">
      <path clip-path="url(#2067631385873-clipPath1)" d="m 272.1205,257.4406 c 1.4767,0.8525 3.3648,0.3464 4.2173,-1.1302 0.8525,-1.4767 0.3465,-3.3649 -1.1302,-4.2174 l -92.4449,-53.3678 c -1.4767,-0.8525 -3.3649,-0.3464 -4.2173,1.1303 -0.8525,1.4767 -0.3465,3.3648 1.1302,4.2173 z m 28.4016,-13.3115 c 1.4767,0.8525 3.3649,0.3465 4.2173,-1.1302 0.8525,-1.4767 0.3465,-3.3649 -1.1302,-4.2174 L 180.0883,167.4738 c -1.4767,-0.8525 -3.3649,-0.3465 -4.2174,1.1302 -0.8525,1.4767 -0.3464,3.3649 1.1303,4.2174 z" stroke="none" id="path5"/>
    </g>
    <g text-rendering="geometricPrecision" id="g6">
      <path clip-path="url(#2067631385873-clipPath1)" d="m 180.0884,172.8213 v 0 l -123.5421,71.327 c -1.4766,0.8526 -3.3648,0.3466 -4.2174,-1.13 -0.8525,-1.4767 -0.3466,-3.3649 1.1301,-4.2174 v 0 l 123.5421,-71.3271 c 1.4766,-0.8525 3.3648,-0.3466 4.2173,1.1301 0.8526,1.4766 0.3466,3.3648 -1.13,4.2174 z" stroke="none" id="path6"/>
    </g>
    <g text-rendering="geometricPrecision" id="g7">
      <path clip-path="url(#2067631385873-clipPath1)" d="m 83.8173,259.4166 c 1e-4,-1.7051 -1.3821,-3.0874 -3.0872,-3.0875 -1.7051,-10e-5 -3.0874,1.3821 -3.0874,3.0872 l -0.0046,106.7435 c -10e-5,1.7051 1.3821,3.0874 3.0872,3.0875 1.7051,1e-4 3.0874,-1.3821 3.0875,-3.0872 z M 58.09,241.4747 c 10e-5,-1.7051 -1.3821,-3.0874 -3.0872,-3.0874 -1.7051,-1e-4 -3.0874,1.3821 -3.0875,3.0872 l -0.0061,142.6261 c -10e-5,1.7051 1.3821,3.0874 3.0872,3.0875 1.7051,10e-5 3.0874,-1.3821 3.0875,-3.0872 z" stroke="none" id="path7"/>
    </g>
    <g text-rendering="geometricPrecision" id="g8">
      <path clip-path="url(#2067631385873-clipPath1)" d="m 56.5402,381.4271 v 0 l 123.5296,71.3227 c 1.4767,0.8526 1.9826,2.7408 1.13,4.2174 -0.8526,1.4767 -2.7408,1.9826 -4.2174,1.13 v 0 L 53.4528,386.7745 c -1.4766,-0.8526 -1.9825,-2.7408 -1.13,-4.2175 0.8526,-1.4766 2.7408,-1.9825 4.2174,-1.1299 z" stroke="none" id="path8"/>
    </g>
    <g text-rendering="geometricPrecision" id="g9">
      <path clip-path="url(#2067631385873-clipPath1)" d="m 179.6564,421.4977 c -1.4766,0.8526 -1.9826,2.7407 -1.13,4.2174 0.8525,1.4766 2.7407,1.9826 4.2174,1.1301 l 92.4659,-53.3853 c 1.4767,-0.8526 1.9827,-2.7408 1.1301,-4.2174 -0.8525,-1.4767 -2.7407,-1.9826 -4.2174,-1.13 z m -2.6739,31.2521 c -1.4767,0.8525 -1.9826,2.7407 -1.1301,4.2174 0.8526,1.4766 2.7407,1.9826 4.2174,1.13 l 123.542,-71.327 c 1.4767,-0.8526 1.9827,-2.7408 1.1301,-4.2174 -0.8526,-1.4767 -2.7407,-1.9826 -4.2174,-1.13 z" stroke="none" id="path9"/>
    </g>
    <g text-rendering="geometricPrecision" id="g10">
      <path clip-path="url(#2067631385873-clipPath1)" d="m 298.9808,384.0965 v 0 l -0.002,-142.6411 c 0,-1.7051 1.3822,-3.0874 3.0873,-3.0874 1.7051,0 3.0874,1.3822 3.0874,3.0873 v 0 l 0.002,142.6411 c 0,1.7051 -1.3822,3.0874 -3.0873,3.0874 -1.7051,0 -3.0873,-1.3822 -3.0874,-3.0873 z" stroke="none" id="path10"/>
    </g>
    <g text-rendering="geometricPrecision" id="g11">
      <path clip-path="url(#2067631385873-clipPath1)" d="m 300.522,238.7816 v 0 l 123.5271,-71.3184 c 1.4766,-0.8525 3.3648,-0.3466 4.2174,1.1301 0.8525,1.4766 0.3466,3.3648 -1.1301,4.2174 v 0 l -123.5271,71.3184 c -1.4766,0.8525 -3.3648,0.3466 -4.2174,-1.1301 -0.8525,-1.4766 -0.3466,-3.3648 1.1301,-4.2174 z" stroke="none" id="path11"/>
    </g>
    <g text-rendering="geometricPrecision" id="g12">
      <path clip-path="url(#2067631385873-clipPath1)" d="m 427.1364,167.4632 v 0 l 123.5271,71.3184 c 1.4767,0.8526 1.9826,2.7408 1.1301,4.2174 -0.8526,1.4767 -2.7408,1.9826 -4.2174,1.1301 v 0 L 424.0491,172.8107 c -1.4767,-0.8526 -1.9826,-2.7408 -1.1301,-4.2174 0.8526,-1.4767 2.7408,-1.9826 4.2174,-1.1301 z" stroke="none" id="path12"/>
    </g>
    <g fill="#333399" stroke="#333399" text-rendering="geometricPrecision" id="g14">
      <path clip-path="url(#2067631385873-clipPath1)" d="m 547.5762,238.7816 v 0 l 97.2423,-56.1429 c 1.4767,-0.8525 3.3649,-0.3466 4.2174,1.1301 0.8526,1.4766 0.3467,3.3648 -1.13,4.2173 v 0 l -97.2424,56.143 c -1.4767,0.8525 -3.3649,0.3466 -4.2174,-1.1301 -0.8525,-1.4766 -0.3466,-3.3648 1.1301,-4.2174 z" stroke="none" id="path13"/>
      <path clip-path="url(#2067631385378-clipPath1)" d="m 547.5762,238.7816 v 0 l 97.2423,-56.1429 c 1.4767,-0.8525 3.3649,-0.3466 4.2174,1.1301 0.8526,1.4766 0.3467,3.3648 -1.13,4.2173 v 0 l -97.2424,56.143 c -1.4767,0.8525 -3.3649,0.3466 -4.2174,-1.1301 -0.8525,-1.4766 -0.3466,-3.3648 1.1301,-4.2174 z" fill="#000000" stroke="none" id="path14"/>
    </g>
    <g text-rendering="geometricPrecision" id="g15">
      <path clip-path="url(#2067631385873-clipPath1)" d="m 552.2072,241.4553 v 0 130.2874 c 0,1.7051 -1.3822,3.0874 -3.0874,3.0874 -1.7051,0 -3.0873,-1.3823 -3.0873,-3.0874 v 0 -130.2874 c 0,-1.7051 1.3822,-3.0873 3.0873,-3.0873 1.7052,0 3.0874,1.3822 3.0874,3.0873 z" stroke="none" id="path15"/>
    </g>
    <g fill="#333399" font-family="sans-serif" font-size="50px" stroke="#333399" text-rendering="geometricPrecision" transform="translate(654.0766,140.6369)" id="g16">
      <text clip-path="url(#2067631385972-clipPath1)" stroke="none" x="0" xml:space="preserve" y="47" id="text15">NH</text>
    </g>
    <g fill="#333399" font-family="sans-serif" font-size="41px" stroke="#333399" text-rendering="geometricPrecision" transform="translate(723.9204,165.1073)" id="g17">
      <text clip-path="url(#2067631385957-clipPath1)" stroke="none" x="0" xml:space="preserve" y="39" id="text16">2</text>
    </g>
  </g>
</svg>