<?xml version="1.0" encoding="UTF-8" standalone="no"?>
<svg color-interpolation="auto" color-rendering="auto" fill="#000000" fill-opacity="1" font-family="Dialog" font-size="12px" font-style="normal" font-weight="normal" height="344.625" image-rendering="auto" shape-rendering="auto" stroke="#000000" stroke-dasharray="none" stroke-dashoffset="0" stroke-linecap="square" stroke-linejoin="miter" stroke-miterlimit="10" stroke-opacity="1" stroke-width="1" text-rendering="auto" width="745.36096" version="1.1" id="svg34" xmlns="http://www.w3.org/2000/svg" xmlns:svg="http://www.w3.org/2000/svg">
  <!--Generated by Marvin with Batik SVG Generator-->
  <defs id="genericDefs"/>
  <g id="g34" transform="translate(-27.075001,-129.828)">
    <defs id="578703877450-defs1">
      <clipPath clipPathUnits="userSpaceOnUse" id="578703877849-clipPath1">
        <path d="M 0,0 H 800 V 600 H 0 Z" id="path1"/>
      </clipPath>
      <clipPath clipPathUnits="userSpaceOnUse" id="578703877306-clipPath1">
        <path d="m 142.0284,269.2815 c -21.0247,0 -38.0686,17.0439 -38.0686,38.0687 0,21.0247 17.0439,38.0687 38.0686,38.0687 21.0248,0 38.0687,-17.044 38.0687,-38.0687 0,-21.0248 -17.0439,-38.0687 -38.0687,-38.0687 z" id="path2"/>
      </clipPath>
      <clipPath clipPathUnits="userSpaceOnUse" id="578703877177-clipPath1">
        <path d="m 499.696,266.713 c -22.4356,0 -40.6232,18.1876 -40.6232,40.6232 0,22.4357 18.1876,40.6233 40.6232,40.6233 22.4357,0 40.6233,-18.1876 40.6233,-40.6233 0,-22.4356 -18.1876,-40.6232 -40.6233,-40.6232 z" id="path3"/>
      </clipPath>
      <clipPath clipPathUnits="userSpaceOnUse" id="578703877157-clipPath1">
        <path d="m 608.1651,226.0897 c -22.4356,0 -40.6232,18.1877 -40.6232,40.6233 0,22.4356 18.1876,40.6232 40.6232,40.6232 22.4356,0 40.6233,-18.1876 40.6233,-40.6232 0,-22.4356 -18.1877,-40.6233 -40.6233,-40.6233 z" id="path4"/>
      </clipPath>
      <clipPath clipPathUnits="userSpaceOnUse" id="578703877357-clipPath1">
        <path d="m 410.2807,217.4407 c -21.1368,0 -38.2715,17.1348 -38.2715,38.2716 0,21.1368 17.1347,38.2716 38.2715,38.2716 21.1368,0 38.2716,-17.1348 38.2716,-38.2716 0,-21.1368 -17.1348,-38.2716 -38.2716,-38.2716 z" id="path5"/>
      </clipPath>
      <clipPath clipPathUnits="userSpaceOnUse" id="578703877720-clipPath1">
        <path d="m -35.2471,-234.2243 h 800 v 600 h -800 z" id="path6"/>
      </clipPath>
      <clipPath clipPathUnits="userSpaceOnUse" id="578703877362-clipPath1">
        <path d="m -575.9004,-197.338 h 800 v 600 h -800 z" id="path7"/>
      </clipPath>
      <clipPath clipPathUnits="userSpaceOnUse" id="578703877299-clipPath1">
        <path d="m -575.4004,-234.2123 h 800 v 600 h -800 z" id="path8"/>
      </clipPath>
      <clipPath clipPathUnits="userSpaceOnUse" id="578703877570-clipPath1">
        <path d="m -396.2964,-130.9644 h 800 v 600 h -800 z" id="path9"/>
      </clipPath>
    </defs>
    <g text-rendering="geometricPrecision" id="g10">
      <path clip-path="url(#578703877849-clipPath1)" d="m 299.1895,318.9072 c 1.069,0.6171 2.4357,0.2508 3.0528,-0.8181 0.6171,-1.0689 0.2508,-2.4357 -0.8181,-3.0528 L 234.5078,276.406 c -1.0689,-0.6171 -2.4357,-0.2508 -3.0528,0.8181 -0.617,1.0689 -0.2507,2.4357 0.8182,3.0527 z m 20.5586,-9.6355 c 1.0689,0.617 2.4357,0.2508 3.0528,-0.8181 0.617,-1.069 0.2508,-2.4357 -0.8181,-3.0528 l -89.4109,-51.6162 c -1.0689,-0.6171 -2.4357,-0.2508 -3.0528,0.8181 -0.617,1.0689 -0.2507,2.4356 0.8182,3.0527 z" stroke="none" id="path10"/>
    </g>
    <g text-rendering="geometricPrecision" id="g11">
      <path clip-path="url(#578703877849-clipPath1)" d="m 232.572,257.6554 v 0 l -89.4262,51.6302 c -1.0688,0.6171 -2.4356,0.2509 -3.0527,-0.818 -0.6171,-1.0689 -0.2509,-2.4357 0.818,-3.0528 v 0 l 89.4261,-51.6302 c 1.0689,-0.6171 2.4356,-0.2509 3.0528,0.818 0.6171,1.0689 0.2509,2.4356 -0.818,3.0528 z" stroke="none" id="path11"/>
    </g>
    <g text-rendering="geometricPrecision" id="g12">
      <path clip-path="url(#578703877849-clipPath1)" d="m 162.886,320.3375 c 1e-4,-1.2342 -1.0004,-2.2348 -2.2347,-2.2349 -1.2342,0 -2.2348,1.0005 -2.2349,2.2347 l -0.003,77.2665 c 0,1.2342 1.0005,2.2348 2.2347,2.2349 1.2342,0 2.2348,-1.0005 2.2349,-2.2347 z m -18.6228,-12.9872 c 10e-5,-1.2342 -1.0004,-2.2349 -2.2347,-2.2349 -1.2342,0 -2.2348,1.0004 -2.2348,2.2347 l -0.005,103.2402 c 0,1.2342 1.0005,2.2348 2.2347,2.2349 1.2342,0 2.2348,-1.0005 2.2349,-2.2347 z" stroke="none" id="path12"/>
    </g>
    <g text-rendering="geometricPrecision" id="g13">
      <path clip-path="url(#578703877849-clipPath1)" d="m 143.1414,408.655 v 0 l 89.4171,51.6271 c 1.0689,0.6172 1.4351,1.984 0.818,3.0528 -0.6172,1.0689 -1.9839,1.4351 -3.0528,0.8179 v 0 l -89.4171,-51.627 c -1.0689,-0.6172 -1.4351,-1.984 -0.818,-3.0528 0.6172,-1.0689 1.984,-1.4351 3.0528,-0.818 z" stroke="none" id="path13"/>
    </g>
    <g text-rendering="geometricPrecision" id="g14">
      <path clip-path="url(#578703877849-clipPath1)" d="m 232.2593,437.6602 c -1.0689,0.6171 -1.4351,1.9839 -0.818,3.0528 0.6171,1.0689 1.9839,1.4351 3.0528,0.818 l 66.9317,-38.643 c 1.0688,-0.6172 1.435,-1.9839 0.8179,-3.0528 -0.6171,-1.0689 -1.9838,-1.4351 -3.0528,-0.818 z m -1.9356,22.6219 c -1.0688,0.6171 -1.4351,1.9839 -0.818,3.0528 0.6172,1.0688 1.9839,1.4351 3.0528,0.818 l 89.4261,-51.6303 c 1.0689,-0.6171 1.4351,-1.9838 0.818,-3.0527 -0.6171,-1.0689 -1.9838,-1.4351 -3.0527,-0.818 z" stroke="none" id="path14"/>
    </g>
    <g text-rendering="geometricPrecision" id="g15">
      <path clip-path="url(#578703877849-clipPath1)" d="m 318.6325,410.5873 v 0 l -0.002,-103.251 c -10e-5,-1.2342 1.0005,-2.2348 2.2347,-2.2348 1.2342,-10e-5 2.2348,1.0005 2.2348,2.2347 v 0 l 0.002,103.251 c 0,1.2343 -1.0006,2.2349 -2.2348,2.2349 -1.2342,0 -2.2348,-1.0005 -2.2348,-2.2348 z" stroke="none" id="path15"/>
    </g>
    <g fill="#009900" stroke="#009900" text-rendering="geometricPrecision" id="g17">
      <path clip-path="url(#578703877849-clipPath1)" d="m 140.911,309.2856 v 0 L 74.975,271.2155 c -1.0689,-0.6172 -1.4351,-1.984 -0.818,-3.0528 0.6172,-1.0689 1.984,-1.4351 3.0528,-0.8179 v 0 l 65.9361,38.07 c 1.0688,0.6172 1.435,1.9839 0.8179,3.0528 -0.6172,1.0689 -1.9839,1.4351 -3.0528,0.818 z" stroke="none" id="path16"/>
      <path clip-path="url(#578703877306-clipPath1)" d="m 140.911,309.2856 v 0 L 74.975,271.2155 c -1.0689,-0.6172 -1.4351,-1.984 -0.818,-3.0528 0.6172,-1.0689 1.984,-1.4351 3.0528,-0.8179 v 0 l 65.9361,38.07 c 1.0688,0.6172 1.435,1.9839 0.8179,3.0528 -0.6172,1.0689 -1.9839,1.4351 -3.0528,0.818 z" fill="#000000" stroke="none" id="path17"/>
    </g>
    <g text-rendering="geometricPrecision" id="g18">
      <path clip-path="url(#578703877849-clipPath1)" d="m 319.748,305.4008 v 0 l 89.4154,-51.6239 c 1.0688,-0.6171 2.4356,-0.2509 3.0527,0.818 0.6172,1.0689 0.2509,2.4356 -0.818,3.0528 v 0 l -89.4153,51.6239 c -1.0689,0.6171 -2.4356,0.2509 -3.0527,-0.818 -0.6171,-1.0689 -0.2509,-2.4356 0.8179,-3.0528 z" stroke="none" id="path18"/>
    </g>
    <g text-rendering="geometricPrecision" id="g19">
      <path clip-path="url(#578703877849-clipPath1)" d="m 411.3981,253.7769 v 0 l 89.4153,51.6239 c 1.0689,0.6172 1.4351,1.9839 0.818,3.0528 -0.6171,1.0689 -1.9839,1.4351 -3.0528,0.818 v 0 l -89.4152,-51.6239 c -1.0689,-0.6172 -1.4352,-1.9839 -0.818,-3.0528 0.6171,-1.0689 1.9839,-1.4351 3.0527,-0.818 z" stroke="none" id="path19"/>
    </g>
    <g fill="#333399" stroke="#333399" text-rendering="geometricPrecision" id="g21">
      <path clip-path="url(#578703877849-clipPath1)" d="m 498.5786,305.4008 v 0 l 70.3616,-40.6232 c 1.0689,-0.6171 2.4357,-0.2509 3.0528,0.818 0.617,1.0689 0.2508,2.4356 -0.818,3.0528 v 0 l -70.3616,40.6232 c -1.0688,0.6171 -2.4356,0.2509 -3.0527,-0.818 -0.6171,-1.0689 -0.2509,-2.4356 0.8179,-3.0528 z" stroke="none" id="path20"/>
      <path clip-path="url(#578703877177-clipPath1)" d="m 498.5786,305.4008 v 0 l 70.3616,-40.6232 c 1.0689,-0.6171 2.4357,-0.2509 3.0528,0.818 0.617,1.0689 0.2508,2.4356 -0.818,3.0528 v 0 l -70.3616,40.6232 c -1.0688,0.6171 -2.4356,0.2509 -3.0527,-0.818 -0.6171,-1.0689 -0.2509,-2.4356 0.8179,-3.0528 z" fill="#000000" stroke="none" id="path21"/>
    </g>
    <g text-rendering="geometricPrecision" id="g23">
      <path clip-path="url(#578703877849-clipPath1)" d="m 609.2825,264.7776 v 0 l 70.3615,40.6232 c 1.0689,0.6172 1.4352,1.9839 0.818,3.0528 -0.6171,1.0689 -1.9839,1.4351 -3.0528,0.818 v 0 l -70.3615,-40.6232 c -1.0689,-0.6172 -1.4351,-1.9839 -0.818,-3.0528 0.6172,-1.0689 1.9839,-1.4351 3.0528,-0.818 z" stroke="none" id="path22"/>
      <path clip-path="url(#578703877157-clipPath1)" d="m 609.2825,264.7776 v 0 l 70.3615,40.6232 c 1.0689,0.6172 1.4352,1.9839 0.818,3.0528 -0.6171,1.0689 -1.9839,1.4351 -3.0528,0.818 v 0 l -70.3615,-40.6232 c -1.0689,-0.6172 -1.4351,-1.9839 -0.818,-3.0528 0.6172,-1.0689 1.9839,-1.4351 3.0528,-0.818 z" fill="#333399" stroke="none" id="path23"/>
    </g>
    <g fill="#ff0000" stroke="#ff0000" text-rendering="geometricPrecision" id="g25">
      <path clip-path="url(#578703877849-clipPath1)" d="m 398.7343,261.0884 c 0,1.2342 1.0005,2.2348 2.2348,2.2348 1.2342,0 2.2348,-1.0006 2.2348,-2.2348 v -81.9193 c 0,-1.2342 -1.0006,-2.2347 -2.2348,-2.2347 -1.2343,0 -2.2348,1.0005 -2.2348,2.2347 z m 18.6233,0 c 0,1.2342 1.0006,2.2348 2.2348,2.2348 1.2343,0 2.2348,-1.0006 2.2348,-2.2348 v -81.9193 c 0,-1.2342 -1.0005,-2.2347 -2.2348,-2.2347 -1.2342,0 -2.2348,1.0005 -2.2348,2.2347 z" stroke="none" id="path24"/>
      <path clip-path="url(#578703877357-clipPath1)" d="m 398.7343,261.0884 c 0,1.2342 1.0005,2.2348 2.2348,2.2348 1.2342,0 2.2348,-1.0006 2.2348,-2.2348 v -81.9193 c 0,-1.2342 -1.0006,-2.2347 -2.2348,-2.2347 -1.2343,0 -2.2348,1.0005 -2.2348,2.2347 z m 18.6233,0 c 0,1.2342 1.0006,2.2348 2.2348,2.2348 1.2343,0 2.2348,-1.0006 2.2348,-2.2348 v -81.9193 c 0,-1.2342 -1.0005,-2.2347 -2.2348,-2.2347 -1.2342,0 -2.2348,1.0005 -2.2348,2.2347 z" fill="#000000" stroke="none" id="path25"/>
    </g>
    <g text-rendering="geometricPrecision" id="g26">
      <path clip-path="url(#578703877849-clipPath1)" d="m 501.9308,307.3362 v 0 94.3088 c 0,1.2342 -1.0005,2.2348 -2.2348,2.2348 -1.2342,0 -2.2347,-1.0006 -2.2347,-2.2348 v 0 -94.3088 c 0,-1.2342 1.0005,-2.2347 2.2347,-2.2347 1.2343,0 2.2348,1.0005 2.2348,2.2347 z" stroke="none" id="path26"/>
    </g>
    <g text-rendering="geometricPrecision" id="g27">
      <path clip-path="url(#578703877849-clipPath1)" d="m 680.7614,307.3362 v 0 94.3088 c 0,1.2342 -1.0005,2.2348 -2.2347,2.2348 -1.2343,0 -2.2348,-1.0006 -2.2348,-2.2348 v 0 -94.3088 c 0,-1.2342 1.0005,-2.2347 2.2348,-2.2347 1.2342,0 2.2347,1.0005 2.2347,2.2347 z" stroke="none" id="path27"/>
    </g>
    <g text-rendering="geometricPrecision" id="g28">
      <path clip-path="url(#578703877849-clipPath1)" d="m 679.644,305.4008 v 0 l 81.6738,47.1544 c 1.0689,0.6172 1.4351,1.9839 0.818,3.0528 -0.6171,1.0689 -1.9839,1.4351 -3.0527,0.818 v 0 l -81.6739,-47.1544 c -1.0688,-0.6171 -1.435,-1.9839 -0.818,-3.0528 0.6172,-1.0688 1.9839,-1.435 3.0528,-0.818 z" stroke="none" id="path28"/>
    </g>
    <g text-rendering="geometricPrecision" id="g29">
      <path clip-path="url(#578703877849-clipPath1)" d="m 677.4092,305.4008 v 0 l 81.6739,-47.1543 c 1.0688,-0.6171 2.4356,-0.2509 3.0527,0.818 0.6171,1.0688 0.2509,2.4356 -0.818,3.0527 v 0 l -81.6738,47.1544 c -1.0689,0.6171 -2.4356,0.2509 -3.0528,-0.818 -0.617,-1.0689 -0.2508,-2.4356 0.818,-3.0528 z" stroke="none" id="path29"/>
    </g>
    <g fill="#009900" font-family="sans-serif" font-size="36px" stroke="#009900" text-rendering="geometricPrecision" transform="translate(35.2471,234.2243)" id="g30">
      <text clip-path="url(#578703877720-clipPath1)" stroke="none" x="0" xml:space="preserve" y="34" id="text29">Cl</text>
    </g>
    <g fill="#333399" font-family="sans-serif" font-size="36px" stroke="#333399" text-rendering="geometricPrecision" transform="translate(575.9004,197.338)" id="g31">
      <text clip-path="url(#578703877362-clipPath1)" stroke="none" x="0" xml:space="preserve" y="34" id="text30">H</text>
    </g>
    <g fill="#333399" font-family="sans-serif" font-size="36px" stroke="#333399" text-rendering="geometricPrecision" transform="translate(575.4004,234.2123)" id="g32">
      <text clip-path="url(#578703877299-clipPath1)" stroke="none" x="0" xml:space="preserve" y="34" id="text31">N</text>
    </g>
    <g fill="#ff0000" font-family="sans-serif" font-size="36px" stroke="#ff0000" text-rendering="geometricPrecision" transform="translate(396.2964,130.9644)" id="g33">
      <text clip-path="url(#578703877570-clipPath1)" stroke="none" x="0" xml:space="preserve" y="34" id="text32">O</text>
    </g>
  </g>
</svg>