<?xml version="1.0" encoding="UTF-8" standalone="no"?>
<svg xmlns:dc="http://purl.org/dc/elements/1.1/" xmlns:cc="http://creativecommons.org/ns#" xmlns:rdf="http://www.w3.org/1999/02/22-rdf-syntax-ns#" xmlns:svg="http://www.w3.org/2000/svg" xmlns="http://www.w3.org/2000/svg" xmlns:sodipodi="http://sodipodi.sourceforge.net/DTD/sodipodi-0.dtd" xmlns:inkscape="http://www.inkscape.org/namespaces/inkscape" width="495.13385" stroke-miterlimit="10" font-weight="normal" height="475.40979" font-style="normal" font-size="12px" id="svg2" version="1.1" inkscape:version="0.91 r13725" sodipodi:docname="Caffeine.svg" style="font-style:normal;font-weight:normal;font-size:12px;font-family:Dialog;color-interpolation:auto;fill:#000000;fill-opacity:1;stroke:#000000;stroke-width:1;stroke-linecap:square;stroke-linejoin:miter;stroke-miterlimit:10;stroke-dasharray:none;stroke-dashoffset:0;stroke-opacity:1;color-rendering:auto;image-rendering:auto;shape-rendering:auto;text-rendering:auto">
  <metadata id="metadata194">
    <rdf:RDF>
      <cc:Work rdf:about="">
        <dc:format>image/svg+xml</dc:format>
        <dc:type rdf:resource="http://purl.org/dc/dcmitype/StillImage"/>
        <dc:title/>
      </cc:Work>
    </rdf:RDF>
  </metadata>
  <sodipodi:namedview pagecolor="#ffffff" bordercolor="#666666" borderopacity="1" objecttolerance="10" gridtolerance="10" guidetolerance="10" inkscape:pageopacity="0" inkscape:pageshadow="2" inkscape:window-width="1060" inkscape:window-height="480" id="namedview192" showgrid="false" fit-margin-top="10" fit-margin-left="10" fit-margin-right="10" fit-margin-bottom="10" inkscape:zoom="0.36375" inkscape:cx="247.7274" inkscape:cy="205.4492" inkscape:window-x="0" inkscape:window-y="0" inkscape:window-maximized="0" inkscape:current-layer="svg2"/>
  <!--Generated by Marvin with Batik SVG Generator-->
  <defs id="genericDefs"/>
  <g id="g5" transform="translate(-152.2726,-30.0394)">
    <defs id="683104802522-defs1">
      <clipPath clipPathUnits="userSpaceOnUse" id="683104802254-clipPath1">
        <path d="M 0,0 800,0 800,600 0,600 0,0 Z" id="path9" inkscape:connector-curvature="0"/>
      </clipPath>
      <clipPath clipPathUnits="userSpaceOnUse" id="683104802132-clipPath1">
        <path d="m 368.0517,128.6138 c -22.6626,0 -41.0342,18.3716 -41.0342,41.0341 0,22.6625 18.3716,41.0342 41.0342,41.0342 22.6625,0 41.0341,-18.3717 41.0341,-41.0342 0,-22.6625 -18.3716,-41.0341 -41.0341,-41.0341 z" id="path12" inkscape:connector-curvature="0"/>
      </clipPath>
      <clipPath clipPathUnits="userSpaceOnUse" id="683104802202-clipPath1">
        <path d="m 271.9163,294.0288 c -23.2717,0 -42.1372,18.8655 -42.1372,42.1372 0,23.2717 18.8655,42.1371 42.1372,42.1371 23.2717,0 42.1371,-18.8654 42.1371,-42.1371 0,-23.2717 -18.8654,-42.1372 -42.1371,-42.1372 z" id="path15" inkscape:connector-curvature="0"/>
      </clipPath>
      <clipPath clipPathUnits="userSpaceOnUse" id="683104802534-clipPath1">
        <path d="m 635.0035,238.6753 c -23.1979,0 -42.0036,18.8056 -42.0036,42.0035 0,23.1979 18.8057,42.0036 42.0036,42.0036 23.1979,0 42.0036,-18.8057 42.0036,-42.0036 0,-23.1979 -18.8057,-42.0035 -42.0036,-42.0035 z" id="path18" inkscape:connector-curvature="0"/>
      </clipPath>
      <clipPath clipPathUnits="userSpaceOnUse" id="683104802785-clipPath1">
        <path d="m 464.187,180.6503 c -24.5761,0 -44.499,19.923 -44.499,44.4991 0,24.5762 19.9229,44.4991 44.499,44.4991 24.5762,0 44.4991,-19.9229 44.4991,-44.4991 0,-24.5761 -19.9229,-44.4991 -44.4991,-44.4991 z" id="path21" inkscape:connector-curvature="0"/>
      </clipPath>
      <clipPath clipPathUnits="userSpaceOnUse" id="68310480257-clipPath1">
        <path d="m 585.616,306.6346 c -23.1991,0 -42.0056,18.8066 -42.0056,42.0056 0,23.1991 18.8065,42.0056 42.0056,42.0056 23.199,0 42.0055,-18.8065 42.0055,-42.0056 0,-23.199 -18.8065,-42.0056 -42.0055,-42.0056 z" id="path24" inkscape:connector-curvature="0"/>
      </clipPath>
      <clipPath clipPathUnits="userSpaceOnUse" id="683104802771-clipPath1">
        <path d="m 464.187,291.6711 c -24.5738,0 -44.4948,19.921 -44.4948,44.4949 0,24.5738 19.921,44.4948 44.4948,44.4948 24.5739,0 44.4949,-19.921 44.4949,-44.4948 0,-24.5739 -19.921,-44.4949 -44.4949,-44.4949 z" id="path27" inkscape:connector-curvature="0"/>
      </clipPath>
      <clipPath clipPathUnits="userSpaceOnUse" id="683104802829-clipPath1">
        <path d="m 271.9163,292.5196 c -24.1052,0 -43.6463,19.5412 -43.6463,43.6464 0,24.1051 19.5411,43.6463 43.6463,43.6463 24.1052,0 43.6463,-19.5412 43.6463,-43.6463 0,-24.1052 -19.5411,-43.6464 -43.6463,-43.6464 z" id="path30" inkscape:connector-curvature="0"/>
      </clipPath>
      <clipPath clipPathUnits="userSpaceOnUse" id="683104802669-clipPath1">
        <path d="m 388.584,336.1567 c -24.1051,0 -43.6463,19.5411 -43.6463,43.6463 0,24.1052 19.5412,43.6463 43.6463,43.6463 24.1052,0 43.6464,-19.5411 43.6464,-43.6463 0,-24.1052 -19.5412,-43.6463 -43.6464,-43.6463 z" id="path33" inkscape:connector-curvature="0"/>
      </clipPath>
      <clipPath clipPathUnits="userSpaceOnUse" id="683104802804-clipPath1">
        <path d="m 368.0517,125.9984 c -24.107,0 -43.6495,19.5426 -43.6495,43.6495 0,24.1069 19.5425,43.6495 43.6495,43.6495 24.1069,0 43.6494,-19.5426 43.6494,-43.6495 0,-24.1069 -19.5425,-43.6495 -43.6494,-43.6495 z" id="path36" inkscape:connector-curvature="0"/>
      </clipPath>
      <clipPath clipPathUnits="userSpaceOnUse" id="683104802967-clipPath1">
        <path d="m 271.9163,211.1566 c -23.0136,0 -41.6698,18.6562 -41.6698,41.6698 0,23.0136 18.6562,41.6698 41.6698,41.6698 23.0136,0 41.6698,-18.6562 41.6698,-41.6698 0,-23.0136 -18.6562,-41.6698 -41.6698,-41.6698 z" id="path39" inkscape:connector-curvature="0"/>
      </clipPath>
      <clipPath clipPathUnits="userSpaceOnUse" id="683104802312-clipPath1">
        <path d="m 251.385,174.453 c -21.4521,0 -38.8425,17.3904 -38.8425,38.8424 0,21.4521 17.3904,38.8425 38.8425,38.8425 21.452,0 38.8424,-17.3904 38.8424,-38.8425 0,-21.452 -17.3904,-38.8424 -38.8424,-38.8424 z" id="path42" inkscape:connector-curvature="0"/>
      </clipPath>
      <clipPath clipPathUnits="userSpaceOnUse" id="683104802198-clipPath1">
        <path d="m 368.0517,382.4732 c -20.356,0 -36.8578,16.5018 -36.8578,36.8578 0,20.356 16.5018,36.8578 36.8578,36.8578 20.356,0 36.8577,-16.5018 36.8577,-36.8578 0,-20.356 -16.5017,-36.8578 -36.8577,-36.8578 z" id="path45" inkscape:connector-curvature="0"/>
      </clipPath>
      <clipPath clipPathUnits="userSpaceOnUse" id="683104802696-clipPath1">
        <path d="m 578.2111,127.8593 c -20.456,0 -37.0389,16.5828 -37.0389,37.0388 0,20.456 16.5829,37.0389 37.0389,37.0389 20.456,0 37.0388,-16.5829 37.0388,-37.0389 0,-20.456 -16.5828,-37.0388 -37.0388,-37.0388 z" id="path48" inkscape:connector-curvature="0"/>
      </clipPath>
      <clipPath clipPathUnits="userSpaceOnUse" id="683104802750-clipPath1">
        <path d="m -257.3694,-201.6494 800,0 0,600 -800,0 0,-600 z" id="path51" inkscape:connector-curvature="0"/>
      </clipPath>
      <clipPath clipPathUnits="userSpaceOnUse" id="683104802958-clipPath1">
        <path d="m -353.5048,-368.154 800,0 0,600 -800,0 0,-600 z" id="path54" inkscape:connector-curvature="0"/>
      </clipPath>
      <clipPath clipPathUnits="userSpaceOnUse" id="683104802755-clipPath1">
        <path d="m -555.2014,-346.9755 800,0 0,600.0001 -800,0 0,-600.0001 z" id="path57" inkscape:connector-curvature="0"/>
      </clipPath>
      <clipPath clipPathUnits="userSpaceOnUse" id="683104802845-clipPath1">
        <path d="m -555.2192,-167.3747 800,0 0,600 -800,0 0,-600 z" id="path60" inkscape:connector-curvature="0"/>
      </clipPath>
      <clipPath clipPathUnits="userSpaceOnUse" id="683104802194-clipPath1">
        <path d="m -160.7726,-368.1734 800,0 0,600 -800,0 0,-600 z" id="path63" inkscape:connector-curvature="0"/>
      </clipPath>
      <clipPath clipPathUnits="userSpaceOnUse" id="683104802958-clipPath2">
        <path d="m -353.036,-35.1448 800,0 0,600 -800,0 0,-600 z" id="path66" inkscape:connector-curvature="0"/>
      </clipPath>
    </defs>
    <g id="g68" style="text-rendering:geometricPrecision">
      <path d="m 366.8504,171.7287 96.1354,55.5015 c 1.1494,0.6636 2.6184,0.2699 3.282,-0.8795 0.6636,-1.1494 0.27,-2.6184 -0.8795,-3.282 L 369.253,167.5671 c -1.1495,-0.6636 -2.6185,-0.2699 -3.2821,0.8795 -0.6636,1.1494 -0.2699,2.6185 0.8795,3.2821 z" clip-path="url(#683104802254-clipPath1)" id="path70" inkscape:connector-curvature="0" style="stroke:none"/>
    </g>
    <g id="g72" style="text-rendering:geometricPrecision">
      <path d="m 441.7622,322.2019 c 0,1.3272 1.0755,2.4026 2.4027,2.4026 1.3272,0 2.4026,-1.0754 2.4026,-2.4026 l 0,-83.0898 c 0,-1.3272 -1.0754,-2.4026 -2.4026,-2.4026 -1.3272,0 -2.4027,1.0754 -2.4027,2.4026 z m 20.0222,13.9641 c 0,1.3272 1.0754,2.4026 2.4026,2.4026 1.3273,0 2.4027,-1.0754 2.4027,-2.4026 l 0,-111.0166 c 0,-1.3272 -1.0754,-2.4026 -2.4027,-2.4026 -1.3272,0 -2.4026,1.0754 -2.4026,2.4026 z" clip-path="url(#683104802254-clipPath1)" id="path74" inkscape:connector-curvature="0" style="stroke:none"/>
    </g>
    <g id="g76" style="fill:#ff0000;stroke:#ff0000;text-rendering:geometricPrecision">
      <path d="m 355.6379,175.4276 c 0,1.3272 1.0755,2.4026 2.4027,2.4026 1.3272,0 2.4026,-1.0754 2.4026,-2.4026 l 0,-87.848 c 0,-1.3272 -1.0754,-2.4026 -2.4026,-2.4026 -1.3272,0 -2.4027,1.0754 -2.4027,2.4026 z m 20.0222,0 c 0,1.3272 1.0755,2.4026 2.4026,2.4026 1.3273,0 2.4027,-1.0754 2.4027,-2.4026 l 0,-87.848 c 0,-1.3272 -1.0754,-2.4026 -2.4027,-2.4026 -1.3271,0 -2.4026,1.0754 -2.4026,2.4026 z" clip-path="url(#683104802254-clipPath1)" id="path78" inkscape:connector-curvature="0" style="stroke:none"/>
      <path d="m 355.6379,175.4276 c 0,1.3272 1.0755,2.4026 2.4027,2.4026 1.3272,0 2.4026,-1.0754 2.4026,-2.4026 l 0,-87.848 c 0,-1.3272 -1.0754,-2.4026 -2.4026,-2.4026 -1.3272,0 -2.4027,1.0754 -2.4027,2.4026 z m 20.0222,0 c 0,1.3272 1.0755,2.4026 2.4026,2.4026 1.3273,0 2.4027,-1.0754 2.4027,-2.4026 l 0,-87.848 c 0,-1.3272 -1.0754,-2.4026 -2.4027,-2.4026 -1.3271,0 -2.4026,1.0754 -2.4026,2.4026 z" clip-path="url(#683104802132-clipPath1)" id="path80" inkscape:connector-curvature="0" style="fill:#000000;stroke:none"/>
    </g>
    <g id="g82" style="fill:#ff0000;stroke:#ff0000;text-rendering:geometricPrecision">
      <path d="m 283.1299,344.0255 c 1.1493,-0.6637 1.5429,-2.1328 0.8792,-3.2821 -0.6637,-1.1494 -2.1328,-1.5429 -3.2821,-0.8792 l -77.9872,45.0323 c -1.1493,0.6636 -1.5429,2.1327 -0.8792,3.2821 0.6636,1.1493 2.1327,1.5429 3.2821,0.8792 z m -10.0122,-17.3391 c 1.1494,-0.6637 1.5429,-2.1328 0.8792,-3.2821 -0.6636,-1.1494 -2.1327,-1.5429 -3.2821,-0.8792 l -77.9872,45.0323 c -1.1493,0.6636 -1.5428,2.1327 -0.8792,3.2821 0.6637,1.1493 2.1328,1.5429 3.2821,0.8792 z" clip-path="url(#683104802254-clipPath1)" id="path84" inkscape:connector-curvature="0" style="stroke:none"/>
      <path d="m 283.1299,344.0255 c 1.1493,-0.6637 1.5429,-2.1328 0.8792,-3.2821 -0.6637,-1.1494 -2.1328,-1.5429 -3.2821,-0.8792 l -77.9872,45.0323 c -1.1493,0.6636 -1.5429,2.1327 -0.8792,3.2821 0.6636,1.1493 2.1327,1.5429 3.2821,0.8792 z m -10.0122,-17.3391 c 1.1494,-0.6637 1.5429,-2.1328 0.8792,-3.2821 -0.6636,-1.1494 -2.1327,-1.5429 -3.2821,-0.8792 l -77.9872,45.0323 c -1.1493,0.6636 -1.5428,2.1327 -0.8792,3.2821 0.6637,1.1493 2.1328,1.5429 3.2821,0.8792 z" clip-path="url(#683104802202-clipPath1)" id="path86" inkscape:connector-curvature="0" style="fill:#000000;stroke:none"/>
    </g>
    <g id="g88" style="fill:#333399;stroke:#333399;text-rendering:geometricPrecision">
      <path d="m 636.9474,279.2667 -49.3736,-67.9664 c -0.78,-1.0738 -2.2822,-1.3118 -3.356,-0.5318 -1.0738,0.7801 -1.3118,2.2822 -0.5318,3.356 l 49.3736,67.9664 c 0.7801,1.0738 2.2823,1.3118 3.356,0.5318 1.0738,-0.78 1.3118,-2.2822 0.5318,-3.356 z" clip-path="url(#683104802254-clipPath1)" id="path90" inkscape:connector-curvature="0" style="stroke:none"/>
      <path d="m 636.9474,279.2667 -49.3736,-67.9664 c -0.78,-1.0738 -2.2822,-1.3118 -3.356,-0.5318 -1.0738,0.7801 -1.3118,2.2822 -0.5318,3.356 l 49.3736,67.9664 c 0.7801,1.0738 2.2823,1.3118 3.356,0.5318 1.0738,-0.78 1.3118,-2.2822 0.5318,-3.356 z" clip-path="url(#683104802534-clipPath1)" id="path92" inkscape:connector-curvature="0" style="fill:#000000;stroke:none"/>
    </g>
    <g id="g94" style="fill:#333399;stroke:#333399;text-rendering:geometricPrecision">
      <path d="m 464.9289,227.4347 84.6493,-27.4803 c 1.2624,-0.4098 1.9532,-1.7647 1.5434,-3.0271 -0.4097,-1.2623 -1.7647,-1.9531 -3.0271,-1.5433 l -84.6493,27.4802 c -1.2624,0.4098 -1.9532,1.7648 -1.5434,3.0271 0.4098,1.2624 1.7648,1.9532 3.0271,1.5434 z" clip-path="url(#683104802254-clipPath1)" id="path96" inkscape:connector-curvature="0" style="stroke:none"/>
      <path d="m 464.9289,227.4347 84.6493,-27.4803 c 1.2624,-0.4098 1.9532,-1.7647 1.5434,-3.0271 -0.4097,-1.2623 -1.7647,-1.9531 -3.0271,-1.5433 l -84.6493,27.4802 c -1.2624,0.4098 -1.9532,1.7648 -1.5434,3.0271 0.4098,1.2624 1.7648,1.9532 3.0271,1.5434 z" clip-path="url(#683104802785-clipPath1)" id="path98" inkscape:connector-curvature="0" style="fill:#000000;stroke:none"/>
    </g>
    <g id="g100" style="text-rendering:geometricPrecision">
      <path d="m 567.4752,335.4573 c -0.7802,1.0737 -0.5424,2.5759 0.5312,3.3561 1.0737,0.7802 2.5759,0.5425 3.3561,-0.5312 l 39.4231,-54.2494 c 0.7802,-1.0737 0.5425,-2.5759 -0.5312,-3.3561 -1.0737,-0.7802 -2.5759,-0.5424 -3.3561,0.5312 z m 16.1971,11.7705 c -0.7802,1.0736 -0.5425,2.5758 0.5312,3.356 1.0737,0.7802 2.5759,0.5425 3.3561,-0.5312 l 49.3875,-67.9613 c 0.7803,-1.0737 0.5425,-2.5759 -0.5311,-3.3561 -1.0737,-0.7802 -2.5759,-0.5425 -3.3561,0.5312 z" clip-path="url(#683104802254-clipPath1)" id="path102" inkscape:connector-curvature="0" style="stroke:none"/>
      <path d="m 567.4752,335.4573 c -0.7802,1.0737 -0.5424,2.5759 0.5312,3.3561 1.0737,0.7802 2.5759,0.5425 3.3561,-0.5312 l 39.4231,-54.2494 c 0.7802,-1.0737 0.5425,-2.5759 -0.5312,-3.3561 -1.0737,-0.7802 -2.5759,-0.5424 -3.3561,0.5312 z m 16.1971,11.7705 c -0.7802,1.0736 -0.5425,2.5758 0.5312,3.356 1.0737,0.7802 2.5759,0.5425 3.3561,-0.5312 l 49.3875,-67.9613 c 0.7803,-1.0737 0.5425,-2.5759 -0.5311,-3.3561 -1.0737,-0.7802 -2.5759,-0.5425 -3.3561,0.5312 z" clip-path="url(#68310480257-clipPath1)" id="path104" inkscape:connector-curvature="0" style="fill:#333399;stroke:none"/>
    </g>
    <g id="g106" style="fill:#333399;stroke:#333399;text-rendering:geometricPrecision">
      <path d="m 463.4444,338.4509 84.6317,27.507 c 1.2622,0.4103 2.6174,-0.2801 3.0277,-1.5423 0.4102,-1.2622 -0.2801,-2.6174 -1.5423,-3.0276 l -84.6318,-27.507 c -1.2622,-0.4103 -2.6174,0.2801 -3.0276,1.5423 -0.4103,1.2622 0.2801,2.6174 1.5423,3.0276 z" clip-path="url(#683104802254-clipPath1)" id="path108" inkscape:connector-curvature="0" style="stroke:none"/>
      <path d="m 463.4444,338.4509 84.6317,27.507 c 1.2622,0.4103 2.6174,-0.2801 3.0277,-1.5423 0.4102,-1.2622 -0.2801,-2.6174 -1.5423,-3.0276 l -84.6318,-27.507 c -1.2622,-0.4103 -2.6174,0.2801 -3.0276,1.5423 -0.4103,1.2622 0.2801,2.6174 1.5423,3.0276 z" clip-path="url(#683104802771-clipPath1)" id="path110" inkscape:connector-curvature="0" style="fill:#000000;stroke:none"/>
    </g>
    <g id="g112" style="fill:#333399;stroke:#333399;text-rendering:geometricPrecision">
      <path d="m 270.7152,338.2469 75.603,43.637 c 1.1495,0.6635 2.6185,0.2697 3.282,-0.8798 0.6634,-1.1495 0.2696,-2.6185 -0.8799,-3.282 l -75.603,-43.637 c -1.1494,-0.6635 -2.6185,-0.2697 -3.2819,0.8798 -0.6635,1.1495 -0.2697,2.6185 0.8798,3.282 z" clip-path="url(#683104802254-clipPath1)" id="path114" inkscape:connector-curvature="0" style="stroke:none"/>
      <path d="m 270.7152,338.2469 75.603,43.637 c 1.1495,0.6635 2.6185,0.2697 3.282,-0.8798 0.6634,-1.1495 0.2696,-2.6185 -0.8799,-3.282 l -75.603,-43.637 c -1.1494,-0.6635 -2.6185,-0.2697 -3.2819,0.8798 -0.6635,1.1495 -0.2697,2.6185 0.8798,3.282 z" clip-path="url(#683104802829-clipPath1)" id="path116" inkscape:connector-curvature="0" style="fill:#000000;stroke:none"/>
    </g>
    <g id="g118" style="text-rendering:geometricPrecision">
      <path d="m 389.7851,381.8839 75.603,-43.637 c 1.1495,-0.6635 1.5433,-2.1326 0.8798,-3.282 -0.6634,-1.1495 -2.1324,-1.5433 -3.2819,-0.8798 l -75.603,43.637 c -1.1495,0.6635 -1.5433,2.1325 -0.8798,3.282 0.6634,1.1494 2.1325,1.5433 3.2819,0.8798 z" clip-path="url(#683104802254-clipPath1)" id="path120" inkscape:connector-curvature="0" style="stroke:none"/>
      <path d="m 389.7851,381.8839 75.603,-43.637 c 1.1495,-0.6635 1.5433,-2.1326 0.8798,-3.282 -0.6634,-1.1495 -2.1324,-1.5433 -3.2819,-0.8798 l -75.603,43.637 c -1.1495,0.6635 -1.5433,2.1325 -0.8798,3.282 0.6634,1.1494 2.1325,1.5433 3.2819,0.8798 z" clip-path="url(#683104802669-clipPath1)" id="path122" inkscape:connector-curvature="0" style="fill:#333399;stroke:none"/>
    </g>
    <g id="g124" style="fill:#333399;stroke:#333399;text-rendering:geometricPrecision">
      <path d="m 366.8504,167.5671 -75.6039,43.6482 c -1.1494,0.6635 -1.543,2.1326 -0.8795,3.282 0.6636,1.1494 2.1327,1.5431 3.2821,0.8795 l 75.6039,-43.6481 c 1.1493,-0.6636 1.543,-2.1327 0.8794,-3.2821 -0.6636,-1.1494 -2.1326,-1.5431 -3.282,-0.8795 z" clip-path="url(#683104802254-clipPath1)" id="path126" inkscape:connector-curvature="0" style="stroke:none"/>
      <path d="m 366.8504,167.5671 -75.6039,43.6482 c -1.1494,0.6635 -1.543,2.1326 -0.8795,3.282 0.6636,1.1494 2.1327,1.5431 3.2821,0.8795 l 75.6039,-43.6481 c 1.1493,-0.6636 1.543,-2.1327 0.8794,-3.2821 -0.6636,-1.1494 -2.1326,-1.5431 -3.282,-0.8795 z" clip-path="url(#683104802804-clipPath1)" id="path128" inkscape:connector-curvature="0" style="fill:#000000;stroke:none"/>
    </g>
    <g id="g130" style="text-rendering:geometricPrecision">
      <path d="m 269.5136,252.8264 0,83.3396 c 0,1.3272 1.0755,2.4026 2.4027,2.4026 1.3272,0 2.4026,-1.0754 2.4026,-2.4026 l 0,-83.3396 c 0,-1.3272 -1.0754,-2.4026 -2.4026,-2.4026 -1.3272,0 -2.4027,1.0754 -2.4027,2.4026 z" clip-path="url(#683104802254-clipPath1)" id="path132" inkscape:connector-curvature="0" style="stroke:none"/>
      <path d="m 269.5136,252.8264 0,83.3396 c 0,1.3272 1.0755,2.4026 2.4027,2.4026 1.3272,0 2.4026,-1.0754 2.4026,-2.4026 l 0,-83.3396 c 0,-1.3272 -1.0754,-2.4026 -2.4026,-2.4026 -1.3272,0 -2.4027,1.0754 -2.4027,2.4026 z" clip-path="url(#683104802967-clipPath1)" id="path134" inkscape:connector-curvature="0" style="fill:#333399;stroke:none"/>
    </g>
    <g id="g136" style="text-rendering:geometricPrecision">
      <path d="m 252.5863,211.2147 -67.2767,-38.843 c -1.1494,-0.6636 -2.6185,-0.27 -3.2821,0.8794 -0.6636,1.1494 -0.27,2.6184 0.8794,3.282 l 67.2767,38.8431 c 1.1494,0.6636 2.6185,0.27 3.2821,-0.8794 0.6636,-1.1494 0.27,-2.6185 -0.8794,-3.2821 z" clip-path="url(#683104802254-clipPath1)" id="path138" inkscape:connector-curvature="0" style="stroke:none"/>
      <path d="m 252.5863,211.2147 -67.2767,-38.843 c -1.1494,-0.6636 -2.6185,-0.27 -3.2821,0.8794 -0.6636,1.1494 -0.27,2.6184 0.8794,3.282 l 67.2767,38.8431 c 1.1494,0.6636 2.6185,0.27 3.2821,-0.8794 0.6636,-1.1494 0.27,-2.6185 -0.8794,-3.2821 z" clip-path="url(#683104802312-clipPath1)" id="path140" inkscape:connector-curvature="0" style="fill:#333399;stroke:none"/>
    </g>
    <g id="g142" style="text-rendering:geometricPrecision">
      <path d="m 365.649,419.331 0,73.7155 c 0,1.3272 1.0755,2.4027 2.4027,2.4027 1.3272,0 2.4026,-1.0755 2.4026,-2.4027 l 0,-73.7155 c 0,-1.3272 -1.0754,-2.4026 -2.4026,-2.4026 -1.3272,0 -2.4027,1.0754 -2.4027,2.4026 z" clip-path="url(#683104802254-clipPath1)" id="path144" inkscape:connector-curvature="0" style="stroke:none"/>
      <path d="m 365.649,419.331 0,73.7155 c 0,1.3272 1.0755,2.4027 2.4027,2.4027 1.3272,0 2.4026,-1.0755 2.4026,-2.4027 l 0,-73.7155 c 0,-1.3272 -1.0754,-2.4026 -2.4026,-2.4026 -1.3272,0 -2.4027,1.0754 -2.4027,2.4026 z" clip-path="url(#683104802198-clipPath1)" id="path146" inkscape:connector-curvature="0" style="fill:#333399;stroke:none"/>
    </g>
    <g id="g148" style="text-rendering:geometricPrecision">
      <path d="m 580.496,165.6409 22.9026,-70.4483 c 0.4104,-1.2622 -0.2799,-2.6175 -1.5421,-3.0278 -1.2621,-0.4103 -2.6174,0.2799 -3.0278,1.5421 l -22.9026,70.4484 c -0.4103,1.2622 0.28,2.6174 1.5421,3.0277 1.2622,0.4104 2.6174,-0.2799 3.0278,-1.5421 z" clip-path="url(#683104802254-clipPath1)" id="path150" inkscape:connector-curvature="0" style="stroke:none"/>
      <path d="m 580.496,165.6409 22.9026,-70.4483 c 0.4104,-1.2622 -0.2799,-2.6175 -1.5421,-3.0278 -1.2621,-0.4103 -2.6174,0.2799 -3.0278,1.5421 l -22.9026,70.4484 c -0.4103,1.2622 0.28,2.6174 1.5421,3.0277 1.2622,0.4104 2.6174,-0.2799 3.0278,-1.5421 z" clip-path="url(#683104802696-clipPath1)" id="path152" inkscape:connector-curvature="0" style="fill:#333399;stroke:none"/>
    </g>
    <g id="g154" style="fill:#ffffff;stroke:#ffffff;text-rendering:geometricPrecision">
      <path d="m 269.9026,207.083 c -4.9889,0 -9.0332,4.0443 -9.0332,9.0332 l 0,18.0664 c 0,4.9889 4.0443,9.0332 9.0332,9.0332 l 4.0274,0 c 4.9889,0 9.0332,-4.0443 9.0332,-9.0332 l 0,-18.0664 c 0,-4.9889 -4.0443,-9.0332 -9.0332,-9.0332 z" clip-path="url(#683104802254-clipPath1)" id="path156" inkscape:connector-curvature="0" style="stroke:none"/>
    </g>
    <g font-size="39px" transform="translate(257.3694,201.6494)" id="g158" style="font-size:39px;font-family:sans-serif;fill:#333399;stroke:#333399;text-rendering:geometricPrecision">
      <text x="0" xml:space="preserve" y="38" clip-path="url(#683104802750-clipPath1)" id="text160" style="stroke:none">N</text>
    </g>
    <g font-size="39px" id="g162" style="font-size:39px;font-family:sans-serif;fill:#ffffff;stroke:#ffffff;text-rendering:geometricPrecision">
      <path d="m 366.038,373.5876 c -4.9889,0 -9.0332,4.0443 -9.0332,9.0332 l 0,18.0664 c 0,4.9889 4.0443,9.0332 9.0332,9.0332 l 4.0273,0 c 4.9889,0 9.0332,-4.0443 9.0332,-9.0332 l 0,-18.0664 c 0,-4.9889 -4.0443,-9.0332 -9.0332,-9.0332 z" clip-path="url(#683104802254-clipPath1)" id="path164" inkscape:connector-curvature="0" style="stroke:none"/>
      <text x="0" y="38" transform="translate(353.5048,368.154)" clip-path="url(#683104802958-clipPath1)" xml:space="preserve" id="text166" style="fill:#333399;stroke:none">N</text>
    </g>
    <g font-size="39px" id="g168" style="font-size:39px;font-family:sans-serif;fill:#ffffff;stroke:#ffffff;text-rendering:geometricPrecision">
      <path d="m 567.7346,352.4091 c -4.9889,0 -9.0332,4.0442 -9.0332,9.0332 l 0,18.0664 c 0,4.9889 4.0443,9.0332 9.0332,9.0332 l 4.0273,0 c 4.9889,0 9.0332,-4.0443 9.0332,-9.0332 l 0,-18.0664 c 0,-4.989 -4.0443,-9.0332 -9.0332,-9.0332 z" clip-path="url(#683104802254-clipPath1)" id="path170" inkscape:connector-curvature="0" style="stroke:none"/>
      <text x="0" y="38" transform="translate(555.2014,346.9755)" clip-path="url(#683104802755-clipPath1)" xml:space="preserve" id="text172" style="fill:#333399;stroke:none">N</text>
    </g>
    <g font-size="39px" id="g174" style="font-size:39px;font-family:sans-serif;fill:#ffffff;stroke:#ffffff;text-rendering:geometricPrecision">
      <path d="m 567.7524,172.8083 c -4.9889,0 -9.0332,4.0443 -9.0332,9.0332 l 0,18.0664 c 0,4.9889 4.0443,9.0332 9.0332,9.0332 l 4.0274,0 c 4.9889,0 9.0332,-4.0443 9.0332,-9.0332 l 0,-18.0664 c 0,-4.9889 -4.0443,-9.0332 -9.0332,-9.0332 z" clip-path="url(#683104802254-clipPath1)" id="path176" inkscape:connector-curvature="0" style="stroke:none"/>
      <text x="0" y="38" transform="translate(555.2192,167.3747)" clip-path="url(#683104802845-clipPath1)" xml:space="preserve" id="text178" style="fill:#333399;stroke:none">N</text>
    </g>
    <g font-size="39px" id="g180" style="font-size:39px;font-family:sans-serif;fill:#ffffff;stroke:#ffffff;text-rendering:geometricPrecision">
      <path d="m 171.755,373.0679 c -5.237,0 -9.4824,4.2454 -9.4824,9.4824 l 0,18.9649 c 0,5.237 4.2454,9.4824 9.4824,9.4824 l 8.0664,0 c 5.237,0 9.4824,-4.2454 9.4824,-9.4824 l 0,-18.9649 c 0,-5.237 -4.2454,-9.4824 -9.4824,-9.4824 z" clip-path="url(#683104802254-clipPath1)" id="path182" inkscape:connector-curvature="0" style="stroke:none"/>
      <text x="0" y="38" transform="translate(160.7726,368.1734)" clip-path="url(#683104802194-clipPath1)" xml:space="preserve" id="text184" style="fill:#ff0000;stroke:none">O</text>
    </g>
    <g font-size="39px" id="g186" style="font-size:39px;font-family:sans-serif;fill:#ffffff;stroke:#ffffff;text-rendering:geometricPrecision">
      <path d="m 364.0185,40.0394 c -5.237,0 -9.4825,4.2454 -9.4825,9.4824 l 0,18.9648 c 0,5.237 4.2455,9.4825 9.4825,9.4825 l 8.0664,0 c 5.237,0 9.4824,-4.2455 9.4824,-9.4825 l 0,-18.9648 c 0,-5.237 -4.2454,-9.4824 -9.4824,-9.4824 z" clip-path="url(#683104802254-clipPath1)" id="path188" inkscape:connector-curvature="0" style="stroke:none"/>
      <text x="0" y="38" transform="translate(353.036,35.1448)" clip-path="url(#683104802958-clipPath2)" xml:space="preserve" id="text190" style="fill:#ff0000;stroke:none">O</text>
    </g>
  </g>
</svg>