<?xml version="1.0" encoding="UTF-8" standalone="no"?>
<svg xmlns:dc="http://purl.org/dc/elements/1.1/" xmlns:cc="http://creativecommons.org/ns#" xmlns:rdf="http://www.w3.org/1999/02/22-rdf-syntax-ns#" xmlns:svg="http://www.w3.org/2000/svg" xmlns="http://www.w3.org/2000/svg" xmlns:sodipodi="http://sodipodi.sourceforge.net/DTD/sodipodi-0.dtd" xmlns:inkscape="http://www.inkscape.org/namespaces/inkscape" width="471.87238" stroke-miterlimit="10" font-weight="normal" height="434.26929" font-style="normal" font-size="12px" id="svg2" version="1.1" inkscape:version="0.91 r13725" sodipodi:docname="DXM.svg" style="font-style:normal;font-weight:normal;font-size:12px;font-family:Dialog;color-interpolation:auto;fill:#000000;fill-opacity:1;stroke:#000000;stroke-width:1;stroke-linecap:square;stroke-linejoin:miter;stroke-miterlimit:10;stroke-dasharray:none;stroke-dashoffset:0;stroke-opacity:1;color-rendering:auto;image-rendering:auto;shape-rendering:auto;text-rendering:auto">
  <metadata id="metadata171">
    <rdf:RDF>
      <cc:Work rdf:about="">
        <dc:format>image/svg+xml</dc:format>
        <dc:type rdf:resource="http://purl.org/dc/dcmitype/StillImage"/>
        <dc:title/>
      </cc:Work>
    </rdf:RDF>
  </metadata>
  <sodipodi:namedview pagecolor="#ffffff" bordercolor="#666666" borderopacity="1" objecttolerance="10" gridtolerance="10" guidetolerance="10" inkscape:pageopacity="0" inkscape:pageshadow="2" inkscape:window-width="1060" inkscape:window-height="480" id="namedview169" showgrid="false" fit-margin-top="10" fit-margin-left="10" fit-margin-right="10" fit-margin-bottom="10" inkscape:zoom="0.36375" inkscape:cx="380.99478" inkscape:cy="217.01199" inkscape:window-x="0" inkscape:window-y="0" inkscape:window-maximized="0" inkscape:current-layer="svg2"/>
  <!--Generated by Marvin with Batik SVG Generator-->
  <defs id="genericDefs"/>
  <g id="g5" transform="translate(-19.005219,-82.7427)">
    <defs id="1001636255632-defs1">
      <clipPath clipPathUnits="userSpaceOnUse" id="1001636255365-clipPath1">
        <path d="M 0,0 800,0 800,600 0,600 0,0 Z" id="path9" inkscape:connector-curvature="0"/>
      </clipPath>
      <clipPath clipPathUnits="userSpaceOnUse" id="1001636255909-clipPath1">
        <path d="m 251,416 q 8,4 4,12 l -76,24 q -8,-4 -4,-12 l 76,-24 z M 0,0 0,600 800,600 800,0 Z" id="path12" inkscape:connector-curvature="0"/>
      </clipPath>
      <clipPath clipPathUnits="userSpaceOnUse" id="1001636255198-clipPath1">
        <path d="m 139.5724,315.4618 c -16.6821,0 -30.2056,13.5235 -30.2056,30.2056 0,16.682 13.5235,30.2055 30.2056,30.2055 16.6821,0 30.2055,-13.5235 30.2055,-30.2055 0,-16.6821 -13.5234,-30.2056 -30.2055,-30.2056 z" id="path15" inkscape:connector-curvature="0"/>
      </clipPath>
      <clipPath clipPathUnits="userSpaceOnUse" id="1001636255305-clipPath1">
        <path d="m 114.7303,387.1575 c -18.6271,0 -33.7274,15.1003 -33.7274,33.7273 0,18.6271 15.1003,33.7274 33.7274,33.7274 18.6271,0 33.7273,-15.1003 33.7273,-33.7274 0,-18.627 -15.1002,-33.7273 -33.7273,-33.7273 z" id="path18" inkscape:connector-curvature="0"/>
      </clipPath>
      <clipPath clipPathUnits="userSpaceOnUse" id="1001636255879-clipPath1">
        <path d="m 208.6877,355.6602 c -16.5131,0 -29.8996,13.3865 -29.8996,29.8996 0,16.513 13.3865,29.8996 29.8996,29.8996 16.513,0 29.8995,-13.3866 29.8995,-29.8996 0,-16.5131 -13.3865,-29.8996 -29.8995,-29.8996 z" id="path21" inkscape:connector-curvature="0"/>
      </clipPath>
      <clipPath clipPathUnits="userSpaceOnUse" id="1001636255954-clipPath1">
        <path d="m 84.5668,391.5084 c -15.7192,0 -28.4621,12.7429 -28.4621,28.4622 0,15.7192 12.7429,28.4621 28.4621,28.4621 15.7192,0 28.4621,-12.7429 28.4621,-28.4621 0,-15.7193 -12.7429,-28.4622 -28.4621,-28.4622 z" id="path24" inkscape:connector-curvature="0"/>
      </clipPath>
      <clipPath clipPathUnits="userSpaceOnUse" id="1001636255227-clipPath1">
        <path d="m 346.9086,115.751 c -16.782,0 -30.3865,13.6045 -30.3865,30.3865 0,16.782 13.6045,30.3864 30.3865,30.3864 16.7819,0 30.3864,-13.6044 30.3864,-30.3864 0,-16.782 -13.6045,-30.3865 -30.3864,-30.3865 z" id="path27" inkscape:connector-curvature="0"/>
      </clipPath>
      <clipPath clipPathUnits="userSpaceOnUse" id="1001636255995-clipPath1">
        <path d="m 432.5034,88.8213 c -14.874,0 -26.9317,12.0577 -26.9317,26.9316 0,14.874 12.0577,26.9317 26.9317,26.9317 14.8739,0 26.9317,-12.0577 26.9317,-26.9317 0,-14.8739 -12.0578,-26.9316 -26.9317,-26.9316 z" id="path30" inkscape:connector-curvature="0"/>
      </clipPath>
      <clipPath clipPathUnits="userSpaceOnUse" id="1001636255103-clipPath1">
        <path d="m -89.1625,-398.2798 800,0 0,600 -800,0 0,-600 z" id="path33" inkscape:connector-curvature="0"/>
      </clipPath>
      <clipPath clipPathUnits="userSpaceOnUse" id="1001636255492-clipPath1">
        <path d="m -198.2267,-289.2556 800,0 0,600 -800,0 0,-600 z" id="path36" inkscape:connector-curvature="0"/>
      </clipPath>
      <clipPath clipPathUnits="userSpaceOnUse" id="1001636255569-clipPath1">
        <path d="m -405.2172,-89.7369 800,0 0,600 -800,0 0,-600 z" id="path39" inkscape:connector-curvature="0"/>
      </clipPath>
    </defs>
    <g id="g41" style="text-rendering:geometricPrecision">
      <path d="m 278.6667,104.7395 c -0.8263,-0.4771 -1.8825,-0.1942 -2.3596,0.6321 -0.4772,0.8264 -0.1942,1.8825 0.6321,2.3597 l 69.1056,39.9021 c 0.8264,0.4771 1.8825,0.1941 2.3596,-0.6322 0.4772,-0.8263 0.1942,-1.8825 -0.6321,-2.3596 z m 1.4954,17.4854 c -0.8263,-0.4771 -1.8825,-0.1942 -2.3596,0.6321 -0.4772,0.8264 -0.1942,1.8826 0.6321,2.3597 l 51.7196,29.8633 c 0.8264,0.4771 1.8825,0.1942 2.3597,-0.6322 0.4771,-0.8263 0.1941,-1.8825 -0.6322,-2.3596 z" clip-path="url(#1001636255365-clipPath1)" id="path43" inkscape:connector-curvature="0" style="stroke:none"/>
    </g>
    <g id="g45" style="text-rendering:geometricPrecision">
      <path d="m 345.1812,146.1375 0,79.8139 c 0,0.9541 0.7732,1.7273 1.7274,1.7273 0.9541,0 1.7273,-0.7732 1.7273,-1.7273 l 0,-79.8139 c 0,-0.9542 -0.7732,-1.7274 -1.7273,-1.7274 -0.9542,0 -1.7274,0.7732 -1.7274,1.7274 z" clip-path="url(#1001636255365-clipPath1)" id="path47" inkscape:connector-curvature="0" style="stroke:none"/>
    </g>
    <g id="g49" style="text-rendering:geometricPrecision">
      <path d="m 347.7723,227.4473 c 0.8263,-0.4772 1.1093,-1.5333 0.6321,-2.3597 -0.4771,-0.8263 -1.5332,-1.1093 -2.3596,-0.6321 l -69.1056,39.9021 c -0.8263,0.4771 -1.1093,1.5333 -0.6321,2.3596 0.4771,0.8263 1.5333,1.1093 2.3596,0.6322 z m -15.8906,-7.4467 c 0.8263,-0.4771 1.1093,-1.5333 0.6322,-2.3596 -0.4772,-0.8263 -1.5333,-1.1093 -2.3597,-0.6321 l -51.7196,29.8633 c -0.8263,0.4771 -1.1093,1.5333 -0.6321,2.3596 0.4771,0.8263 1.5333,1.1093 2.3596,0.6322 z" clip-path="url(#1001636255365-clipPath1)" id="path51" inkscape:connector-curvature="0" style="stroke:none"/>
    </g>
    <g id="g53" style="text-rendering:geometricPrecision">
      <path d="m 278.6666,264.3575 -69.1153,-39.9021 c -0.8263,-0.4771 -1.8825,-0.194 -2.3596,0.6323 -0.4771,0.8264 -0.194,1.8825 0.6323,2.3596 l 69.1153,39.9021 c 0.8264,0.4771 1.8825,0.1941 2.3596,-0.6323 0.4771,-0.8263 0.1941,-1.8825 -0.6323,-2.3596 z" clip-path="url(#1001636255365-clipPath1)" id="path55" inkscape:connector-curvature="0" style="stroke:none"/>
    </g>
    <g id="g57" style="text-rendering:geometricPrecision">
      <path d="m 206.9603,225.9514 c 0,0.9541 0.7732,1.7273 1.7274,1.7273 0.9541,0 1.7273,-0.7732 1.7273,-1.7273 l 0,-79.8139 c 0,-0.9542 -0.7732,-1.7274 -1.7273,-1.7274 -0.9542,0 -1.7274,0.7732 -1.7274,1.7274 z m 14.3947,-10.0383 c 0,0.9541 0.7732,1.7273 1.7274,1.7273 0.9541,0 1.7273,-0.7732 1.7273,-1.7273 l 0,-59.7373 c 0,-0.9542 -0.7732,-1.7274 -1.7273,-1.7274 -0.9542,0 -1.7274,0.7732 -1.7274,1.7274 z" clip-path="url(#1001636255365-clipPath1)" id="path59" inkscape:connector-curvature="0" style="stroke:none"/>
    </g>
    <g id="g61" style="text-rendering:geometricPrecision">
      <path d="m 209.5513,147.6334 69.1153,-39.9021 c 0.8264,-0.4771 1.1094,-1.5332 0.6323,-2.3596 -0.4771,-0.8263 -1.5332,-1.1093 -2.3596,-0.6323 l -69.1153,39.9021 c -0.8263,0.4771 -1.1093,1.5333 -0.6323,2.3596 0.4771,0.8264 1.5333,1.1094 2.3596,0.6323 z" clip-path="url(#1001636255365-clipPath1)" id="path63" inkscape:connector-curvature="0" style="stroke:none"/>
    </g>
    <g id="g65" style="text-rendering:geometricPrecision">
      <path d="m 276.9395,344.1713 -69.1153,39.8925 c -0.8264,0.4769 -1.1096,1.5331 -0.6326,2.3595 0.477,0.8264 1.5332,1.1095 2.3596,0.6325 l 69.1152,-39.8924 c 0.8264,-0.477 1.1096,-1.5332 0.6326,-2.3595 -0.477,-0.8265 -1.5331,-1.1096 -2.3595,-0.6326 z" clip-path="url(#1001636255365-clipPath1)" id="path67" inkscape:connector-curvature="0" style="stroke:none"/>
    </g>
    <g id="g69" style="text-rendering:geometricPrecision">
      <path d="m 209.5512,384.0638 -69.1153,-39.8925 c -0.8264,-0.477 -1.8826,-0.1939 -2.3595,0.6326 -0.477,0.8263 -0.1939,1.8825 0.6325,2.3595 l 69.1153,39.8924 c 0.8264,0.477 1.8825,0.1939 2.3595,-0.6325 0.477,-0.8264 0.1939,-1.8826 -0.6325,-2.3595 z" clip-path="url(#1001636255365-clipPath1)" id="path71" inkscape:connector-curvature="0" style="stroke:none"/>
    </g>
    <g id="g73" style="text-rendering:geometricPrecision">
      <path d="m 141.2997,345.6674 0,-79.8139 c 0,-0.9542 -0.7731,-1.7274 -1.7273,-1.7274 -0.9542,0 -1.7274,0.7732 -1.7274,1.7274 l 0,79.8139 c 0,0.9541 0.7732,1.7273 1.7274,1.7273 0.9542,0 1.7273,-0.7732 1.7273,-1.7273 z" clip-path="url(#1001636255365-clipPath1)" id="path75" inkscape:connector-curvature="0" style="stroke:none"/>
    </g>
    <g id="g77" style="text-rendering:geometricPrecision">
      <path d="m 276.0756,265.8535 0,79.8139 c 0,0.9541 0.7732,1.7273 1.7273,1.7273 0.9542,0 1.7274,-0.7732 1.7274,-1.7273 l 0,-79.8139 c 0,-0.9542 -0.7732,-1.7274 -1.7274,-1.7274 -0.9541,0 -1.7273,0.7732 -1.7273,1.7274 z" clip-path="url(#1001636255365-clipPath1)" id="path79" inkscape:connector-curvature="0" style="stroke:none"/>
    </g>
    <g id="g81" style="text-rendering:geometricPrecision">
      <path d="m 207.824,224.4554 -69.1153,39.9021 c -0.8263,0.4771 -1.1093,1.5333 -0.6323,2.3596 0.4771,0.8264 1.5333,1.1094 2.3596,0.6323 l 69.1153,-39.9021 c 0.8264,-0.4771 1.1094,-1.5332 0.6323,-2.3596 -0.4771,-0.8263 -1.5332,-1.1094 -2.3596,-0.6323 z" clip-path="url(#1001636255365-clipPath1)" id="path83" inkscape:connector-curvature="0" style="stroke:none"/>
    </g>
    <g id="g85" style="text-rendering:geometricPrecision">
      <path d="m 345.193,385.5823 -0.021,79.8018 c -3e-4,0.9542 0.7727,1.7276 1.7269,1.7278 0.9542,3e-4 1.7275,-0.7727 1.7278,-1.7269 l 0.0209,-79.8018 c 3e-4,-0.9541 -0.7727,-1.7275 -1.7269,-1.7278 -0.9541,-2e-4 -1.7275,0.7727 -1.7277,1.7269 z" clip-path="url(#1001636255365-clipPath1)" id="path87" inkscape:connector-curvature="0" style="stroke:none"/>
    </g>
    <g id="g89" style="text-rendering:geometricPrecision">
      <path d="m 346.0357,463.8886 -69.1111,39.8997 c -0.8264,0.4771 -1.1094,1.5333 -0.6323,2.3596 0.4771,0.8263 1.5332,1.1094 2.3596,0.6323 l 69.1111,-39.8997 c 0.8263,-0.4771 1.1093,-1.5332 0.6323,-2.3596 -0.4771,-0.8263 -1.5333,-1.1093 -2.3596,-0.6323 z" clip-path="url(#1001636255365-clipPath1)" id="path91" inkscape:connector-curvature="0" style="stroke:none"/>
    </g>
    <g id="g93" style="text-rendering:geometricPrecision">
      <path d="m 278.6521,503.7885 -69.1152,-39.9167 c -0.8263,-0.4772 -1.8825,-0.1943 -2.3597,0.632 -0.4772,0.8262 -0.1944,1.8824 0.6319,2.3596 l 69.1152,39.9167 c 0.8263,0.4772 1.8825,0.1943 2.3597,-0.632 0.4772,-0.8262 0.1944,-1.8824 -0.6319,-2.3596 z" clip-path="url(#1001636255365-clipPath1)" id="path95" inkscape:connector-curvature="0" style="stroke:none"/>
    </g>
    <g id="g97" style="text-rendering:geometricPrecision">
      <path d="m 276.9391,347.1632 69.1174,39.9154 c 0.8263,0.4772 1.8824,0.1943 2.3596,-0.632 0.4772,-0.8263 0.1943,-1.8825 -0.632,-2.3597 l -69.1173,-39.9154 c -0.8263,-0.4772 -1.8825,-0.1943 -2.3597,0.632 -0.4772,0.8263 -0.1943,1.8825 0.632,2.3597 z" clip-path="url(#1001636255365-clipPath1)" id="path99" inkscape:connector-curvature="0" style="stroke:none"/>
    </g>
    <g id="g101" style="text-rendering:geometricPrecision">
      <path d="m 206.9603,385.5595 -0.0147,79.8078 c -1e-4,0.9542 0.7729,1.7275 1.7271,1.7277 0.9541,2e-4 1.7274,-0.7729 1.7276,-1.727 l 0.0147,-79.8079 c 2e-4,-0.9542 -0.7728,-1.7275 -1.727,-1.7277 -0.9542,-2e-4 -1.7275,0.7729 -1.7277,1.7271 z" clip-path="url(#1001636255909-clipPath1)" id="path103" inkscape:connector-curvature="0" style="stroke:none"/>
    </g>
    <g id="g105" style="text-rendering:geometricPrecision">
      <path d="m 277.8029,345.6674 -1.6427,-0.5338 -36.3694,82.5864 12.6915,-4.1237 12.6915,-4.1237 14.2719,-73.2715 z" clip-path="url(#1001636255365-clipPath1)" id="path107" inkscape:connector-curvature="0" style="stroke:none"/>
    </g>
    <g id="g109" style="fill:#333399;stroke:#333399;text-rendering:geometricPrecision">
      <path d="m 139.5724,345.6674 -1.4959,-0.8637 -38.0593,47.7832 9.3496,5.398 9.3497,5.398 22.3518,-56.8519 z" clip-path="url(#1001636255365-clipPath1)" id="path111" inkscape:connector-curvature="0" style="stroke:none"/>
      <path d="m 139.5724,345.6674 -1.4959,-0.8637 -38.0593,47.7832 9.3496,5.398 9.3497,5.398 22.3518,-56.8519 z" clip-path="url(#1001636255198-clipPath1)" id="path113" inkscape:connector-curvature="0" style="fill:#000000;stroke:none"/>
    </g>
    <g id="g115" style="text-rendering:geometricPrecision">
      <path d="M 252.6083,419.9229 176.71,444.5837 c -0.9075,0.2949 -1.4039,1.2691 -1.109,2.1766 0.2948,0.9075 1.2691,1.4039 2.1766,1.109 l 75.8983,-24.6608 c 0.9074,-0.2949 1.4039,-1.2691 1.109,-2.1766 -0.2949,-0.9075 -1.2691,-1.4039 -2.1766,-1.109 z" clip-path="url(#1001636255365-clipPath1)" id="path117" inkscape:connector-curvature="0" style="stroke:none"/>
    </g>
    <g id="g119" style="text-rendering:geometricPrecision">
      <path d="m 114.0814,422.4857 62.5134,25.3416 c 0.8843,0.3585 1.8913,-0.0676 2.2498,-0.9518 0.3585,-0.8843 -0.0676,-1.8913 -0.9519,-2.2498 L 115.3792,419.284 c -0.8843,-0.3584 -1.8913,0.0676 -2.2497,0.9519 -0.3585,0.8843 0.0676,1.8913 0.9519,2.2498 z" clip-path="url(#1001636255365-clipPath1)" id="path121" inkscape:connector-curvature="0" style="stroke:none"/>
      <path d="m 114.0814,422.4857 62.5134,25.3416 c 0.8843,0.3585 1.8913,-0.0676 2.2498,-0.9518 0.3585,-0.8843 -0.0676,-1.8913 -0.9519,-2.2498 L 115.3792,419.284 c -0.8843,-0.3584 -1.8913,0.0676 -2.2497,0.9519 -0.3585,0.8843 0.0676,1.8913 0.9519,2.2498 z" clip-path="url(#1001636255305-clipPath1)" id="path123" inkscape:connector-curvature="0" style="fill:#333399;stroke:none"/>
    </g>
    <g id="g125" style="fill:#333333;stroke:#333333;text-rendering:geometricPrecision">
      <path d="m 208.6877,385.5598 1.7273,0 9.0687,-59.7991 -10.796,0 -10.7961,0 9.0687,59.7991 z" clip-path="url(#1001636255365-clipPath1)" id="path127" inkscape:connector-curvature="0" style="stroke:none"/>
      <path d="m 208.6877,385.5598 1.7273,0 9.0687,-59.7991 -10.796,0 -10.7961,0 9.0687,59.7991 z" clip-path="url(#1001636255879-clipPath1)" id="path129" inkscape:connector-curvature="0" style="fill:#000000;stroke:none"/>
    </g>
    <g id="g131" style="text-rendering:geometricPrecision">
      <path d="m 84.0054,418.337 -53.8337,18.5014 c -0.9024,0.3101 -1.3823,1.2926 -1.0722,2.195 0.3101,0.9024 1.2926,1.3823 2.195,1.0722 l 53.8337,-18.5015 c 0.9024,-0.3101 1.3823,-1.2926 1.0722,-2.195 -0.3102,-0.9023 -1.2927,-1.3822 -2.195,-1.0721 z" clip-path="url(#1001636255365-clipPath1)" id="path133" inkscape:connector-curvature="0" style="stroke:none"/>
      <path d="m 84.0054,418.337 -53.8337,18.5014 c -0.9024,0.3101 -1.3823,1.2926 -1.0722,2.195 0.3101,0.9024 1.2926,1.3823 2.195,1.0722 l 53.8337,-18.5015 c 0.9024,-0.3101 1.3823,-1.2926 1.0722,-2.195 -0.3102,-0.9023 -1.2927,-1.3822 -2.195,-1.0721 z" clip-path="url(#1001636255954-clipPath1)" id="path135" inkscape:connector-curvature="0" style="fill:#333399;stroke:none"/>
    </g>
    <g id="g137" style="fill:#ff0000;stroke:#ff0000;text-rendering:geometricPrecision">
      <path d="m 347.7722,147.6334 52.6315,-30.3853 c 0.8264,-0.4771 1.1094,-1.5332 0.6323,-2.3596 -0.477,-0.8263 -1.5332,-1.1094 -2.3595,-0.6323 l -52.6316,30.3853 c -0.8263,0.4771 -1.1094,1.5333 -0.6323,2.3596 0.4771,0.8264 1.5332,1.1094 2.3596,0.6323 z" clip-path="url(#1001636255365-clipPath1)" id="path139" inkscape:connector-curvature="0" style="stroke:none"/>
      <path d="m 347.7722,147.6334 52.6315,-30.3853 c 0.8264,-0.4771 1.1094,-1.5332 0.6323,-2.3596 -0.477,-0.8263 -1.5332,-1.1094 -2.3595,-0.6323 l -52.6316,30.3853 c -0.8263,0.4771 -1.1094,1.5333 -0.6323,2.3596 0.4771,0.8264 1.5332,1.1094 2.3596,0.6323 z" clip-path="url(#1001636255227-clipPath1)" id="path141" inkscape:connector-curvature="0" style="fill:#000000;stroke:none"/>
    </g>
    <g id="g143" style="text-rendering:geometricPrecision">
      <path d="m 431.6397,117.2488 46.6465,26.9327 c 0.8263,0.4771 1.8825,0.1942 2.3596,-0.6322 0.4771,-0.8263 0.1941,-1.8825 -0.6322,-2.3596 L 433.3671,114.257 c -0.8263,-0.4771 -1.8825,-0.1941 -2.3596,0.6322 -0.4771,0.8264 -0.1941,1.8825 0.6322,2.3596 z" clip-path="url(#1001636255365-clipPath1)" id="path145" inkscape:connector-curvature="0" style="stroke:none"/>
      <path d="m 431.6397,117.2488 46.6465,26.9327 c 0.8263,0.4771 1.8825,0.1942 2.3596,-0.6322 0.4771,-0.8263 0.1941,-1.8825 -0.6322,-2.3596 L 433.3671,114.257 c -0.8263,-0.4771 -1.8825,-0.1941 -2.3596,0.6322 -0.4771,0.8264 -0.1941,1.8825 0.6322,2.3596 z" clip-path="url(#1001636255995-clipPath1)" id="path147" inkscape:connector-curvature="0" style="fill:#ff0000;stroke:none"/>
    </g>
    <g id="g149" style="fill:#ffffff;stroke:#ffffff;text-rendering:geometricPrecision">
      <path d="m 98.2103,401.6841 c -3.6163,0 -6.5478,2.9316 -6.5478,6.5479 l 0,13.0957 c 0,3.6162 2.9315,6.5478 6.5478,6.5478 l 2.9199,0 c 3.6163,0 6.5479,-2.9316 6.5479,-6.5478 l 0,-13.0957 c 0,-3.6163 -2.9316,-6.5479 -6.5479,-6.5479 z" clip-path="url(#1001636255365-clipPath1)" id="path151" inkscape:connector-curvature="0" style="stroke:none"/>
    </g>
    <g font-size="28px" transform="translate(89.1625,398.2798)" id="g153" style="font-size:28px;font-family:sans-serif;fill:#333399;stroke:#333399;text-rendering:geometricPrecision">
      <text x="0" xml:space="preserve" y="27" clip-path="url(#1001636255103-clipPath1)" id="text155" style="stroke:none">N</text>
    </g>
    <g font-size="28px" id="g157" style="font-size:28px;font-family:sans-serif;fill:#ffffff;stroke:#ffffff;text-rendering:geometricPrecision">
      <path d="m 207.2746,292.6599 c -3.6163,0 -6.5479,2.9315 -6.5479,6.5478 l 0,13.0957 c 0,3.6163 2.9316,6.5479 6.5479,6.5479 l 2.8262,0 c 3.6162,0 6.5478,-2.9316 6.5478,-6.5479 l 0,-13.0957 c 0,-3.6163 -2.9316,-6.5478 -6.5478,-6.5478 z" clip-path="url(#1001636255365-clipPath1)" id="path159" inkscape:connector-curvature="0" style="stroke:none"/>
      <text x="0" y="27" transform="translate(198.2267,289.2556)" clip-path="url(#1001636255492-clipPath1)" xml:space="preserve" id="text161" style="fill:#333333;stroke:none">H</text>
    </g>
    <g font-size="28px" id="g163" style="font-size:28px;font-family:sans-serif;fill:#ffffff;stroke:#ffffff;text-rendering:geometricPrecision">
      <path d="m 413.0971,92.7427 c -3.7997,0 -6.8799,3.0803 -6.8799,6.8799 l 0,13.7598 c 0,3.7996 3.0802,6.8799 6.8799,6.8799 l 5.8496,0 c 3.7996,0 6.8799,-3.0803 6.8799,-6.8799 l 0,-13.7598 c 0,-3.7996 -3.0803,-6.8799 -6.8799,-6.8799 z" clip-path="url(#1001636255365-clipPath1)" id="path165" inkscape:connector-curvature="0" style="stroke:none"/>
      <text x="0" y="27" transform="translate(405.2172,89.7369)" clip-path="url(#1001636255569-clipPath1)" xml:space="preserve" id="text167" style="fill:#ff0000;stroke:none">O</text>
    </g>
  </g>
</svg>