<?xml version="1.0" encoding="UTF-8" standalone="no"?>
<svg xmlns:dc="http://purl.org/dc/elements/1.1/" xmlns:cc="http://creativecommons.org/ns#" xmlns:rdf="http://www.w3.org/1999/02/22-rdf-syntax-ns#" xmlns:svg="http://www.w3.org/2000/svg" xmlns="http://www.w3.org/2000/svg" viewBox="0 0 990 765" height="765" width="990" xml:space="preserve" version="1.1" id="svg2">
<metadata id="metadata8">
 <rdf:RDF>
 <cc:Work rdf:about="">
 <dc:format>image/svg+xml</dc:format>
 <dc:type rdf:resource="http://purl.org/dc/dcmitype/StillImage"/>
 <dc:title/>
 </cc:Work>
 </rdf:RDF>
</metadata>
<defs id="defs6">
 <clipPath id="clipPath240" clipPathUnits="userSpaceOnUse">
  <path id="path242" d="m 187.2,72 576,0 0,511.2 -576,0 0,-511.2 z"/>
 </clipPath>
 <clipPath id="clipPath486" clipPathUnits="userSpaceOnUse">
  <path id="path488" d="m 187.2,72 576,0 0,511.2 -576,0 0,-511.2 z"/>
 </clipPath>
</defs>
<g transform="matrix(1.25,0,0,-1.25,0,765)" id="g10">
 <g id="g14">
  <path id="path16" style="fill:#00597c" d="m 192.9,90.93 0.25,0 0,13.45 -0.25,0 0,-13.45 z"/>
  <path id="path18" style="fill:#00aaff" d="m 193.16,90.93 43.78,0 0,13.45 -43.78,0 0,-13.45 z"/>
  <path id="path20" style="fill:#00597c" d="m 192.9,115.14 10.07,0 0,13.45 -10.07,0 0,-13.45 z"/>
  <path id="path22" style="fill:#00aaff" d="m 202.97,115.14 43.02,0 0,13.45 -43.02,0 0,-13.45 z"/>
  <path id="path24" style="fill:#00597c" d="m 192.9,139.34 1.27,0 0,13.45 -1.27,0 0,-13.45 z"/>
  <path id="path26" style="fill:#00aaff" d="m 194.17,139.34 54.66,0 0,13.45 -54.66,0 0,-13.45 z"/>
  <path id="path28" style="fill:#00597c" d="m 192.9,163.55 5.72,0 0,13.45 -5.72,0 0,-13.45 z"/>
  <path id="path30" style="fill:#00aaff" d="m 198.62,163.55 65.33,0 0,13.45 -65.33,0 0,-13.45 z"/>
  <path id="path32" style="fill:#00597c" d="m 192.9,187.75 4.4,0 0,13.45 -4.4,0 0,-13.45 z"/>
  <path id="path34" style="fill:#00aaff" d="m 197.31,187.75 67.61,0 0,13.45 -67.61,0 0,-13.45 z"/>
  <path id="path36" style="fill:#00597c" d="m 192.9,211.96 9.97,0 0,13.45 -9.97,0 0,-13.45 z"/>
  <path id="path38" style="fill:#00aaff" d="m 202.87,211.96 66.55,0 0,13.45 -66.55,0 0,-13.45 z"/>
  <path id="path40" style="fill:#00597c" d="m 192.9,236.16 6.12,0 0,13.45 -6.12,0 0,-13.45 z"/>
  <path id="path42" style="fill:#00aaff" d="m 199.03,236.16 79.34,0 0,13.45 -79.34,0 0,-13.45 z"/>
  <path id="path44" style="fill:#00597c" d="m 192.9,260.37 6.53,0 0,13.45 -6.53,0 0,-13.45 z"/>
  <path id="path46" style="fill:#00aaff" d="m 199.43,260.37 94.94,0 0,13.45 -94.94,0 0,-13.45 z"/>
  <path id="path48" style="fill:#00597c" d="m 192.9,284.57 20.09,0 0,13.45 -20.09,0 0,-13.45 z"/>
  <path id="path50" style="fill:#00aaff" d="m 212.99,284.57 90.99,0 0,13.45 -90.99,0 0,-13.45 z"/>
  <path id="path52" style="fill:#00597c" d="m 192.9,308.77 14.22,0 0,13.45 -14.22,0 0,-13.45 z"/>
  <path id="path54" style="fill:#00aaff" d="m 207.12,308.77 105.52,0 0,13.45 -105.52,0 0,-13.45 z"/>
  <path id="path56" style="fill:#00597c" d="m 192.9,332.98 22.01,0 0,13.45 -22.01,0 0,-13.45 z"/>
  <path id="path58" style="fill:#00aaff" d="m 214.92,332.98 100.2,0 0,13.45 -100.2,0 0,-13.45 z"/>
  <path id="path60" style="fill:#00597c" d="m 192.9,357.18 9.87,0 0,13.45 -9.87,0 0,-13.45 z"/>
  <path id="path62" style="fill:#00aaff" d="m 202.77,357.18 138.26,0 0,13.45 -138.26,0 0,-13.45 z"/>
  <path id="path64" style="fill:#00597c" d="m 192.9,381.39 66.3,0 0,13.45 -66.3,0 0,-13.45 z"/>
  <path id="path66" style="fill:#00aaff" d="m 259.2,381.39 92.31,0 0,13.45 -92.31,0 0,-13.45 z"/>
  <path id="path68" style="fill:#00597c" d="m 192.9,405.59 34.67,0 0,13.45 -34.67,0 0,-13.45 z"/>
  <path id="path70" style="fill:#00aaff" d="m 227.57,405.59 149.09,0 0,13.45 -149.09,0 0,-13.45 z"/>
  <path id="path72" style="fill:#00597c" d="m 192.9,429.8 73.03,0 0,13.45 -73.03,0 0,-13.45 z"/>
  <path id="path74" style="fill:#00aaff" d="m 265.93,429.8 136.08,0 0,13.45 -136.08,0 0,-13.45 z"/>
  <path id="path76" style="fill:#00597c" d="m 192.9,454 61.79,0 0,13.45 -61.79,0 0,-13.45 z"/>
  <path id="path78" style="fill:#00aaff" d="m 254.69,454 154.66,0 0,13.45 -154.66,0 0,-13.45 z"/>
  <path id="path80" style="fill:#00597c" d="m 192.9,478.21 9.46,0 0,13.45 -9.46,0 0,-13.45 z"/>
  <path id="path82" style="fill:#00aaff" d="m 202.37,478.21 251.17,0 0,13.45 -251.17,0 0,-13.45 z"/>
  <path id="path84" style="fill:#00597c" d="m 192.9,502.41 138.92,0 0,13.45 -138.92,0 0,-13.45 z"/>
  <path id="path86" style="fill:#00aaff" d="m 331.82,502.41 290.08,0 0,13.45 -290.08,0 0,-13.45 z"/>
  <path id="path88" style="fill:#00597c" d="m 192.9,526.62 171.31,0 0,13.45 -171.31,0 0,-13.45 z"/>
  <path id="path90" style="fill:#00aaff" d="m 364.21,526.62 266.6,0 0,13.45 -266.6,0 0,-13.45 z"/>
  <path id="path92" style="fill:#00597c" d="m 192.9,550.82 365.39,0 0,13.45 -365.39,0 0,-13.45 z"/>
  <path id="path94" style="fill:#00aaff" d="m 558.29,550.82 204.91,0 0,13.45 -204.91,0 0,-13.45 z"/>
 </g>
 <g id="g96" style="font-size:19px;font-family:Helvetica;-inkscape-font-specification:Helvetica;fill:#000000;text-anchor:end">
  <switch id="text98" transform="matrix(1,0,0,-1,175,90.84)">
   <text systemLanguage="it">Funghetti</text>
   <text>Mushrooms</text>
  </switch>
  <switch id="text102" transform="matrix(1,0,0,-1,175,115.04)">
   <text systemLanguage="it">Buprenorfina</text>
   <text>Buprenorphine</text>
  </switch>
  <switch id="text106" transform="matrix(1,0,0,-1,175,139.24)">
   <text systemLanguage="it">LSD</text>
   <text>LSD</text>
  </switch>
  <switch id="text110" transform="matrix(1,0,0,-1,175,163.45)">
   <text systemLanguage="it">Qat/khat</text>
   <text>Qat/khat</text>
  </switch>
  <switch id="text114" transform="matrix(1,0,0,-1,175,187.65)">
   <text systemLanguage="it">Ecstasy</text>
   <text>Ecstasy</text>
  </switch>
  <switch id="text118" transform="matrix(1,0,0,-1,175,211.86)">
   <text systemLanguage="it">Steroidi anabolici</text>
   <text>Anabolic steroids</text>
  </switch>
  <switch id="text122" transform="matrix(1,0,0,-1,175,236.06)">
   <text systemLanguage="it">Butano</text>
   <text>Butane</text>
  </switch>
  <switch id="text126" transform="matrix(1,0,0,-1,175,260.27)">
   <text systemLanguage="it">Mefedrone</text>
   <text>Mephedrone</text>
  </switch>
  <switch id="text130" transform="matrix(1,0,0,-1,175,284.47)">
   <text systemLanguage="it">Metadone</text>
   <text>Methadone</text>
  </switch>
  <switch id="text134" transform="matrix(1,0,0,-1,175,308.68)">
   <text systemLanguage="it">Ketamina</text>
   <text>Ketamine</text>
  </switch>
  <switch id="text138" transform="matrix(1,0,0,-1,175,332.88)">
   <text systemLanguage="it">Benzodiazepine</text>
   <text>Benzodiazepines</text>
  </switch>
  <switch id="text142" transform="matrix(1,0,0,-1,175,357.09)">
   <text systemLanguage="it">GHB</text>
   <text>GHB</text>
  </switch>
  <switch id="text146" transform="matrix(1,0,0,-1,175,381.29)">
   <text systemLanguage="it">Canapa</text>
   <text>Cannabis</text>
  </switch>
  <switch id="text150" transform="matrix(1,0,0,-1,175,405.49)">
   <text systemLanguage="it">Anfetamina</text>
   <text>Amphetamine</text>
  </switch>
  <switch id="text154" transform="matrix(1,0,0,-1,175,429.7)">
   <text systemLanguage="it">Tabacco</text>
   <text>Tobacco</text>
  </switch>
  <switch id="text158" transform="matrix(1,0,0,-1,175,453.9)">
   <text systemLanguage="it">Cocaina</text>
   <text>Cocaine</text>
  </switch>
  <switch id="text162" transform="matrix(1,0,0,-1,175,478.11)">
   <text systemLanguage="it">Metanfetamina</text>
   <text>Methamphetamine</text>
  </switch>
  <switch id="text166" transform="matrix(1,0,0,-1,175,502.31)">
   <text systemLanguage="it">Crack</text>
   <text>Crack cocaine</text>
  </switch>
  <switch id="text170" transform="matrix(1,0,0,-1,175,526.52)">
   <text systemLanguage="it">Eroina</text>
   <text>Heroin</text>
  </switch>
  <switch id="text174" transform="matrix(1,0,0,-1,175,550.72)">
   <text systemLanguage="it">Alcol etilico</text>
   <text>Alcohol</text>
  </switch>
 </g>
 <g id="g178">
  <switch id="text180" style="font-size:14px;font-family:Helvetica;-inkscape-font-specification:Helvetica;fill:#000000;text-anchor:middle" transform="matrix(1,0,0,-1,470.635,17.28)">
   <text systemLanguage="it">Danni causati dalle droghe (valore massimo 100)</text>
   <text>Harm caused by drugs (with maximum possible harm rating of 100)</text>
  </switch>
 </g>
 <g id="g184" style="stroke:#000000;stroke-width:0.75;stroke-linecap:round;stroke-linejoin:round">
  <path id="path186" d="m 192.9,72 555.47,0"/>
  <path id="path188" d="m 192.9,72 0,-7.2"/>
  <path id="path190" d="m 272.26,72 0,-7.2"/>
  <path id="path192" d="m 351.61,72 0,-7.2"/>
  <path id="path194" d="m 430.96,72 0,-7.2"/>
  <path id="path196" d="m 510.31,72 0,-7.2"/>
  <path id="path198" d="m 589.67,72 0,-7.2"/>
  <path id="path200" d="m 669.02,72 0,-7.2"/>
  <path id="path202" d="m 748.37,72 0,-7.2"/>
 </g>
 <g style="font-size:14px;font-family:Helvetica;-inkscape-font-specification:Helvetica;fill:#000000">
  <text id="text204" transform="matrix(1,0,0,-1,189.01,46.08)">0</text>
  <text id="text208" transform="matrix(1,0,0,-1,264.47,46.08)">10</text>
  <text id="text212" transform="matrix(1,0,0,-1,343.82,46.08)">20</text>
  <text id="text216" transform="matrix(1,0,0,-1,423.18,46.08)">30</text>
  <text id="text220" transform="matrix(1,0,0,-1,502.53,46.08)">40</text>
  <text id="text224" transform="matrix(1,0,0,-1,581.88,46.08)">50</text>
  <text id="text228" transform="matrix(1,0,0,-1,661.24,46.08)">60</text>
  <text id="text232" transform="matrix(1,0,0,-1,740.59,46.08)">70</text>
 </g>
 <g style="stroke:#000000;stroke-width:0.75;stroke-linecap:round;stroke-linejoin:round;stroke-dasharray:0, 3" clip-path="url(#clipPath240)" id="g238">
  <path id="path244" d="m 192.9,72 0,511.2"/>
  <path id="path246" d="m 272.26,72 0,511.2"/>
  <path id="path248" d="m 351.61,72 0,511.2"/>
  <path id="path250" d="m 430.96,72 0,511.2"/>
  <path id="path252" d="m 510.31,72 0,511.2"/>
  <path id="path254" d="m 589.67,72 0,511.2"/>
  <path id="path256" d="m 669.02,72 0,511.2"/>
  <path id="path258" d="m 748.37,72 0,511.2"/>
 </g>
 <g clip-path="url(#clipPath486)" id="g484">
  <switch id="path490" style="fill:#ffffff;stroke:#000000;stroke-width:0.75;stroke-linecap:round;stroke-linejoin:round">
   <rect systemLanguage="it" x="565.86" y="117.66" width="181.63" height="43.2"/>
   <rect x="565.86" y="117.66" width="142.63" height="43.2"/>
  </switch>
  <path id="path492" style="fill:#00597c;stroke:#000000;stroke-width:0.75;stroke-linecap:round;stroke-linejoin:round" d="m 576.66,150.06 8.64,0 0,-7.2 -8.64,0 0,7.2 z"/>
  <path id="path494" style="fill:#00aaff;stroke:#000000;stroke-width:0.75;stroke-linecap:round;stroke-linejoin:round" d="m 576.66,135.66 8.64,0 0,-7.2 -8.64,0 0,7.2 z"/>
  <switch id="text496" style="font-size:12px;font-family:Helvetica;-inkscape-font-specification:Helvetica;fill:#000000" transform="matrix(1,0,0,-1,596.1,142.15)">
   <text systemLanguage="it">Danni per gli altri (54)</text>
   <text>Harm to others (54)</text>
  </switch>
  <switch id="text500" style="font-size:12px;font-family:Helvetica;-inkscape-font-specification:Helvetica;fill:#000000" transform="matrix(1,0,0,-1,596.1,127.75)">
   <text systemLanguage="it">Danni per l'utilizzatore (46)</text>
   <text>Harm to users (46)</text>
  </switch>
 </g>
</g>
</svg>