<?xml version="1.0" encoding="UTF-8" standalone="no"?>
<svg xmlns:dc="http://purl.org/dc/elements/1.1/" xmlns:cc="http://creativecommons.org/ns#" xmlns:rdf="http://www.w3.org/1999/02/22-rdf-syntax-ns#" xmlns:svg="http://www.w3.org/2000/svg" xmlns="http://www.w3.org/2000/svg" xmlns:sodipodi="http://sodipodi.sourceforge.net/DTD/sodipodi-0.dtd" xmlns:inkscape="http://www.inkscape.org/namespaces/inkscape" width="740.02924" stroke-miterlimit="10" font-weight="normal" height="422.22394" font-style="normal" font-size="12px" id="svg2" version="1.1" inkscape:version="0.91 r13725" sodipodi:docname="Mescaline.svg" style="font-style:normal;font-weight:normal;font-size:12px;font-family:Dialog;color-interpolation:auto;fill:#000000;fill-opacity:1;stroke:#000000;stroke-width:1;stroke-linecap:square;stroke-linejoin:miter;stroke-miterlimit:10;stroke-dasharray:none;stroke-dashoffset:0;stroke-opacity:1;color-rendering:auto;image-rendering:auto;shape-rendering:auto;text-rendering:auto">
  <metadata id="metadata153">
    <rdf:RDF>
      <cc:Work rdf:about="">
        <dc:format>image/svg+xml</dc:format>
        <dc:type rdf:resource="http://purl.org/dc/dcmitype/StillImage"/>
        <dc:title/>
      </cc:Work>
    </rdf:RDF>
  </metadata>
  <sodipodi:namedview pagecolor="#ffffff" bordercolor="#666666" borderopacity="1" objecttolerance="10" gridtolerance="10" guidetolerance="10" inkscape:pageopacity="0" inkscape:pageshadow="2" inkscape:window-width="1060" inkscape:window-height="480" id="namedview151" showgrid="false" fit-margin-top="10" fit-margin-left="10" fit-margin-right="10" fit-margin-bottom="10" inkscape:zoom="0.36375" inkscape:cx="369.84495" inkscape:cy="210.94225" inkscape:window-x="0" inkscape:window-y="0" inkscape:window-maximized="0" inkscape:current-layer="svg2"/>
  <!--Generated by Marvin with Batik SVG Generator-->
  <defs id="genericDefs"/>
  <g id="g5" transform="translate(-30.155053,-88.7183)">
    <defs id="346129922-defs1">
      <clipPath clipPathUnits="userSpaceOnUse" id="346129366-clipPath1">
        <path d="M 0,0 800,0 800,600 0,600 0,0 Z" id="path9" inkscape:connector-curvature="0"/>
      </clipPath>
      <clipPath clipPathUnits="userSpaceOnUse" id="346129390-clipPath1">
        <path d="m 608.0125,128.5534 c -24.0544,0 -43.5544,19.5 -43.5544,43.5544 0,24.0545 19.5,43.5545 43.5544,43.5545 24.0545,0 43.5545,-19.5 43.5545,-43.5545 0,-24.0544 -19.5,-43.5544 -43.5545,-43.5544 z" id="path12" inkscape:connector-curvature="0"/>
      </clipPath>
      <clipPath clipPathUnits="userSpaceOnUse" id="346129675-clipPath1">
        <path d="m 225.5107,240.0913 c -23.4239,0 -42.4126,18.9887 -42.4126,42.4125 0,23.4238 18.9887,42.4126 42.4126,42.4126 23.4237,0 42.4125,-18.9888 42.4125,-42.4126 0,-23.4238 -18.9888,-42.4125 -42.4125,-42.4125 z" id="path15" inkscape:connector-curvature="0"/>
      </clipPath>
      <clipPath clipPathUnits="userSpaceOnUse" id="346129469-clipPath1">
        <path d="m 225.5107,129.7988 c -23.3489,0 -42.2768,18.928 -42.2768,42.2768 0,23.3488 18.9279,42.2767 42.2768,42.2767 23.3488,0 42.2767,-18.9279 42.2767,-42.2767 0,-23.3488 -18.9279,-42.2768 -42.2767,-42.2768 z" id="path18" inkscape:connector-curvature="0"/>
      </clipPath>
      <clipPath clipPathUnits="userSpaceOnUse" id="346129289-clipPath1">
        <path d="m 321.1419,296.356 c -22.8399,0 -41.3553,18.5154 -41.3553,41.3553 0,22.8399 18.5154,41.3553 41.3553,41.3553 22.84,0 41.3554,-18.5154 41.3554,-41.3553 0,-22.8399 -18.5154,-41.3553 -41.3554,-41.3553 z" id="path21" inkscape:connector-curvature="0"/>
      </clipPath>
      <clipPath clipPathUnits="userSpaceOnUse" id="346129720-clipPath1">
        <path d="m 298.743,423.559 c -20.7092,0 -37.4972,16.7881 -37.4972,37.4972 0,20.7091 16.788,37.4971 37.4972,37.4971 20.709,0 37.4971,-16.788 37.4971,-37.4971 0,-20.7091 -16.7881,-37.4972 -37.4971,-37.4972 z" id="path24" inkscape:connector-curvature="0"/>
      </clipPath>
      <clipPath clipPathUnits="userSpaceOnUse" id="346129343-clipPath1">
        <path d="m 107.7282,287.2861 c -20.784,0 -37.6328,16.8488 -37.6328,37.6328 0,20.7841 16.8488,37.6329 37.6328,37.6329 20.784,0 37.6328,-16.8488 37.6328,-37.6329 0,-20.784 -16.8488,-37.6328 -37.6328,-37.6328 z" id="path27" inkscape:connector-curvature="0"/>
      </clipPath>
      <clipPath clipPathUnits="userSpaceOnUse" id="346129873-clipPath1">
        <path d="m 107.4947,92.2949 c -20.7091,0 -37.4972,16.788 -37.4972,37.4972 0,20.7091 16.7881,37.4972 37.4972,37.4972 20.7092,0 37.4972,-16.7881 37.4972,-37.4972 0,-20.7092 -16.788,-37.4972 -37.4972,-37.4972 z" id="path30" inkscape:connector-curvature="0"/>
      </clipPath>
      <clipPath clipPathUnits="userSpaceOnUse" id="34612946-clipPath1">
        <path d="m -688.8718,-93.4054 800,0 0,600 -800,0 0,-600 z" id="path33" inkscape:connector-curvature="0"/>
      </clipPath>
      <clipPath clipPathUnits="userSpaceOnUse" id="346129483-clipPath1">
        <path d="m -741.7781,-113.5706 800,0 0,600 -800,0 0,-600 z" id="path36" inkscape:connector-curvature="0"/>
      </clipPath>
      <clipPath clipPathUnits="userSpaceOnUse" id="346129686-clipPath1">
        <path d="m -305.9598,-424.6262 800,0 0,600 -800,0 0,-600 z" id="path39" inkscape:connector-curvature="0"/>
      </clipPath>
      <clipPath clipPathUnits="userSpaceOnUse" id="346129853-clipPath1">
        <path d="m -114.7119,-93.3629 800,0 0,600 -800,0 0,-600 z" id="path42" inkscape:connector-curvature="0"/>
      </clipPath>
      <clipPath clipPathUnits="userSpaceOnUse" id="346129266-clipPath1">
        <path d="m -114.71,-314.2133 800,0 0,600 -800,0 0,-600 z" id="path45" inkscape:connector-curvature="0"/>
      </clipPath>
    </defs>
    <g id="g47" style="text-rendering:geometricPrecision">
      <path d="m 223.1207,282.5038 c 0,1.3202 1.0698,2.3899 2.39,2.3899 1.3201,0 2.3899,-1.0697 2.3899,-2.3899 l 0,-110.4282 c 0,-1.3202 -1.0698,-2.3899 -2.3899,-2.3899 -1.3202,0 -2.39,1.0697 -2.39,2.3899 z m 19.9161,-13.889 c 0,1.3202 1.0698,2.3899 2.3899,2.3899 1.3202,0 2.3899,-1.0697 2.3899,-2.3899 l 0,-82.6493 c 0,-1.3202 -1.0697,-2.3899 -2.3899,-2.3899 -1.3201,0 -2.3899,1.0697 -2.3899,2.3899 z" clip-path="url(#346129366-clipPath1)" id="path49" inkscape:connector-curvature="0" style="stroke:none"/>
    </g>
    <g id="g51" style="text-rendering:geometricPrecision">
      <path d="m 322.0175,311.4504 c -1.1434,0.66 -1.535,2.1213 -0.875,3.2646 0.6599,1.1434 2.1212,1.5351 3.2645,0.8751 l 71.5642,-41.3094 c 1.1434,-0.66 1.5351,-2.1213 0.8751,-3.2646 -0.66,-1.1434 -2.1213,-1.5351 -3.2646,-0.8751 z m -2.0703,24.191 c -1.1434,0.6601 -1.5351,2.1213 -0.8751,3.2647 0.66,1.1433 2.1213,1.535 3.2646,0.875 l 95.6198,-55.1951 c 1.1433,-0.66 1.535,-2.1212 0.875,-3.2646 -0.66,-1.1434 -2.1213,-1.535 -3.2646,-0.875 z" clip-path="url(#346129366-clipPath1)" id="path53" inkscape:connector-curvature="0" style="stroke:none"/>
    </g>
    <g id="g55" style="text-rendering:geometricPrecision">
      <path d="m 419.1516,282.5163 0.007,-110.4182 c 1e-4,-1.3202 -1.0696,-2.39 -2.3898,-2.3901 -1.3202,-1e-4 -2.39,1.0696 -2.3901,2.3898 l -0.007,110.4182 c -10e-5,1.3202 1.0695,2.39 2.3897,2.3901 1.3202,1e-4 2.39,-1.0696 2.3901,-2.3898 z" clip-path="url(#346129366-clipPath1)" id="path57" inkscape:connector-curvature="0" style="stroke:none"/>
    </g>
    <g id="g59" style="text-rendering:geometricPrecision">
      <path d="m 393.5869,184.4701 c 1.1432,0.6602 2.6045,0.2687 3.2647,-0.8746 0.6601,-1.1433 0.2686,-2.6046 -0.8746,-3.2647 L 324.4,139.0017 c -1.1433,-0.6601 -2.6046,-0.2686 -3.2647,0.8747 -0.6601,1.1432 -0.2687,2.6045 0.8746,3.2647 z m 21.9864,-10.3025 c 1.1433,0.6601 2.6046,0.2686 3.2647,-0.8746 0.6602,-1.1433 0.2687,-2.6046 -0.8746,-3.2647 L 322.3321,114.81 c -1.1433,-0.6601 -2.6046,-0.2686 -3.2647,0.8747 -0.6601,1.1432 -0.2687,2.6045 0.8746,3.2647 z" clip-path="url(#346129366-clipPath1)" id="path61" inkscape:connector-curvature="0" style="stroke:none"/>
    </g>
    <g id="g63" style="text-rendering:geometricPrecision">
      <path d="m 224.3158,284.5736 95.6313,55.2075 c 1.1433,0.66 2.6046,0.2684 3.2646,-0.8749 0.6601,-1.1434 0.2685,-2.6047 -0.8749,-3.2647 l -95.6313,-55.2074 c -1.1433,-0.6601 -2.6046,-0.2685 -3.2646,0.8749 -0.6601,1.1433 -0.2685,2.6046 0.8749,3.2646 z" clip-path="url(#346129366-clipPath1)" id="path65" inkscape:connector-curvature="0" style="stroke:none"/>
    </g>
    <g id="g67" style="text-rendering:geometricPrecision">
      <path d="m 319.9423,114.8098 -95.6264,55.1959 c -1.1434,0.66 -1.5351,2.1212 -0.8751,3.2646 0.66,1.1434 2.1212,1.5351 3.2646,0.8751 l 95.6264,-55.1959 c 1.1434,-0.6599 1.5351,-2.1212 0.8751,-3.2645 -0.66,-1.1434 -2.1212,-1.5351 -3.2646,-0.8752 z" clip-path="url(#346129366-clipPath1)" id="path69" inkscape:connector-curvature="0" style="stroke:none"/>
    </g>
    <g id="g71" style="text-rendering:geometricPrecision">
      <path d="m 417.9632,174.1677 95.6249,-55.2025 c 1.1434,-0.66 1.535,-2.1213 0.875,-3.2646 -0.6601,-1.1433 -2.1213,-1.535 -3.2646,-0.8749 l -95.625,55.2025 c -1.1433,0.66 -1.535,2.1212 -0.8749,3.2646 0.66,1.1433 2.1213,1.5349 3.2646,0.8749 z" clip-path="url(#346129366-clipPath1)" id="path73" inkscape:connector-curvature="0" style="stroke:none"/>
    </g>
    <g id="g75" style="text-rendering:geometricPrecision">
      <path d="m 511.1982,118.9651 95.6192,55.2124 c 1.1434,0.6601 2.6047,0.2687 3.2648,-0.8746 0.6601,-1.1433 0.2687,-2.6046 -0.8746,-3.2647 l -95.6192,-55.2124 c -1.1433,-0.6602 -2.6046,-0.2687 -3.2648,0.8746 -0.6601,1.1433 -0.2686,2.6046 0.8746,3.2647 z" clip-path="url(#346129366-clipPath1)" id="path77" inkscape:connector-curvature="0" style="stroke:none"/>
    </g>
    <g id="g79" style="fill:#333399;stroke:#333399;text-rendering:geometricPrecision">
      <path d="m 609.2074,174.1776 75.4407,-43.5505 c 1.1433,-0.66 1.535,-2.1213 0.875,-3.2646 -0.6601,-1.1434 -2.1213,-1.535 -3.2647,-0.875 l -75.4407,43.5506 c -1.1434,0.66 -1.535,2.1213 -0.875,3.2646 0.6601,1.1433 2.1213,1.535 3.2647,0.8749 z" clip-path="url(#346129366-clipPath1)" id="path81" inkscape:connector-curvature="0" style="stroke:none"/>
      <path d="m 609.2074,174.1776 75.4407,-43.5505 c 1.1433,-0.66 1.535,-2.1213 0.875,-3.2646 -0.6601,-1.1434 -2.1213,-1.535 -3.2647,-0.875 l -75.4407,43.5506 c -1.1434,0.66 -1.535,2.1213 -0.875,3.2646 0.6601,1.1433 2.1213,1.535 3.2647,0.8749 z" clip-path="url(#346129390-clipPath1)" id="path83" inkscape:connector-curvature="0" style="fill:#000000;stroke:none"/>
    </g>
    <g id="g85" style="fill:#ff0000;stroke:#ff0000;text-rendering:geometricPrecision">
      <path d="m 224.3156,280.4341 -73.4597,42.4141 c -1.1433,0.6601 -1.5349,2.1214 -0.8747,3.2647 0.6601,1.1433 2.1214,1.5348 3.2646,0.8747 l 73.4598,-42.4141 c 1.1433,-0.6601 1.5348,-2.1214 0.8747,-3.2647 -0.6601,-1.1432 -2.1214,-1.5348 -3.2647,-0.8747 z" clip-path="url(#346129366-clipPath1)" id="path87" inkscape:connector-curvature="0" style="stroke:none"/>
      <path d="m 224.3156,280.4341 -73.4597,42.4141 c -1.1433,0.6601 -1.5349,2.1214 -0.8747,3.2647 0.6601,1.1433 2.1214,1.5348 3.2646,0.8747 l 73.4598,-42.4141 c 1.1433,-0.6601 1.5348,-2.1214 0.8747,-3.2647 -0.6601,-1.1432 -2.1214,-1.5348 -3.2647,-0.8747 z" clip-path="url(#346129675-clipPath1)" id="path89" inkscape:connector-curvature="0" style="fill:#000000;stroke:none"/>
    </g>
    <g id="g91" style="fill:#ff0000;stroke:#ff0000;text-rendering:geometricPrecision">
      <path d="m 226.7057,170.0059 -73.2232,-42.2808 c -1.1432,-0.6601 -2.6045,-0.2686 -3.2647,0.8746 -0.6601,1.1433 -0.2687,2.6046 0.8746,3.2647 l 73.2232,42.2808 c 1.1432,0.6602 2.6046,0.2687 3.2647,-0.8746 0.6601,-1.1432 0.2687,-2.6045 -0.8746,-3.2647 z" clip-path="url(#346129366-clipPath1)" id="path93" inkscape:connector-curvature="0" style="stroke:none"/>
      <path d="m 226.7057,170.0059 -73.2232,-42.2808 c -1.1432,-0.6601 -2.6045,-0.2686 -3.2647,0.8746 -0.6601,1.1433 -0.2687,2.6046 0.8746,3.2647 l 73.2232,42.2808 c 1.1432,0.6602 2.6046,0.2687 3.2647,-0.8746 0.6601,-1.1432 0.2687,-2.6045 -0.8746,-3.2647 z" clip-path="url(#346129469-clipPath1)" id="path95" inkscape:connector-curvature="0" style="fill:#000000;stroke:none"/>
    </g>
    <g id="g97" style="fill:#ff0000;stroke:#ff0000;text-rendering:geometricPrecision">
      <path d="m 318.752,337.7112 -0.002,82.7107 c 0,1.3202 1.0697,2.3899 2.3899,2.3899 1.3201,10e-5 2.3899,-1.0696 2.3899,-2.3898 l 0.002,-82.7107 c 0,-1.3201 -1.0697,-2.3899 -2.3899,-2.3899 -1.3202,0 -2.3899,1.0697 -2.39,2.3898 z" clip-path="url(#346129366-clipPath1)" id="path99" inkscape:connector-curvature="0" style="stroke:none"/>
      <path d="m 318.752,337.7112 -0.002,82.7107 c 0,1.3202 1.0697,2.3899 2.3899,2.3899 1.3201,10e-5 2.3899,-1.0696 2.3899,-2.3898 l 0.002,-82.7107 c 0,-1.3201 -1.0697,-2.3899 -2.3899,-2.3899 -1.3202,0 -2.3899,1.0697 -2.39,2.3898 z" clip-path="url(#346129289-clipPath1)" id="path101" inkscape:connector-curvature="0" style="fill:#000000;stroke:none"/>
    </g>
    <g id="g103" style="text-rendering:geometricPrecision">
      <path d="m 297.548,458.9864 -64.9477,37.4957 c -1.1433,0.6601 -1.5349,2.1213 -0.8749,3.2647 0.6601,1.1433 2.1214,1.5348 3.2647,0.8748 l 64.9477,-37.4957 c 1.1434,-0.66 1.5349,-2.1213 0.8749,-3.2647 -0.6601,-1.1433 -2.1214,-1.5348 -3.2647,-0.8748 z" clip-path="url(#346129366-clipPath1)" id="path105" inkscape:connector-curvature="0" style="stroke:none"/>
      <path d="m 297.548,458.9864 -64.9477,37.4957 c -1.1433,0.6601 -1.5349,2.1213 -0.8749,3.2647 0.6601,1.1433 2.1214,1.5348 3.2647,0.8748 l 64.9477,-37.4957 c 1.1434,-0.66 1.5349,-2.1213 0.8749,-3.2647 -0.6601,-1.1433 -2.1214,-1.5348 -3.2647,-0.8748 z" clip-path="url(#346129720-clipPath1)" id="path107" inkscape:connector-curvature="0" style="fill:#ff0000;stroke:none"/>
    </g>
    <g id="g109" style="text-rendering:geometricPrecision">
      <path d="M 108.9231,322.8492 43.7404,285.2177 c -1.1434,-0.66 -2.6046,-0.2685 -3.2647,0.8749 -0.66,1.1433 -0.2685,2.6046 0.8748,3.2646 l 65.1828,37.6315 c 1.1433,0.66 2.6046,0.2685 3.2646,-0.8749 0.6601,-1.1433 0.2685,-2.6046 -0.8748,-3.2646 z" clip-path="url(#346129366-clipPath1)" id="path111" inkscape:connector-curvature="0" style="stroke:none"/>
      <path d="M 108.9231,322.8492 43.7404,285.2177 c -1.1434,-0.66 -2.6046,-0.2685 -3.2647,0.8749 -0.66,1.1433 -0.2685,2.6046 0.8748,3.2646 l 65.1828,37.6315 c 1.1433,0.66 2.6046,0.2685 3.2646,-0.8749 0.6601,-1.1433 0.2685,-2.6046 -0.8748,-3.2646 z" clip-path="url(#346129343-clipPath1)" id="path113" inkscape:connector-curvature="0" style="fill:#ff0000;stroke:none"/>
    </g>
    <g id="g115" style="text-rendering:geometricPrecision">
      <path d="m 106.2999,127.7223 -64.9491,37.4936 c -1.1434,0.66 -1.535,2.1213 -0.875,3.2646 0.6601,1.1434 2.1213,1.535 3.2647,0.875 l 64.9491,-37.4936 c 1.1433,-0.6601 1.5349,-2.1213 0.8749,-3.2647 -0.66,-1.1433 -2.1213,-1.5349 -3.2646,-0.8749 z" clip-path="url(#346129366-clipPath1)" id="path117" inkscape:connector-curvature="0" style="stroke:none"/>
      <path d="m 106.2999,127.7223 -64.9491,37.4936 c -1.1434,0.66 -1.535,2.1213 -0.875,3.2646 0.6601,1.1434 2.1213,1.535 3.2647,0.875 l 64.9491,-37.4936 c 1.1433,-0.6601 1.5349,-2.1213 0.8749,-3.2647 -0.66,-1.1433 -2.1213,-1.5349 -3.2646,-0.8749 z" clip-path="url(#346129873-clipPath1)" id="path119" inkscape:connector-curvature="0" style="fill:#ff0000;stroke:none"/>
    </g>
    <g id="g121" style="fill:#ffffff;stroke:#ffffff;text-rendering:geometricPrecision">
      <path d="m 701.6804,99.2882 c -4.8648,0 -8.8086,3.9437 -8.8086,8.8086 l 0,17.6172 c 0,4.8648 3.9438,8.8086 8.8086,8.8086 l 32.7891,0 c 4.8649,0 8.8086,-3.9438 8.8086,-8.8086 l 0,15.3849 c 0,4.9862 3.7846,9.0283 8.4531,9.0283 4.6686,0 8.4531,-4.0421 8.4531,-9.0283 l 0,-18.0566 c 0,-4.9863 -3.7845,-9.0284 -8.4531,-9.0284 -4.6685,0 -8.4531,4.0421 -8.4531,9.0284 l 0,-14.9455 c 0,-4.8649 -3.9437,-8.8086 -8.8086,-8.8086 z" clip-path="url(#346129366-clipPath1)" id="path123" inkscape:connector-curvature="0" style="stroke:none"/>
    </g>
    <g font-size="39px" transform="translate(688.8719,93.4054)" id="g125" style="font-size:39px;font-family:sans-serif;fill:#333399;stroke:#333399;text-rendering:geometricPrecision">
      <text x="0" xml:space="preserve" y="38" clip-path="url(#34612946-clipPath1)" id="text127" style="stroke:none">NH</text>
    </g>
    <g font-size="31px" transform="translate(741.7781,113.5706)" id="g129" style="font-size:31px;font-family:sans-serif;fill:#333399;stroke:#333399;text-rendering:geometricPrecision">
      <text x="0" xml:space="preserve" y="30" clip-path="url(#346129483-clipPath1)" id="text131" style="stroke:none">2</text>
    </g>
    <g font-size="31px" id="g133" style="font-size:31px;font-family:sans-serif;fill:#ffffff;stroke:#ffffff;text-rendering:geometricPrecision">
      <path d="m 317.2079,429.9816 c -5.1076,0 -9.2481,4.1405 -9.2481,9.2481 l 0,18.4961 c 0,5.1075 4.1405,9.248 9.2481,9.248 l 7.8632,0 c 5.1076,0 9.2481,-4.1405 9.2481,-9.248 l 0,-18.4961 c 0,-5.1076 -4.1405,-9.2481 -9.2481,-9.2481 z" clip-path="url(#346129366-clipPath1)" id="path135" inkscape:connector-curvature="0" style="stroke:none"/>
      <text x="0" font-size="39px" y="38" transform="translate(305.9598,424.6262)" clip-path="url(#346129686-clipPath1)" xml:space="preserve" id="text137" style="font-size:39px;fill:#ff0000;stroke:none">O</text>
    </g>
    <g font-size="39px" id="g139" style="font-size:39px;font-family:sans-serif;fill:#ffffff;stroke:#ffffff;text-rendering:geometricPrecision">
      <path d="m 125.96,98.7183 c -5.1076,0 -9.2481,4.1405 -9.2481,9.2481 l 0,18.4961 c 0,5.1075 4.1405,9.248 9.2481,9.248 l 7.8632,0 c 5.1076,0 9.2481,-4.1405 9.2481,-9.248 l 0,-18.4961 c 0,-5.1076 -4.1405,-9.2481 -9.2481,-9.2481 z" clip-path="url(#346129366-clipPath1)" id="path141" inkscape:connector-curvature="0" style="stroke:none"/>
      <text x="0" y="38" transform="translate(114.7119,93.3629)" clip-path="url(#346129853-clipPath1)" xml:space="preserve" id="text143" style="fill:#ff0000;stroke:none">O</text>
    </g>
    <g font-size="39px" id="g145" style="font-size:39px;font-family:sans-serif;fill:#ffffff;stroke:#ffffff;text-rendering:geometricPrecision">
      <path d="m 125.9581,319.5688 c -5.1076,0 -9.2481,4.1404 -9.2481,9.248 l 0,18.4961 c 0,5.1075 4.1405,9.248 9.2481,9.248 l 7.8633,0 c 5.1075,0 9.248,-4.1405 9.248,-9.248 l 0,-18.4961 c 0,-5.1076 -4.1405,-9.248 -9.248,-9.248 z" clip-path="url(#346129366-clipPath1)" id="path147" inkscape:connector-curvature="0" style="stroke:none"/>
      <text x="0" y="38" transform="translate(114.71,314.2133)" clip-path="url(#346129266-clipPath1)" xml:space="preserve" id="text149" style="fill:#ff0000;stroke:none">O</text>
    </g>
  </g>
</svg>