<?xml version="1.0" encoding="UTF-8" standalone="no"?>
<svg color-interpolation="auto" color-rendering="auto" fill="#000000" fill-opacity="1" font-family="Dialog" font-size="12px" font-style="normal" font-weight="normal" height="424.84201" image-rendering="auto" shape-rendering="auto" stroke="#000000" stroke-dasharray="none" stroke-dashoffset="0" stroke-linecap="square" stroke-linejoin="miter" stroke-miterlimit="10" stroke-opacity="1" stroke-width="1" text-rendering="auto" width="495.95602" version="1.1" id="svg38" xmlns="http://www.w3.org/2000/svg" xmlns:svg="http://www.w3.org/2000/svg">
  <!--Generated by Marvin with Batik SVG Generator-->
  <defs id="genericDefs"/>
  <g id="g38" transform="translate(-152.022,-22.77)">
    <defs id="153200540731-defs1">
      <clipPath clipPathUnits="userSpaceOnUse" id="153200540791-clipPath1">
        <path d="M 0,0 H 800 V 600 H 0 Z" id="path1"/>
      </clipPath>
      <clipPath clipPathUnits="userSpaceOnUse" id="1532005407120-clipPath1">
        <path d="m 636.0116,263.5378 c -19.795,0 -35.842,16.047 -35.842,35.842 0,19.7951 16.047,35.8421 35.842,35.8421 19.795,0 35.8421,-16.047 35.8421,-35.8421 0,-19.795 -16.0471,-35.842 -35.8421,-35.842 z" id="path2"/>
      </clipPath>
      <clipPath clipPathUnits="userSpaceOnUse" id="1532005407141-clipPath1">
        <path d="m 478.6663,263.5392 c -19.7927,0 -35.8379,16.0452 -35.8379,35.8379 0,19.7927 16.0452,35.8379 35.8379,35.8379 19.7927,0 35.8379,-16.0452 35.8379,-35.8379 0,-19.7927 -16.0452,-35.8379 -35.8379,-35.8379 z" id="path3"/>
      </clipPath>
      <clipPath clipPathUnits="userSpaceOnUse" id="1532005407914-clipPath1">
        <path d="m 399.9951,128.5818 c -19.0772,0 -34.5423,15.4651 -34.5423,34.5423 0,19.0771 15.4651,34.5422 34.5423,34.5422 19.0771,0 34.5422,-15.4651 34.5422,-34.5422 0,-19.0772 -15.4651,-34.5423 -34.5422,-34.5423 z" id="path4"/>
      </clipPath>
      <clipPath clipPathUnits="userSpaceOnUse" id="1532005407613-clipPath1">
        <path d="m 399.9951,128.3012 c -19.2322,0 -34.8229,15.5908 -34.8229,34.8229 0,19.2321 15.5907,34.8228 34.8229,34.8228 19.2321,0 34.8228,-15.5907 34.8228,-34.8228 0,-19.2321 -15.5907,-34.8229 -34.8228,-34.8229 z" id="path5"/>
      </clipPath>
      <clipPath clipPathUnits="userSpaceOnUse" id="1532005407571-clipPath1">
        <path d="m 321.3259,64.8393 c -16.6258,0 -30.1036,13.4779 -30.1036,30.1036 0,16.6258 13.4778,30.1037 30.1036,30.1037 16.6258,0 30.1037,-13.4779 30.1037,-30.1037 0,-16.6257 -13.4779,-30.1036 -30.1037,-30.1036 z" id="path6"/>
      </clipPath>
      <clipPath clipPathUnits="userSpaceOnUse" id="1532005407668-clipPath1">
        <path d="m -545.5068,-202.5141 h 799.9999 v 600 h -799.9999 z" id="path7"/>
      </clipPath>
      <clipPath clipPathUnits="userSpaceOnUse" id="1532005407443-clipPath1">
        <path d="M -545.5068,-234.9559 H 254.4931 V 365.0442 H -545.5068 Z" id="path8"/>
      </clipPath>
      <clipPath clipPathUnits="userSpaceOnUse" id="1532005407500-clipPath1">
        <path d="m -309.0297,-98.708 h 800 v 600 h -800 z" id="path9"/>
      </clipPath>
      <clipPath clipPathUnits="userSpaceOnUse" id="1532005407870-clipPath1">
        <path d="m -466.3639,-98.7032 h 800 v 600 h -800 z" id="path10"/>
      </clipPath>
    </defs>
    <g text-rendering="geometricPrecision" id="g11">
      <path clip-path="url(#153200540791-clipPath1)" d="m 302.2618,309.5619 c 0.9404,0.5429 2.1429,0.2207 2.6858,-0.7198 0.5428,-0.9404 0.2206,-2.1429 -0.7198,-2.6857 l -58.8727,-33.9868 c -0.9404,-0.5429 -2.1429,-0.2207 -2.6858,0.7197 -0.5429,0.9405 -0.2206,2.1429 0.7198,2.6858 z m 18.0873,-8.4773 c 0.9404,0.5429 2.1429,0.2207 2.6858,-0.7197 0.5429,-0.9405 0.2206,-2.1429 -0.7198,-2.6858 l -78.6632,-45.4117 c -0.9404,-0.5429 -2.1429,-0.2207 -2.6858,0.7198 -0.5429,0.9404 -0.2206,2.1428 0.7198,2.6857 z" stroke="none" id="path11"/>
    </g>
    <g text-rendering="geometricPrecision" id="g12">
      <path clip-path="url(#153200540791-clipPath1)" d="m 243.652,255.6729 v 0 l -78.6766,45.424 c -0.9404,0.5429 -2.1429,0.2207 -2.6858,-0.7197 -0.543,-0.9404 -0.2208,-2.1429 0.7196,-2.6858 v 0 l 78.6766,-45.424 c 0.9404,-0.5429 2.1429,-0.2207 2.6859,0.7197 0.5429,0.9404 0.2207,2.1429 -0.7197,2.6858 z" stroke="none" id="path12"/>
    </g>
    <g text-rendering="geometricPrecision" id="g13">
      <path clip-path="url(#153200540791-clipPath1)" d="m 182.3427,310.8203 c 0,-1.0859 -0.8802,-1.9662 -1.9661,-1.9662 -1.0859,-1e-4 -1.9662,0.8802 -1.9662,1.9661 l -0.003,67.9786 c 0,1.0858 0.8802,1.9662 1.9661,1.9662 1.0859,0 1.9662,-0.8802 1.9662,-1.966 z m -16.3843,-11.4261 c 10e-5,-1.0859 -0.8802,-1.9662 -1.966,-1.9662 -1.0859,-10e-5 -1.9662,0.8802 -1.9663,1.966 l -0.004,90.8302 c 0,1.0859 0.8802,1.9662 1.9661,1.9663 1.0859,0 1.9662,-0.8802 1.9662,-1.9661 z" stroke="none" id="path13"/>
    </g>
    <g text-rendering="geometricPrecision" id="g14">
      <path clip-path="url(#153200540791-clipPath1)" d="m 164.9715,388.5216 v 0 l 78.6687,45.4212 c 0.9404,0.543 1.2625,1.7455 0.7196,2.6858 -0.543,0.9404 -1.7455,1.2626 -2.6858,0.7197 v 0 L 163.0053,391.927 c -0.9404,-0.5429 -1.2626,-1.7454 -0.7196,-2.6858 0.5429,-0.9404 1.7454,-1.2626 2.6858,-0.7196 z" stroke="none" id="path14"/>
    </g>
    <g text-rendering="geometricPrecision" id="g15">
      <path clip-path="url(#153200540791-clipPath1)" d="m 243.3769,414.0402 c -0.9404,0.5429 -1.2626,1.7454 -0.7197,2.6858 0.543,0.9404 1.7454,1.2626 2.6858,0.7197 l 58.8862,-33.9979 c 0.9404,-0.543 1.2626,-1.7455 0.7196,-2.6859 -0.5429,-0.9404 -1.7454,-1.2625 -2.6858,-0.7196 z m -1.7029,19.9026 c -0.9404,0.5429 -1.2626,1.7454 -0.7197,2.6858 0.543,0.9404 1.7455,1.2626 2.6859,0.7197 l 78.6766,-45.424 c 0.9404,-0.543 1.2626,-1.7454 0.7196,-2.6858 -0.5429,-0.9404 -1.7454,-1.2626 -2.6858,-0.7197 z" stroke="none" id="path15"/>
    </g>
    <g text-rendering="geometricPrecision" id="g16">
      <path clip-path="url(#153200540791-clipPath1)" d="m 319.3676,390.2216 v 0 l -0.002,-90.8397 c -10e-5,-1.0859 0.8802,-1.9662 1.9661,-1.9662 1.0858,0 1.9661,0.8803 1.9661,1.9661 v 0 l 0.002,90.8397 c 0,1.0859 -0.8803,1.9662 -1.9662,1.9662 -1.0858,0 -1.9661,-0.8802 -1.9661,-1.9661 z" stroke="none" id="path16"/>
    </g>
    <g text-rendering="geometricPrecision" id="g17">
      <path clip-path="url(#153200540791-clipPath1)" d="m 320.349,297.6792 v 0 l 78.6657,-45.4209 c 0.9404,-0.543 2.1429,-0.2208 2.6858,0.7196 0.543,0.9404 0.2208,2.1428 -0.7195,2.6858 v 0 l -78.6658,45.4209 c -0.9404,0.5429 -2.1428,0.2208 -2.6858,-0.7196 -0.543,-0.9404 -0.2208,-2.1429 0.7196,-2.6858 z" stroke="none" id="path17"/>
    </g>
    <g text-rendering="geometricPrecision" id="g18">
      <path clip-path="url(#153200540791-clipPath1)" d="m 398.0317,253.9611 v 0 l -0.003,-90.837 c 0,-1.0858 0.8802,-1.9661 1.9661,-1.9662 1.0859,0 1.9662,0.8802 1.9662,1.9661 v 0 l 0.003,90.837 c 0,1.0858 -0.8802,1.9661 -1.9661,1.9662 -1.0859,0 -1.9662,-0.8803 -1.9662,-1.9661 z" stroke="none" id="path18"/>
    </g>
    <g text-rendering="geometricPrecision" id="g19">
      <path clip-path="url(#153200540791-clipPath1)" d="m 400.9808,252.2582 v 0 l 78.6685,45.4161 c 0.9404,0.5429 1.2627,1.7454 0.7197,2.6858 -0.5429,0.9404 -1.7453,1.2627 -2.6857,0.7198 v 0 l -78.6685,-45.4161 c -0.9404,-0.5429 -1.2626,-1.7454 -0.7197,-2.6858 0.5429,-0.9404 1.7453,-1.2627 2.6857,-0.7198 z" stroke="none" id="path19"/>
    </g>
    <g text-rendering="geometricPrecision" id="g20">
      <path clip-path="url(#153200540791-clipPath1)" d="m 479.6478,388.5141 v 0 l 78.6766,45.4239 c 0.9404,0.543 1.2626,1.7454 0.7197,2.6858 -0.543,0.9404 -1.7455,1.2626 -2.6858,0.7197 v 0 l -78.6767,-45.424 c -0.9404,-0.5429 -1.2626,-1.7454 -0.7196,-2.6858 0.5429,-0.9404 1.7454,-1.2626 2.6858,-0.7196 z" stroke="none" id="path20"/>
    </g>
    <g text-rendering="geometricPrecision" id="g21">
      <path clip-path="url(#153200540791-clipPath1)" d="m 556.358,433.9382 v 0 l 78.6592,-45.4268 c 0.9403,-0.543 2.1428,-0.221 2.6859,0.7193 0.5431,0.9404 0.221,2.1429 -0.7193,2.6859 v 0 l -78.6592,45.4268 c -0.9403,0.543 -2.1428,0.221 -2.6859,-0.7193 -0.5431,-0.9404 -0.221,-2.1429 0.7193,-2.6859 z" stroke="none" id="path21"/>
    </g>
    <g text-rendering="geometricPrecision" id="g22">
      <path clip-path="url(#153200540791-clipPath1)" d="m 634.0344,390.2138 v 0 l 0.0111,-90.8342 c 1e-4,-1.0859 0.8805,-1.9661 1.9663,-1.9659 1.0859,10e-5 1.9661,0.8805 1.966,1.9664 v 0 l -0.0112,90.8342 c -10e-5,1.0858 -0.8805,1.966 -1.9664,1.9659 -1.0858,-1e-4 -1.966,-0.8805 -1.9658,-1.9664 z" stroke="none" id="path22"/>
    </g>
    <g text-rendering="geometricPrecision" id="g23">
      <path clip-path="url(#153200540791-clipPath1)" d="m 480.6324,299.3771 v 0 l -0.002,90.8397 c -1e-4,1.0859 -0.8804,1.9662 -1.9662,1.9662 -1.0859,-10e-5 -1.9662,-0.8804 -1.9662,-1.9662 v 0 L 476.7,299.377 c 1e-4,-1.0858 0.8803,-1.9661 1.9662,-1.9661 1.0859,0 1.9662,0.8804 1.9661,1.9662 z" stroke="none" id="path23"/>
    </g>
    <g fill="#333399" stroke="#333399" text-rendering="geometricPrecision" id="g25">
      <path clip-path="url(#153200540791-clipPath1)" d="m 635.0286,301.0826 v 0 l -62.0804,-35.8421 c -0.9403,-0.543 -1.2625,-1.7454 -0.7196,-2.6858 0.5429,-0.9404 1.7454,-1.2626 2.6858,-0.7197 v 0 l 62.0803,35.8421 c 0.9404,0.5429 1.2626,1.7454 0.7197,2.6858 -0.543,0.9404 -1.7455,1.2626 -2.6858,0.7197 z" stroke="none" id="path24"/>
      <path clip-path="url(#1532005407120-clipPath1)" d="m 635.0286,301.0826 v 0 l -62.0804,-35.8421 c -0.9403,-0.543 -1.2625,-1.7454 -0.7196,-2.6858 0.5429,-0.9404 1.7454,-1.2626 2.6858,-0.7197 v 0 l 62.0803,35.8421 c 0.9404,0.5429 1.2626,1.7454 0.7197,2.6858 -0.543,0.9404 -1.7455,1.2626 -2.6858,0.7197 z" fill="#000000" stroke="none" id="path25"/>
    </g>
    <g fill="#333399" stroke="#333399" text-rendering="geometricPrecision" id="g27">
      <path clip-path="url(#153200540791-clipPath1)" d="m 477.6832,297.6744 v 0 l 62.0725,-35.839 c 0.9403,-0.543 2.1429,-0.2208 2.6858,0.7196 0.5429,0.9404 0.2208,2.1428 -0.7196,2.6858 v 0 l -62.0725,35.839 c -0.9404,0.543 -2.1429,0.2208 -2.6858,-0.7196 -0.543,-0.9404 -0.2208,-2.1429 0.7196,-2.6858 z" stroke="none" id="path26"/>
      <path clip-path="url(#1532005407141-clipPath1)" d="m 477.6832,297.6744 v 0 l 62.0725,-35.839 c 0.9403,-0.543 2.1429,-0.2208 2.6858,0.7196 0.5429,0.9404 0.2208,2.1428 -0.7196,2.6858 v 0 l -62.0725,35.839 c -0.9404,0.543 -2.1429,0.2208 -2.6858,-0.7196 -0.543,-0.9404 -0.2208,-2.1429 0.7196,-2.6858 z" fill="#000000" stroke="none" id="path27"/>
    </g>
    <g fill="#ff0000" stroke="#ff0000" text-rendering="geometricPrecision" id="g29">
      <path clip-path="url(#153200540791-clipPath1)" d="m 390.8195,156.6918 c -0.9404,0.5429 -1.2626,1.7454 -0.7196,2.6858 0.5429,0.9404 1.7454,1.2625 2.6858,0.7196 l 63.924,-36.9091 c 0.9404,-0.543 1.2625,-1.7455 0.7196,-2.6859 -0.543,-0.9403 -1.7455,-1.2625 -2.6859,-0.7196 z m 8.1927,14.1893 c -0.9403,0.5429 -1.2625,1.7454 -0.7195,2.6858 0.5429,0.9404 1.7454,1.2626 2.6858,0.7196 l 63.924,-36.9091 c 0.9403,-0.543 1.2625,-1.7455 0.7195,-2.6858 -0.5429,-0.9404 -1.7454,-1.2626 -2.6858,-0.7196 z" stroke="none" id="path28"/>
      <path clip-path="url(#1532005407914-clipPath1)" d="m 390.8195,156.6918 c -0.9404,0.5429 -1.2626,1.7454 -0.7196,2.6858 0.5429,0.9404 1.7454,1.2625 2.6858,0.7196 l 63.924,-36.9091 c 0.9404,-0.543 1.2625,-1.7455 0.7196,-2.6859 -0.543,-0.9403 -1.7455,-1.2625 -2.6859,-0.7196 z m 8.1927,14.1893 c -0.9403,0.5429 -1.2625,1.7454 -0.7195,2.6858 0.5429,0.9404 1.7454,1.2626 2.6858,0.7196 l 63.924,-36.9091 c 0.9403,-0.543 1.2625,-1.7455 0.7195,-2.6858 -0.5429,-0.9404 -1.7454,-1.2626 -2.6858,-0.7196 z" fill="#000000" stroke="none" id="path29"/>
    </g>
    <g fill="#ff0000" stroke="#ff0000" text-rendering="geometricPrecision" id="g31">
      <path clip-path="url(#153200540791-clipPath1)" d="m 399.0121,164.8268 v 0 l -60.316,-34.821 c -0.9405,-0.5429 -1.2627,-1.7454 -0.7198,-2.6858 0.5429,-0.9404 1.7454,-1.2626 2.6858,-0.7197 v 0 l 60.316,34.821 c 0.9404,0.5429 1.2627,1.7454 0.7197,2.6858 -0.5429,0.9404 -1.7453,1.2626 -2.6857,0.7197 z" stroke="none" id="path30"/>
      <path clip-path="url(#1532005407613-clipPath1)" d="m 399.0121,164.8268 v 0 l -60.316,-34.821 c -0.9405,-0.5429 -1.2627,-1.7454 -0.7198,-2.6858 0.5429,-0.9404 1.7454,-1.2626 2.6858,-0.7197 v 0 l 60.316,34.821 c 0.9404,0.5429 1.2627,1.7454 0.7197,2.6858 -0.5429,0.9404 -1.7453,1.2626 -2.6857,0.7197 z" fill="#000000" stroke="none" id="path31"/>
    </g>
    <g text-rendering="geometricPrecision" id="g33">
      <path clip-path="url(#153200540791-clipPath1)" d="m 319.3598,94.943 v 0 l -0.002,-60.2073 c 0,-1.0859 0.8803,-1.9662 1.9661,-1.9662 1.0859,0 1.9662,0.8802 1.9662,1.9661 v 0 l 0.002,60.2073 c 0,1.0859 -0.8803,1.9662 -1.9661,1.9662 -1.0859,0 -1.9662,-0.8802 -1.9662,-1.9661 z" stroke="none" id="path32"/>
      <path clip-path="url(#1532005407571-clipPath1)" d="m 319.3598,94.943 v 0 l -0.002,-60.2073 c 0,-1.0859 0.8803,-1.9662 1.9661,-1.9662 1.0859,0 1.9662,0.8802 1.9662,1.9661 v 0 l 0.002,60.2073 c 0,1.0859 -0.8803,1.9662 -1.9661,1.9662 -1.0859,0 -1.9662,-0.8802 -1.9662,-1.9661 z" fill="#ff0000" stroke="none" id="path33"/>
    </g>
    <g fill="#333399" font-family="sans-serif" font-size="32px" stroke="#333399" text-rendering="geometricPrecision" transform="translate(545.5069,202.5141)" id="g34">
      <text clip-path="url(#1532005407668-clipPath1)" stroke="none" x="0" xml:space="preserve" y="30" id="text33">H</text>
    </g>
    <g fill="#333399" font-family="sans-serif" font-size="32px" stroke="#333399" text-rendering="geometricPrecision" transform="translate(545.5069,234.9559)" id="g35">
      <text clip-path="url(#1532005407443-clipPath1)" stroke="none" x="0" xml:space="preserve" y="30" id="text34">N</text>
    </g>
    <g fill="#ff0000" font-family="sans-serif" font-size="32px" stroke="#ff0000" text-rendering="geometricPrecision" transform="translate(309.0297,98.708)" id="g36">
      <text clip-path="url(#1532005407500-clipPath1)" stroke="none" x="0" xml:space="preserve" y="30" id="text35">O</text>
    </g>
    <g fill="#ff0000" font-family="sans-serif" font-size="32px" stroke="#ff0000" text-rendering="geometricPrecision" transform="translate(466.3639,98.7032)" id="g37">
      <text clip-path="url(#1532005407870-clipPath1)" stroke="none" x="0" xml:space="preserve" y="30" id="text36">O</text>
    </g>
  </g>
</svg>