<?xml version="1.0" encoding="UTF-8" standalone="no"?>
<svg xmlns:dc="http://purl.org/dc/elements/1.1/" xmlns:cc="http://creativecommons.org/ns#" xmlns:rdf="http://www.w3.org/1999/02/22-rdf-syntax-ns#" xmlns:svg="http://www.w3.org/2000/svg" xmlns="http://www.w3.org/2000/svg" xmlns:sodipodi="http://sodipodi.sourceforge.net/DTD/sodipodi-0.dtd" xmlns:inkscape="http://www.inkscape.org/namespaces/inkscape" width="412.64932" stroke-miterlimit="10" font-weight="normal" height="262.2782" font-style="normal" font-size="12px" id="svg2" version="1.1" inkscape:version="0.91 r13725" sodipodi:docname="Methcathinone.svg" style="font-style:normal;font-weight:normal;font-size:12px;font-family:Dialog;color-interpolation:auto;fill:#000000;fill-opacity:1;stroke:#000000;stroke-width:1;stroke-linecap:square;stroke-linejoin:miter;stroke-miterlimit:10;stroke-dasharray:none;stroke-dashoffset:0;stroke-opacity:1;color-rendering:auto;image-rendering:auto;shape-rendering:auto;text-rendering:auto">
  <metadata id="metadata103">
    <rdf:RDF>
      <cc:Work rdf:about="">
        <dc:format>image/svg+xml</dc:format>
        <dc:type rdf:resource="http://purl.org/dc/dcmitype/StillImage"/>
        <dc:title/>
      </cc:Work>
    </rdf:RDF>
  </metadata>
  <sodipodi:namedview pagecolor="#ffffff" bordercolor="#666666" borderopacity="1" objecttolerance="10" gridtolerance="10" guidetolerance="10" inkscape:pageopacity="0" inkscape:pageshadow="2" inkscape:window-width="1060" inkscape:window-height="480" id="namedview101" showgrid="false" fit-margin-top="10" fit-margin-left="10" fit-margin-right="10" fit-margin-bottom="10" inkscape:zoom="0.36375" inkscape:cx="171.25921" inkscape:cy="-20.295512" inkscape:window-x="0" inkscape:window-y="0" inkscape:window-maximized="0" inkscape:current-layer="svg2"/>
  <!--Generated by Marvin with Batik SVG Generator-->
  <defs id="genericDefs"/>
  <g id="g5" transform="translate(-228.74079,-17.4263)">
    <defs id="1181213440605-defs1">
      <clipPath clipPathUnits="userSpaceOnUse" id="1181213440642-clipPath1">
        <path d="M 0,0 800,0 800,600 0,600 0,0 Z" id="path9" inkscape:connector-curvature="0"/>
      </clipPath>
      <clipPath clipPathUnits="userSpaceOnUse" id="1181213440786-clipPath1">
        <path d="m 437.9222,87.814 c -15.5744,0 -28.1999,12.6255 -28.1999,28.1999 0,15.5744 12.6255,28.1999 28.1999,28.1999 15.5744,0 28.1999,-12.6255 28.1999,-28.1999 0,-15.5744 -12.6255,-28.1999 -28.1999,-28.1999 z" id="path12" inkscape:connector-curvature="0"/>
      </clipPath>
      <clipPath clipPathUnits="userSpaceOnUse" id="1181213440428-clipPath1">
        <path d="m 503.7617,124.0663 c -16.549,0 -29.9646,13.4156 -29.9646,29.9646 0,16.5489 13.4156,29.9645 29.9646,29.9645 16.5489,0 29.9645,-13.4156 29.9645,-29.9645 0,-16.549 -13.4156,-29.9646 -29.9645,-29.9646 z" id="path15" inkscape:connector-curvature="0"/>
      </clipPath>
      <clipPath clipPathUnits="userSpaceOnUse" id="1181213440821-clipPath1">
        <path d="m 583.5462,97.3974 c -14.7312,0 -26.6732,11.942 -26.6732,26.6732 0,14.7312 11.942,26.6732 26.6732,26.6732 14.7312,0 26.6732,-11.942 26.6732,-26.6732 0,-14.7312 -11.942,-26.6732 -26.6732,-26.6732 z" id="path18" inkscape:connector-curvature="0"/>
      </clipPath>
      <clipPath clipPathUnits="userSpaceOnUse" id="1181213440999-clipPath1">
        <path d="m -427.3012,-23.9868 800,0 0,600 -800,0 0,-600 z" id="path21" inkscape:connector-curvature="0"/>
      </clipPath>
      <clipPath clipPathUnits="userSpaceOnUse" id="118121344093-clipPath1">
        <path d="m -559.6529,-72.8682 800,0 0,600 -800,0 0,-600 z" id="path24" inkscape:connector-curvature="0"/>
      </clipPath>
      <clipPath clipPathUnits="userSpaceOnUse" id="1181213440337-clipPath1">
        <path d="m -559.6519,-100.0207 800,0 0,600 -800,0 0,-600 z" id="path27" inkscape:connector-curvature="0"/>
      </clipPath>
    </defs>
    <g id="g29" style="text-rendering:geometricPrecision">
      <path d="m 238.7411,230.045 c 0,0.909 0.7366,1.6456 1.6456,1.6456 0.909,0 1.6456,-0.7366 1.6456,-1.6456 l 0,-76.0363 c 0,-0.9091 -0.7366,-1.6456 -1.6456,-1.6456 -0.909,0 -1.6456,0.7365 -1.6456,1.6456 z m 13.7134,-9.5634 c 0,0.909 0.7366,1.6456 1.6456,1.6456 0.909,0 1.6456,-0.7366 1.6456,-1.6456 l 0,-56.9089 c 0,-0.909 -0.7366,-1.6456 -1.6456,-1.6456 -0.909,0 -1.6456,0.7366 -1.6456,1.6456 z" clip-path="url(#1181213440642-clipPath1)" id="path31" inkscape:connector-curvature="0" style="stroke:none"/>
    </g>
    <g id="g33" style="text-rendering:geometricPrecision">
      <path d="m 306.8373,249.9764 c -0.7872,0.4544 -1.0569,1.4606 -0.6025,2.2479 0.4545,0.7872 1.4606,1.0569 2.2479,0.6025 l 49.2761,-28.444 c 0.7873,-0.4544 1.057,-1.4606 0.6025,-2.2478 -0.4544,-0.7873 -1.4605,-1.057 -2.2478,-0.6025 z m -1.4255,16.6569 c -0.7873,0.4545 -1.0569,1.4606 -0.6025,2.2479 0.4544,0.7873 1.4606,1.057 2.2479,0.6025 l 65.8397,-38.005 c 0.7873,-0.4545 1.057,-1.4606 0.6026,-2.2479 -0.4545,-0.7873 -1.4607,-1.057 -2.2479,-0.6025 z" clip-path="url(#1181213440642-clipPath1)" id="path35" inkscape:connector-curvature="0" style="stroke:none"/>
    </g>
    <g id="g37" style="text-rendering:geometricPrecision">
      <path d="m 373.7198,230.0536 0.005,-76.0294 c 0,-0.9091 -0.7365,-1.6457 -1.6456,-1.6457 -0.9089,-1e-4 -1.6456,0.7364 -1.6456,1.6455 l -0.005,76.0294 c 0,0.909 0.7365,1.6456 1.6456,1.6457 0.909,0 1.6456,-0.7365 1.6456,-1.6455 z" clip-path="url(#1181213440642-clipPath1)" id="path39" inkscape:connector-curvature="0" style="stroke:none"/>
    </g>
    <g id="g41" style="text-rendering:geometricPrecision">
      <path d="m 356.117,162.543 c 0.7872,0.4546 1.7934,0.185 2.248,-0.6022 0.4545,-0.7872 0.185,-1.7934 -0.6022,-2.2479 l -49.285,-28.4575 c -0.7872,-0.4546 -1.7934,-0.185 -2.2479,0.6022 -0.4545,0.7872 -0.185,1.7934 0.6022,2.248 z m 15.139,-7.0939 c 0.7872,0.4546 1.7934,0.185 2.2479,-0.6022 0.4546,-0.7872 0.185,-1.7934 -0.6022,-2.2479 L 307.054,114.578 c -0.7872,-0.4546 -1.7934,-0.185 -2.248,0.6022 -0.4545,0.7872 -0.185,1.7934 0.6023,2.2479 z" clip-path="url(#1181213440642-clipPath1)" id="path43" inkscape:connector-curvature="0" style="stroke:none"/>
    </g>
    <g id="g45" style="text-rendering:geometricPrecision">
      <path d="m 239.564,231.4701 65.8477,38.0136 c 0.7873,0.4545 1.7935,0.1848 2.2479,-0.6024 0.4545,-0.7873 0.1849,-1.7934 -0.6024,-2.2479 l -65.8477,-38.0136 c -0.7873,-0.4545 -1.7935,-0.1848 -2.2479,0.6024 -0.4545,0.7873 -0.1849,1.7935 0.6024,2.2479 z" clip-path="url(#1181213440642-clipPath1)" id="path47" inkscape:connector-curvature="0" style="stroke:none"/>
    </g>
    <g id="g49" style="text-rendering:geometricPrecision">
      <path d="m 305.4085,114.5778 -65.8444,38.0057 c -0.7873,0.4544 -1.057,1.4605 -0.6026,2.2478 0.4544,0.7873 1.4606,1.057 2.2479,0.6026 l 65.8443,-38.0056 c 0.7873,-0.4544 1.057,-1.4606 0.6026,-2.2479 -0.4544,-0.7873 -1.4606,-1.057 -2.2478,-0.6026 z" clip-path="url(#1181213440642-clipPath1)" id="path51" inkscape:connector-curvature="0" style="stroke:none"/>
    </g>
    <g id="g53" style="text-rendering:geometricPrecision">
      <path d="m 372.9016,155.4492 65.8434,-38.0101 c 0.7872,-0.4545 1.0568,-1.4607 0.6024,-2.2479 -0.4545,-0.7873 -1.4606,-1.0569 -2.2479,-0.6025 l -65.8434,38.0102 c -0.7872,0.4544 -1.0569,1.4606 -0.6024,2.2479 0.4545,0.7872 1.4606,1.0569 2.2479,0.6024 z" clip-path="url(#1181213440642-clipPath1)" id="path55" inkscape:connector-curvature="0" style="stroke:none"/>
    </g>
    <g id="g57" style="text-rendering:geometricPrecision">
      <path d="m 437.0994,117.439 65.8394,38.017 c 0.7872,0.4545 1.7934,0.1849 2.2479,-0.6023 0.4546,-0.7872 0.185,-1.7934 -0.6022,-2.2479 l -65.8394,-38.017 c -0.7872,-0.4545 -1.7934,-0.185 -2.248,0.6022 -0.4545,0.7872 -0.1849,1.7934 0.6023,2.248 z" clip-path="url(#1181213440642-clipPath1)" id="path59" inkscape:connector-curvature="0" style="stroke:none"/>
    </g>
    <g id="g61" style="fill:#ff0000;stroke:#ff0000;text-rendering:geometricPrecision">
      <path d="m 429.4197,119.9722 c 0,0.909 0.7365,1.6456 1.6455,1.6457 0.9091,0 1.6457,-0.7365 1.6457,-1.6455 l 0.003,-60.3586 c 0,-0.909 -0.7365,-1.6456 -1.6456,-1.6457 -0.909,0 -1.6456,0.7365 -1.6456,1.6456 z m 13.7134,7e-4 c 0,0.909 0.7365,1.6456 1.6455,1.6457 0.9091,0 1.6457,-0.7365 1.6457,-1.6455 l 0.003,-60.3586 c 10e-5,-0.909 -0.7365,-1.6456 -1.6455,-1.6456 -0.909,-10e-5 -1.6456,0.7364 -1.6456,1.6455 z" clip-path="url(#1181213440642-clipPath1)" id="path63" inkscape:connector-curvature="0" style="stroke:none"/>
      <path d="m 429.4197,119.9722 c 0,0.909 0.7365,1.6456 1.6455,1.6457 0.9091,0 1.6457,-0.7365 1.6457,-1.6455 l 0.003,-60.3586 c 0,-0.909 -0.7365,-1.6456 -1.6456,-1.6457 -0.909,0 -1.6456,0.7365 -1.6456,1.6456 z m 13.7134,7e-4 c 0,0.909 0.7365,1.6456 1.6455,1.6457 0.9091,0 1.6457,-0.7365 1.6457,-1.6455 l 0.003,-60.3586 c 10e-5,-0.909 -0.7365,-1.6456 -1.6455,-1.6456 -0.909,-10e-5 -1.6456,0.7364 -1.6456,1.6455 z" clip-path="url(#1181213440786-clipPath1)" id="path65" inkscape:connector-curvature="0" style="fill:#000000;stroke:none"/>
    </g>
    <g id="g67" style="fill:#333399;stroke:#333399;text-rendering:geometricPrecision">
      <path d="m 504.5844,155.456 51.9016,-29.9618 c 0.7873,-0.4545 1.0569,-1.4606 0.6024,-2.2479 -0.4544,-0.7872 -1.4606,-1.0569 -2.2478,-0.6024 l -51.9017,29.9618 c -0.7872,0.4545 -1.0569,1.4606 -0.6024,2.2479 0.4545,0.7873 1.4606,1.0569 2.2479,0.6024 z" clip-path="url(#1181213440642-clipPath1)" id="path69" inkscape:connector-curvature="0" style="stroke:none"/>
      <path d="m 504.5844,155.456 51.9016,-29.9618 c 0.7873,-0.4545 1.0569,-1.4606 0.6024,-2.2479 -0.4544,-0.7872 -1.4606,-1.0569 -2.2478,-0.6024 l -51.9017,29.9618 c -0.7872,0.4545 -1.0569,1.4606 -0.6024,2.2479 0.4545,0.7873 1.4606,1.0569 2.2479,0.6024 z" clip-path="url(#1181213440428-clipPath1)" id="path71" inkscape:connector-curvature="0" style="fill:#000000;stroke:none"/>
    </g>
    <g id="g73" style="text-rendering:geometricPrecision">
      <path d="m 502.1161,154.0308 -0.004,69.4447 c -10e-5,0.9091 0.7365,1.6457 1.6455,1.6457 0.909,0 1.6456,-0.7365 1.6457,-1.6455 l 0.004,-69.4447 c 0,-0.9091 -0.7365,-1.6457 -1.6456,-1.6457 -0.909,-1e-4 -1.6456,0.7365 -1.6456,1.6455 z" clip-path="url(#1181213440642-clipPath1)" id="path75" inkscape:connector-curvature="0" style="stroke:none"/>
    </g>
    <g id="g77" style="text-rendering:geometricPrecision">
      <path d="m 582.7233,125.4957 46.198,26.6756 c 0.7872,0.4546 1.7934,0.185 2.248,-0.6022 0.4545,-0.7872 0.1849,-1.7934 -0.6023,-2.248 l -46.1979,-26.6755 c -0.7873,-0.4546 -1.7934,-0.185 -2.248,0.6022 -0.4545,0.7872 -0.185,1.7934 0.6022,2.2479 z" clip-path="url(#1181213440642-clipPath1)" id="path79" inkscape:connector-curvature="0" style="stroke:none"/>
      <path d="m 582.7233,125.4957 46.198,26.6756 c 0.7872,0.4546 1.7934,0.185 2.248,-0.6022 0.4545,-0.7872 0.1849,-1.7934 -0.6023,-2.248 l -46.1979,-26.6755 c -0.7873,-0.4546 -1.7934,-0.185 -2.248,0.6022 -0.4545,0.7872 -0.185,1.7934 0.6022,2.2479 z" clip-path="url(#1181213440821-clipPath1)" id="path81" inkscape:connector-curvature="0" style="fill:#333399;stroke:none"/>
    </g>
    <g id="g83" style="fill:#ffffff;stroke:#ffffff;text-rendering:geometricPrecision">
      <path d="m 435.2025,27.4263 c -3.5354,0 -6.4013,2.8659 -6.4013,6.4013 l 0,12.8028 c 0,3.5353 2.8659,6.4013 6.4013,6.4013 l 5.4473,0 c 3.5354,0 6.4014,-2.866 6.4014,-6.4013 l 0,-12.8028 c 0,-3.5354 -2.866,-6.4013 -6.4014,-6.4013 z" clip-path="url(#1181213440642-clipPath1)" id="path85" inkscape:connector-curvature="0" style="stroke:none"/>
    </g>
    <g font-size="27px" transform="translate(427.3012,23.9868)" id="g87" style="font-size:27px;font-family:sans-serif;fill:#ff0000;stroke:#ff0000;text-rendering:geometricPrecision">
      <text x="0" xml:space="preserve" y="26" clip-path="url(#1181213440999-clipPath1)" id="text89" style="stroke:none">O</text>
    </g>
    <g font-size="27px" id="g91" style="font-size:27px;font-family:sans-serif;fill:#ffffff;stroke:#ffffff;text-rendering:geometricPrecision">
      <path d="m 568.2515,76.6709 c -3.3681,0 -6.0986,2.7305 -6.0986,6.0987 l 0,12.1972 c 0,3.3682 2.7305,6.0987 6.0986,6.0987 l 2.6309,0 c 3.3682,0 6.0986,-2.7305 6.0986,-6.0987 l 0,-12.1972 c 0,-3.3682 -2.7304,-6.0987 -6.0986,-6.0987 z m -10e-4,27.1526 c -3.3681,0 -6.0986,2.7304 -6.0986,6.0986 l 0,12.1973 c 0,3.3681 2.7305,6.0986 6.0986,6.0986 l 2.709,0 c 3.3682,0 6.0987,-2.7305 6.0987,-6.0986 l 0,-12.1973 c 0,-3.3682 -2.7305,-6.0986 -6.0987,-6.0986 z" clip-path="url(#1181213440642-clipPath1)" id="path93" inkscape:connector-curvature="0" style="stroke:none"/>
      <text x="0" y="26" transform="translate(559.6529,72.8682)" clip-path="url(#118121344093-clipPath1)" xml:space="preserve" id="text95" style="fill:#333399;stroke:none">H</text>
    </g>
    <g font-size="27px" transform="translate(559.6519,100.0207)" id="g97" style="font-size:27px;font-family:sans-serif;fill:#333399;stroke:#333399;text-rendering:geometricPrecision">
      <text x="0" xml:space="preserve" y="26" clip-path="url(#1181213440337-clipPath1)" id="text99" style="stroke:none">N</text>
    </g>
  </g>
</svg>