<?xml version="1.0" encoding="UTF-8" standalone="no"?>
<svg color-interpolation="auto" color-rendering="auto" fill="#000000" fill-opacity="1" font-family="Dialog" font-size="12px" font-style="normal" font-weight="normal" height="544.34802" image-rendering="auto" shape-rendering="auto" stroke="#000000" stroke-dasharray="none" stroke-dashoffset="0" stroke-linecap="square" stroke-linejoin="miter" stroke-miterlimit="10" stroke-opacity="1" stroke-width="1" text-rendering="auto" width="705.05402" version="1.1" id="svg42" xmlns="http://www.w3.org/2000/svg" xmlns:svg="http://www.w3.org/2000/svg">
  <!--Generated by Marvin with Batik SVG Generator-->
  <defs id="genericDefs"/>
  <g id="g42" transform="translate(-46.146999,-27.826)">
    <defs id="1261167991606-defs1">
      <clipPath clipPathUnits="userSpaceOnUse" id="1261167991942-clipPath1">
        <path d="M 0,0 H 800 V 600 H 0 Z" id="path1"/>
      </clipPath>
      <clipPath clipPathUnits="userSpaceOnUse" id="1261167991292-clipPath1">
        <path d="m 328.5271,206.6566 c -22.8385,0 -41.3528,18.5143 -41.3528,41.3528 0,22.8385 18.5143,41.3528 41.3528,41.3528 22.8385,0 41.3528,-18.5143 41.3528,-41.3528 0,-22.8385 -18.5143,-41.3528 -41.3528,-41.3528 z" id="path2"/>
      </clipPath>
      <clipPath clipPathUnits="userSpaceOnUse" id="1261167991361-clipPath1">
        <path d="m 436.9766,165.2999 c -22.8387,0 -41.3531,18.5144 -41.3531,41.3531 0,22.8387 18.5144,41.3531 41.3531,41.3531 22.8387,0 41.3531,-18.5144 41.3531,-41.3531 0,-22.8387 -18.5144,-41.3531 -41.3531,-41.3531 z" id="path3"/>
      </clipPath>
      <clipPath clipPathUnits="userSpaceOnUse" id="1261167991912-clipPath1">
        <path d="m 418.5629,144.3051 c -14.0734,0 -25.4822,11.4088 -25.4822,25.4822 0,14.0734 11.4088,25.4822 25.4822,25.4822 14.0735,0 25.4822,-11.4088 25.4822,-25.4822 0,-14.0734 -11.4087,-25.4822 -25.4822,-25.4822 z" id="path4"/>
      </clipPath>
      <clipPath clipPathUnits="userSpaceOnUse" id="1261167991978-clipPath1">
        <path d="m 598.6417,157.4203 c -21.3182,0 -38.6,17.2818 -38.6,38.6 0,21.3183 17.2818,38.6001 38.6,38.6001 21.3183,0 38.6001,-17.2818 38.6001,-38.6001 0,-21.3182 -17.2818,-38.6 -38.6001,-38.6 z" id="path5"/>
      </clipPath>
      <clipPath clipPathUnits="userSpaceOnUse" id="1261167991847-clipPath1">
        <path d="m 598.6417,155.0696 c -22.6164,0 -40.9507,18.3343 -40.9507,40.9507 0,22.6165 18.3343,40.9508 40.9507,40.9508 22.6165,0 40.9508,-18.3343 40.9508,-40.9508 0,-22.6164 -18.3343,-40.9507 -40.9508,-40.9507 z" id="path6"/>
      </clipPath>
      <clipPath clipPathUnits="userSpaceOnUse" id="1261167991680-clipPath1">
        <path d="m -407.0715,-174.0231 h 800 v 600 h -800 z" id="path7"/>
      </clipPath>
      <clipPath clipPathUnits="userSpaceOnUse" id="126116799128-clipPath1">
        <path d="m -404.0762,-70.0559 h 800 v 600 h -800 z" id="path8"/>
      </clipPath>
      <clipPath clipPathUnits="userSpaceOnUse" id="1261167991965-clipPath1">
        <path d="M -674.9691,-226.0039 H 125.031 v 600 h -800.0001 z" id="path9"/>
      </clipPath>
      <clipPath clipPathUnits="userSpaceOnUse" id="126116799153-clipPath1">
        <path d="M -726.5316,-245.1236 H 73.4685 v 600 h -800.0001 z" id="path10"/>
      </clipPath>
      <clipPath clipPathUnits="userSpaceOnUse" id="1261167991888-clipPath1">
        <path d="m -584.1573,-70.0532 h 799.9999 v 600 h -799.9999 z" id="path11"/>
      </clipPath>
    </defs>
    <g text-rendering="geometricPrecision" id="g12">
      <path clip-path="url(#1261167991942-clipPath1)" d="m 259.5044,417.0371 c 0,-1.2429 -1.0075,-2.2504 -2.2503,-2.2504 -1.2429,0 -2.2504,1.0075 -2.2504,2.2504 v 77.8259 c 0,1.2429 1.0075,2.2504 2.2504,2.2504 1.2428,0 2.2503,-1.0075 2.2503,-2.2504 z m -18.7531,-13.077 c 0,-1.2428 -1.0075,-2.2503 -2.2503,-2.2503 -1.2429,0 -2.2504,1.0075 -2.2504,2.2503 v 103.9798 c 0,1.2429 1.0075,2.2504 2.2504,2.2504 1.2428,0 2.2503,-1.0075 2.2503,-2.2504 z" stroke="none" id="path12"/>
    </g>
    <g text-rendering="geometricPrecision" id="g13">
      <path clip-path="url(#1261167991942-clipPath1)" d="m 329.3546,535.1951 c -1.0763,0.6214 -1.4451,1.9977 -0.8237,3.0741 0.6214,1.0763 1.9977,1.4451 3.074,0.8237 l 67.3904,-38.9063 c 1.0763,-0.6214 1.4451,-1.9976 0.8237,-3.074 -0.6214,-1.0763 -1.9976,-1.4451 -3.074,-0.8237 z m -1.9495,22.7796 c -1.0763,0.6214 -1.4451,1.9977 -0.8237,3.0739 0.6214,1.0764 1.9976,1.4452 3.074,0.8238 l 90.0419,-51.9836 c 1.0763,-0.6214 1.4451,-1.9977 0.8237,-3.074 -0.6214,-1.0763 -1.9977,-1.4451 -3.074,-0.8237 z" stroke="none" id="path13"/>
    </g>
    <g text-rendering="geometricPrecision" id="g14">
      <path clip-path="url(#1261167991942-clipPath1)" d="m 396.745,415.6112 c 1.0764,0.6214 2.4526,0.2526 3.074,-0.8237 0.6214,-1.0763 0.2526,-2.4527 -0.8237,-3.0741 l -67.3904,-38.9062 c -1.0763,-0.6214 -2.4526,-0.2526 -3.074,0.8237 -0.6214,1.0763 -0.2526,2.4526 0.8237,3.074 z m 20.702,-9.7022 c 1.0763,0.6214 2.4526,0.2526 3.074,-0.8237 0.6214,-1.0763 0.2526,-2.4526 -0.8237,-3.074 l -90.0419,-51.9836 c -1.0764,-0.6214 -2.4526,-0.2526 -3.074,0.8237 -0.6214,1.0764 -0.2526,2.4526 0.8237,3.074 z" stroke="none" id="path14"/>
    </g>
    <g text-rendering="geometricPrecision" id="g15">
      <path clip-path="url(#1261167991942-clipPath1)" d="m 326.2799,351.9766 v 0 l -0.003,-103.9671 c 0,-1.2429 1.0075,-2.2504 2.2503,-2.2505 1.2429,0 2.2504,1.0075 2.2504,2.2503 v 0 l 0.003,103.9672 c 0,1.2428 -1.0075,2.2504 -2.2503,2.2504 -1.2428,10e-5 -2.2504,-1.0074 -2.2504,-2.2503 z" stroke="none" id="path15"/>
    </g>
    <g text-rendering="geometricPrecision" id="g16">
      <path clip-path="url(#1261167991942-clipPath1)" d="m 327.402,249.9583 v 0 l -90.0398,-51.9809 c -1.0764,-0.6214 -1.4452,-1.9976 -0.8238,-3.074 0.6214,-1.0763 1.9977,-1.4451 3.074,-0.8238 v 0 l 90.0398,51.9809 c 1.0763,0.6214 1.4452,1.9977 0.8238,3.074 -0.6214,1.0763 -1.9977,1.4452 -3.074,0.8238 z" stroke="none" id="path16"/>
    </g>
    <g text-rendering="geometricPrecision" id="g17">
      <path clip-path="url(#1261167991942-clipPath1)" d="m 216.659,103.7195 c 1.0763,0.6214 2.4526,0.2527 3.074,-0.8236 0.6215,-1.0763 0.2527,-2.4526 -0.8236,-3.0741 l -67.398,-38.915 c -1.0763,-0.6214 -2.4527,-0.2527 -3.0741,0.8236 -0.6214,1.0763 -0.2527,2.4526 0.8236,3.0741 z m 20.7017,-9.7016 c 1.0764,0.6215 2.4527,0.2527 3.0741,-0.8236 0.6215,-1.0763 0.2527,-2.4526 -0.8236,-3.074 L 149.5637,38.1277 c -1.0763,-0.6215 -2.4526,-0.2528 -3.0741,0.8235 -0.6215,1.0763 -0.2527,2.4527 0.8236,3.0741 z" stroke="none" id="path17"/>
    </g>
    <g text-rendering="geometricPrecision" id="g18">
      <path clip-path="url(#1261167991942-clipPath1)" d="m 79.4059,105.1284 c 1e-4,-1.2429 -1.0074,-2.2504 -2.2502,-2.2505 -1.2429,-1e-4 -2.2504,1.0074 -2.2505,2.2502 l -0.0037,77.815 c -1e-4,1.2428 1.0074,2.2504 2.2502,2.2504 1.2429,1e-4 2.2504,-1.0074 2.2505,-2.2502 z M 60.6535,92.0497 c 0,-1.2428 -1.0075,-2.2504 -2.2503,-2.2505 -1.2428,0 -2.2504,1.0074 -2.2504,2.2503 l -0.005,103.9703 c -10e-5,1.2429 1.0074,2.2504 2.2502,2.2505 1.2429,1e-4 2.2504,-1.0074 2.2505,-2.2502 z" stroke="none" id="path18"/>
    </g>
    <g text-rendering="geometricPrecision" id="g19">
      <path clip-path="url(#1261167991942-clipPath1)" d="m 149.2699,223.2842 c -1.0764,0.6214 -1.4452,1.9977 -0.8238,3.0741 0.6215,1.0763 1.9977,1.4451 3.0741,0.8237 l 67.3902,-38.9066 c 1.0763,-0.6214 1.4451,-1.9977 0.8237,-3.074 -0.6214,-1.0764 -1.9977,-1.4452 -3.074,-0.8238 z m -1.9494,22.7795 c -1.0763,0.6214 -1.4451,1.9977 -0.8237,3.074 0.6214,1.0763 1.9977,1.4451 3.074,0.8237 l 90.0417,-51.984 c 1.0763,-0.6214 1.4451,-1.9977 0.8237,-3.074 -0.6214,-1.0764 -1.9977,-1.4451 -3.074,-0.8237 z" stroke="none" id="path19"/>
    </g>
    <g text-rendering="geometricPrecision" id="g20">
      <path clip-path="url(#1261167991942-clipPath1)" d="m 507.4784,246.0551 v 0 l 90.0382,-51.9836 c 1.0763,-0.6214 2.4526,-0.2527 3.074,0.8237 0.6214,1.0763 0.2527,2.4526 -0.8237,3.074 v 0 l -90.0382,51.9836 c -1.0763,0.6214 -2.4526,0.2526 -3.074,-0.8237 -0.6214,-1.0763 -0.2527,-2.4526 0.8237,-3.074 z" stroke="none" id="path20"/>
    </g>
    <g fill="#666600" stroke="#666600" text-rendering="geometricPrecision" id="g22">
      <path clip-path="url(#1261167991942-clipPath1)" d="m 327.4019,246.0606 v 0 l 71.6239,-41.355 c 1.0763,-0.6215 2.4526,-0.2527 3.074,0.8236 0.6215,1.0763 0.2527,2.4526 -0.8236,3.074 v 0 l -71.6239,41.355 c -1.0763,0.6215 -2.4526,0.2527 -3.074,-0.8236 -0.6215,-1.0763 -0.2527,-2.4526 0.8236,-3.074 z" stroke="none" id="path21"/>
      <path clip-path="url(#1261167991292-clipPath1)" d="m 327.4019,246.0606 v 0 l 71.6239,-41.355 c 1.0763,-0.6215 2.4526,-0.2527 3.074,0.8236 0.6215,1.0763 0.2527,2.4526 -0.8236,3.074 v 0 l -71.6239,41.355 c -1.0763,0.6215 -2.4526,0.2527 -3.074,-0.8236 -0.6215,-1.0763 -0.2527,-2.4526 0.8236,-3.074 z" fill="#000000" stroke="none" id="path22"/>
    </g>
    <g text-rendering="geometricPrecision" id="g24">
      <path clip-path="url(#1261167991942-clipPath1)" d="m 438.1017,204.7041 v 0 l 71.6269,41.3509 c 1.0764,0.6214 1.4452,1.9977 0.8238,3.074 -0.6214,1.0764 -1.9977,1.4452 -3.074,0.8238 v 0 l -71.6269,-41.3509 c -1.0764,-0.6214 -1.4452,-1.9977 -0.8238,-3.074 0.6214,-1.0763 1.9977,-1.4452 3.074,-0.8238 z" stroke="none" id="path23"/>
      <path clip-path="url(#1261167991361-clipPath1)" d="m 438.1017,204.7041 v 0 l 71.6269,41.3509 c 1.0764,0.6214 1.4452,1.9977 0.8238,3.074 -0.6214,1.0764 -1.9977,1.4452 -3.074,0.8238 v 0 l -71.6269,-41.3509 c -1.0764,-0.6214 -1.4452,-1.9977 -0.8238,-3.074 0.6214,-1.0763 1.9977,-1.4452 3.074,-0.8238 z" fill="#666600" stroke="none" id="path24"/>
    </g>
    <g fill="#ff0000" stroke="#ff0000" text-rendering="geometricPrecision" id="g26">
      <path clip-path="url(#1261167991942-clipPath1)" d="m 406.9361,169.7877 c 0,1.2428 1.0075,2.2503 2.2504,2.2502 1.2428,0 2.2503,-1.0076 2.2502,-2.2504 l -10e-4,-50.9644 c 0,-1.2428 -1.0076,-2.2503 -2.2504,-2.2502 -1.2428,0 -2.2503,1.0075 -2.2503,2.2504 z m 18.753,-6e-4 c 1e-4,1.2428 1.0076,2.2503 2.2504,2.2503 1.2429,-1e-4 2.2504,-1.0076 2.2503,-2.2505 l -10e-4,-50.9643 c 0,-1.2429 -1.0076,-2.2504 -2.2504,-2.2503 -1.2429,0 -2.2503,1.0076 -2.2503,2.2504 z" stroke="none" id="path25"/>
      <path clip-path="url(#1261167991912-clipPath1)" d="m 406.9361,169.7877 c 0,1.2428 1.0075,2.2503 2.2504,2.2502 1.2428,0 2.2503,-1.0076 2.2502,-2.2504 l -10e-4,-50.9644 c 0,-1.2428 -1.0076,-2.2503 -2.2504,-2.2502 -1.2428,0 -2.2503,1.0075 -2.2503,2.2504 z m 18.753,-6e-4 c 1e-4,1.2428 1.0076,2.2503 2.2504,2.2503 1.2429,-1e-4 2.2504,-1.0076 2.2503,-2.2505 l -10e-4,-50.9643 c 0,-1.2429 -1.0076,-2.2504 -2.2504,-2.2503 -1.2429,0 -2.2503,1.0076 -2.2503,2.2504 z" fill="#666600" stroke="none" id="path26"/>
    </g>
    <g fill="#ff0000" stroke="#ff0000" text-rendering="geometricPrecision" id="g28">
      <path clip-path="url(#1261167991942-clipPath1)" d="m 587.0148,201.4339 c 0,1.2428 1.0076,2.2503 2.2504,2.2503 1.2429,0 2.2504,-1.0075 2.2504,-2.2503 v -82.6137 c 0,-1.2428 -1.0075,-2.2504 -2.2504,-2.2504 -1.2428,0 -2.2504,1.0076 -2.2504,2.2504 z m 18.7531,0 c 0,1.2428 1.0076,2.2503 2.2504,2.2503 1.2428,0 2.2503,-1.0075 2.2503,-2.2503 v -82.6137 c 0,-1.2428 -1.0075,-2.2504 -2.2503,-2.2504 -1.2428,0 -2.2504,1.0076 -2.2504,2.2504 z" stroke="none" id="path27"/>
      <path clip-path="url(#1261167991978-clipPath1)" d="m 587.0148,201.4339 c 0,1.2428 1.0076,2.2503 2.2504,2.2503 1.2429,0 2.2504,-1.0075 2.2504,-2.2503 v -82.6137 c 0,-1.2428 -1.0075,-2.2504 -2.2504,-2.2504 -1.2428,0 -2.2504,1.0076 -2.2504,2.2504 z m 18.7531,0 c 0,1.2428 1.0076,2.2503 2.2504,2.2503 1.2428,0 2.2503,-1.0075 2.2503,-2.2503 v -82.6137 c 0,-1.2428 -1.0075,-2.2504 -2.2503,-2.2504 -1.2428,0 -2.2504,1.0076 -2.2504,2.2504 z" fill="#000000" stroke="none" id="path28"/>
    </g>
    <g fill="#333399" stroke="#333399" text-rendering="geometricPrecision" id="g30">
      <path clip-path="url(#1261167991942-clipPath1)" d="m 599.7669,194.0715 v 0 l 70.9288,40.9507 c 1.0763,0.6214 1.445,1.9977 0.8236,3.0741 -0.6214,1.0763 -1.9976,1.4451 -3.074,0.8236 v 0 l -70.9287,-40.9507 c -1.0764,-0.6214 -1.4451,-1.9977 -0.8237,-3.074 0.6214,-1.0764 1.9977,-1.4451 3.074,-0.8237 z" stroke="none" id="path29"/>
      <path clip-path="url(#1261167991847-clipPath1)" d="m 599.7669,194.0715 v 0 l 70.9288,40.9507 c 1.0763,0.6214 1.445,1.9977 0.8236,3.0741 -0.6214,1.0763 -1.9976,1.4451 -3.074,0.8236 v 0 l -70.9287,-40.9507 c -1.0764,-0.6214 -1.4451,-1.9977 -0.8237,-3.074 0.6214,-1.0764 1.9977,-1.4451 3.074,-0.8237 z" fill="#000000" stroke="none" id="path30"/>
    </g>
    <g text-rendering="geometricPrecision" id="g31">
      <path clip-path="url(#1261167991942-clipPath1)" d="m 237.3757,402.0114 v 0 l 90.0293,-51.9836 c 1.0763,-0.6215 2.4526,-0.2528 3.0741,0.8235 0.6214,1.0763 0.2527,2.4526 -0.8236,3.0741 v 0 l -90.0293,51.9836 c -1.0763,0.6214 -2.4526,0.2527 -3.074,-0.8236 -0.6215,-1.0763 -0.2528,-2.4526 0.8235,-3.074 z" stroke="none" id="path31"/>
    </g>
    <g text-rendering="geometricPrecision" id="g32">
      <path clip-path="url(#1261167991942-clipPath1)" d="m 239.6262,505.9911 v 0 l 90.0293,51.9836 c 1.0763,0.6215 1.445,1.9978 0.8236,3.0741 -0.6215,1.0763 -1.9978,1.445 -3.0741,0.8235 v 0 l -90.0293,-51.9836 c -1.0763,-0.6214 -1.445,-1.9977 -0.8235,-3.074 0.6214,-1.0763 1.9977,-1.445 3.074,-0.8236 z" stroke="none" id="path32"/>
    </g>
    <g text-rendering="geometricPrecision" id="g33">
      <path clip-path="url(#1261167991942-clipPath1)" d="m 416.3218,507.9399 v 0 -103.9798 c 0,-1.2428 1.0075,-2.2503 2.2503,-2.2503 1.2428,0 2.2504,1.0075 2.2504,2.2503 v 0 103.9798 c 0,1.2429 -1.0076,2.2504 -2.2504,2.2504 -1.2428,0 -2.2503,-1.0075 -2.2503,-2.2504 z" stroke="none" id="path33"/>
    </g>
    <g text-rendering="geometricPrecision" id="g34">
      <path clip-path="url(#1261167991942-clipPath1)" d="m 59.5234,194.0711 v 0 l 90.0475,51.9926 c 1.0763,0.6215 1.4451,1.9978 0.8236,3.0741 -0.6214,1.0763 -1.9978,1.445 -3.0741,0.8236 v 0 L 57.2729,197.9688 c -1.0763,-0.6215 -1.4451,-1.9978 -0.8236,-3.0741 0.6214,-1.0763 1.9978,-1.445 3.0741,-0.8236 z" stroke="none" id="path34"/>
    </g>
    <g text-rendering="geometricPrecision" id="g35">
      <path clip-path="url(#1261167991942-clipPath1)" d="m 236.237,196.0286 v 0 L 236.236,92.0691 c 0,-1.2428 1.0075,-2.2503 2.2503,-2.2504 1.2429,0 2.2504,1.0075 2.2504,2.2504 v 0 l 10e-4,103.9594 c 0,1.2428 -1.0075,2.2504 -2.2504,2.2504 -1.2428,0 -2.2503,-1.0075 -2.2503,-2.2503 z" stroke="none" id="path35"/>
    </g>
    <g text-rendering="geometricPrecision" id="g36">
      <path clip-path="url(#1261167991942-clipPath1)" d="m 149.5635,42.0254 v 0 L 59.5281,93.9985 c -1.0763,0.6214 -2.4526,0.2525 -3.0739,-0.8239 -0.6214,-1.0763 -0.2525,-2.4526 0.8239,-3.0739 v 0 l 90.0353,-51.9732 c 1.0764,-0.6213 2.4526,-0.2524 3.074,0.8239 0.6213,1.0764 0.2524,2.4527 -0.8239,3.074 z" stroke="none" id="path36"/>
    </g>
    <g fill="#666600" font-family="sans-serif" font-size="37px" stroke="#666600" text-rendering="geometricPrecision" transform="translate(407.0715,174.0231)" id="g37">
      <text clip-path="url(#1261167991680-clipPath1)" stroke="none" x="0" xml:space="preserve" y="35" id="text36">S</text>
    </g>
    <g fill="#ff0000" font-family="sans-serif" font-size="37px" stroke="#ff0000" text-rendering="geometricPrecision" transform="translate(404.0762,70.0559)" id="g38">
      <text clip-path="url(#126116799128-clipPath1)" stroke="none" x="0" xml:space="preserve" y="35" id="text37">O</text>
    </g>
    <g fill="#333399" font-family="sans-serif" font-size="37px" stroke="#333399" text-rendering="geometricPrecision" transform="translate(674.969,226.0039)" id="g39">
      <text clip-path="url(#1261167991965-clipPath1)" stroke="none" x="0" xml:space="preserve" y="35" id="text38">NH</text>
    </g>
    <g fill="#333399" font-family="sans-serif" font-size="29px" stroke="#333399" text-rendering="geometricPrecision" transform="translate(726.5315,245.1236)" id="g40">
      <text clip-path="url(#126116799153-clipPath1)" stroke="none" x="0" xml:space="preserve" y="27" id="text39">2</text>
    </g>
    <g fill="#ff0000" font-family="sans-serif" font-size="37px" stroke="#ff0000" text-rendering="geometricPrecision" transform="translate(584.1574,70.0532)" id="g41">
      <text clip-path="url(#1261167991888-clipPath1)" stroke="none" x="0" xml:space="preserve" y="35" id="text40">O</text>
    </g>
  </g>
</svg>