<?xml version="1.0" encoding="UTF-8" standalone="no"?>
<svg color-interpolation="auto" color-rendering="auto" fill="#000000" fill-opacity="1" font-family="Dialog" font-size="12px" font-style="normal" font-weight="normal" height="508.55099" image-rendering="auto" shape-rendering="auto" stroke="#000000" stroke-dasharray="none" stroke-dashoffset="0" stroke-linecap="square" stroke-linejoin="miter" stroke-miterlimit="10" stroke-opacity="1" stroke-width="1" text-rendering="auto" width="636.48804" version="1.1" id="svg34" xmlns="http://www.w3.org/2000/svg" xmlns:svg="http://www.w3.org/2000/svg">
  <!--Generated by Marvin with Batik SVG Generator-->
  <defs id="genericDefs"/>
  <g id="g34" transform="translate(-81.755997,-43.103001)">
    <defs id="274782259138-defs1">
      <clipPath clipPathUnits="userSpaceOnUse" id="274782259571-clipPath1">
        <path d="M 0,0 H 800 V 600 H 0 Z" id="path1"/>
      </clipPath>
      <clipPath clipPathUnits="userSpaceOnUse" id="274782259666-clipPath1">
        <path d="m 630.0785,209.9033 c -30.9528,0 -56.0449,25.0922 -56.0449,56.0449 0,30.9528 25.0921,56.0449 56.0449,56.0449 30.9527,0 56.0449,-25.0921 56.0449,-56.0449 0,-30.9527 -25.0922,-56.0449 -56.0449,-56.0449 z" id="path2"/>
      </clipPath>
      <clipPath clipPathUnits="userSpaceOnUse" id="274782259496-clipPath1">
        <path d="m 474.097,173.6518 c -32.0884,0 -58.1012,26.0128 -58.1012,58.1012 0,32.0884 26.0128,58.1012 58.1012,58.1012 32.0884,0 58.1012,-26.0128 58.1012,-58.1012 0,-32.0884 -26.0128,-58.1012 -58.1012,-58.1012 z" id="path3"/>
      </clipPath>
      <clipPath clipPathUnits="userSpaceOnUse" id="274782259631-clipPath1">
        <path d="m 94.9157,393.2004 c -31.7443,0 -57.4782,25.7338 -57.4782,57.4781 0,31.7444 25.7339,57.4782 57.4782,57.4782 31.7443,0 57.4782,-25.7338 57.4782,-57.4782 0,-31.7443 -25.7339,-57.4781 -57.4782,-57.4781 z" id="path4"/>
      </clipPath>
      <clipPath clipPathUnits="userSpaceOnUse" id="274782259253-clipPath1">
        <path d="m 248.1458,450.6741 c -31.748,0 -57.4849,25.7369 -57.4849,57.4849 0,31.748 25.7369,57.4848 57.4849,57.4848 31.7479,0 57.4848,-25.7368 57.4848,-57.4848 0,-31.748 -25.7369,-57.4849 -57.4848,-57.4849 z" id="path5"/>
      </clipPath>
      <clipPath clipPathUnits="userSpaceOnUse" id="274782259407-clipPath1">
        <path d="m 474.097,175.1065 c -31.285,0 -56.6464,25.3615 -56.6464,56.6465 0,31.285 25.3614,56.6464 56.6464,56.6464 31.285,0 56.6465,-25.3614 56.6465,-56.6464 0,-31.285 -25.3615,-56.6465 -56.6465,-56.6465 z" id="path6"/>
      </clipPath>
      <clipPath clipPathUnits="userSpaceOnUse" id="274782259643-clipPath1">
        <path d="m 614.9544,277.9332 c -26.8194,0 -48.5608,21.7414 -48.5608,48.5608 0,26.8194 21.7414,48.5607 48.5608,48.5607 26.8193,0 48.5607,-21.7413 48.5607,-48.5607 0,-26.8194 -21.7414,-48.5608 -48.5607,-48.5608 z" id="path7"/>
      </clipPath>
      <clipPath clipPathUnits="userSpaceOnUse" id="274782259247-clipPath1">
        <path d="m -201.9639,-492.6539 h 800 v 600 h -800 z" id="path8"/>
      </clipPath>
      <clipPath clipPathUnits="userSpaceOnUse" id="274782259505-clipPath1">
        <path d="m -588.0862,-260.1001 h 800 v 600 h -800 z" id="path9"/>
      </clipPath>
      <clipPath clipPathUnits="userSpaceOnUse" id="274782259574-clipPath1">
        <path d="m -332.2574,-121.2629 h 800 v 600.0001 h -800 z" id="path10"/>
      </clipPath>
    </defs>
    <g text-rendering="geometricPrecision" id="g11">
      <path clip-path="url(#274782259571-clipPath1)" d="m 317.0708,321.0834 c 1.5109,0.8723 3.4428,0.3545 4.315,-1.1564 0.8723,-1.5109 0.3545,-3.4428 -1.1564,-4.3151 l -94.587,-54.6043 c -1.5109,-0.8723 -3.4428,-0.3545 -4.315,1.1564 -0.8723,1.5109 -0.3545,3.4428 1.1564,4.315 z m 29.0597,-13.6199 c 1.5109,0.8723 3.4428,0.3545 4.3151,-1.1564 0.8722,-1.5109 0.3544,-3.4428 -1.1564,-4.3151 L 222.906,229.032 c -1.5109,-0.8723 -3.4428,-0.3545 -4.315,1.1564 -0.8723,1.5109 -0.3545,3.4428 1.1564,4.315 z" stroke="none" id="path11"/>
    </g>
    <g text-rendering="geometricPrecision" id="g12">
      <path clip-path="url(#274782259571-clipPath1)" d="m 222.9061,234.5034 v 0 L 96.5014,307.4832 c -1.5108,0.8723 -3.4428,0.3546 -4.3151,-1.1563 -0.8723,-1.5108 -0.3546,-3.4428 1.1562,-4.3151 v 0 L 219.7473,229.032 c 1.5108,-0.8723 3.4428,-0.3546 4.3151,1.1563 0.8723,1.5108 0.3546,3.4428 -1.1563,4.3151 z" stroke="none" id="path12"/>
    </g>
    <g text-rendering="geometricPrecision" id="g13">
      <path clip-path="url(#274782259571-clipPath1)" d="m 124.4044,323.1052 c 0,-1.7446 -1.4142,-3.1589 -3.1588,-3.159 -1.7446,-10e-5 -3.1589,1.4142 -3.159,3.1587 l -0.005,109.217 c -10e-5,1.7446 1.4141,3.1589 3.1587,3.159 1.7446,10e-5 3.159,-1.4142 3.1591,-3.1588 z M 98.0809,304.7476 c 0,-1.7446 -1.4142,-3.1589 -3.1588,-3.159 -1.7446,-10e-5 -3.1589,1.4141 -3.159,3.1588 l -0.0063,145.931 c 0,1.7446 1.4142,3.1589 3.1588,3.159 1.7446,10e-5 3.1589,-1.4141 3.159,-3.1587 z" stroke="none" id="path13"/>
    </g>
    <g text-rendering="geometricPrecision" id="g14">
      <path clip-path="url(#274782259571-clipPath1)" d="m 344.5535,450.6742 v 0 l -0.003,-145.9464 c 0,-1.7446 1.4143,-3.1589 3.1589,-3.1589 1.7446,0 3.1589,1.4142 3.1589,3.1588 v 0 l 0.003,145.9464 c 0,1.7446 -1.4142,3.1589 -3.1588,3.1589 -1.7447,0 -3.1589,-1.4142 -3.159,-3.1588 z" stroke="none" id="path14"/>
    </g>
    <g text-rendering="geometricPrecision" id="g15">
      <path clip-path="url(#274782259571-clipPath1)" d="m 702.3486,184.2315 v 0 L 629.3777,57.8421 c -0.8723,-1.5109 -0.3547,-3.4428 1.1562,-4.3151 1.5108,-0.8723 3.4428,-0.3547 4.3151,1.1562 v 0 l 72.9709,126.3894 c 0.8724,1.5109 0.3547,3.4428 -1.1561,4.3151 -1.511,0.8723 -3.4429,0.3546 -4.3152,-1.1562 z" stroke="none" id="path15"/>
    </g>
    <g text-rendering="geometricPrecision" id="g16">
      <path clip-path="url(#274782259571-clipPath1)" d="m 632.7702,59.3525 v 0 L 490.0243,89.6996 c -1.7065,0.3627 -3.384,-0.7265 -3.7467,-2.433 -0.3628,-1.7065 0.7264,-3.3839 2.4329,-3.7467 v 0 L 631.4564,53.1728 c 1.7065,-0.3628 3.384,0.7265 3.7468,2.433 0.3628,1.7064 -0.7265,3.3839 -2.433,3.7467 z" stroke="none" id="path16"/>
    </g>
    <g text-rendering="geometricPrecision" id="g17">
      <path clip-path="url(#274782259571-clipPath1)" d="m 470.9555,231.4225 v 0 L 486.2258,86.2792 c 0.1826,-1.735 1.7371,-2.9936 3.4721,-2.811 1.735,0.1825 2.9936,1.737 2.811,3.472 v 0 l -15.2703,145.1433 c -0.1826,1.735 -1.7371,2.9936 -3.4721,2.811 -1.735,-0.1825 -2.9936,-1.737 -2.811,-3.472 z" stroke="none" id="path17"/>
    </g>
    <g text-rendering="geometricPrecision" id="g19">
      <path clip-path="url(#274782259571-clipPath1)" d="m 627.7311,263.8344 v 0 l 75.0058,-83.2962 c 1.1674,-1.2964 3.1647,-1.401 4.4612,-0.2336 1.2964,1.1674 1.401,3.1648 0.2336,4.4612 v 0 l -75.0058,83.2962 c -1.1674,1.2965 -3.1647,1.4011 -4.4612,0.2337 -1.2964,-1.1675 -1.401,-3.1648 -0.2336,-4.4613 z" stroke="none" id="path18"/>
      <path clip-path="url(#274782259666-clipPath1)" d="m 627.7311,263.8344 v 0 l 75.0058,-83.2962 c 1.1674,-1.2964 3.1647,-1.401 4.4612,-0.2336 1.2964,1.1674 1.401,3.1648 0.2336,4.4612 v 0 l -75.0058,83.2962 c -1.1674,1.2965 -3.1647,1.4011 -4.4612,0.2337 -1.2964,-1.1675 -1.401,-3.1648 -0.2336,-4.4613 z" fill="#333399" stroke="none" id="path19"/>
    </g>
    <g fill="#333399" stroke="#333399" text-rendering="geometricPrecision" id="g21">
      <path clip-path="url(#274782259571-clipPath1)" d="m 475.3816,228.8671 v 0 l 106.1609,47.2527 c 1.5939,0.7095 2.3108,2.5766 1.6014,4.1705 -0.7094,1.5938 -2.5766,2.3108 -4.1705,1.6014 v 0 L 472.8125,234.6389 c -1.5939,-0.7094 -2.3108,-2.5766 -1.6014,-4.1704 0.7094,-1.5939 2.5766,-2.3108 4.1705,-1.6014 z" stroke="none" id="path20"/>
      <path clip-path="url(#274782259496-clipPath1)" d="m 475.3816,228.8671 v 0 l 106.1609,47.2527 c 1.5939,0.7095 2.3108,2.5766 1.6014,4.1705 -0.7094,1.5938 -2.5766,2.3108 -4.1705,1.6014 v 0 L 472.8125,234.6389 c -1.5939,-0.7094 -2.3108,-2.5766 -1.6014,-4.1704 0.7094,-1.5939 2.5766,-2.3108 4.1705,-1.6014 z" fill="#000000" stroke="none" id="path21"/>
    </g>
    <g text-rendering="geometricPrecision" id="g22">
      <path clip-path="url(#274782259571-clipPath1)" d="m 473.8751,235.7918 1.8014,-1.3032 -1.5795,-2.7356 -1.5795,-2.7356 -2.0293,0.9086 v 0 z m -16.724,12.0988 5.1458,-3.7227 -4.8513,-8.4022 v 0 l -5.7967,2.5955 v 0 z m -16.724,12.0988 5.1458,-3.7227 v 0 l -6.9667,-12.0658 v 0 l -5.7967,2.5954 v 0 z m -16.7241,12.0988 5.1458,-3.7227 v 0 l -9.082,-15.7294 v 0 l -5.7966,2.5954 z m -16.724,12.0987 5.1458,-3.7226 v 0 l -11.1973,-19.393 v 0 l -5.7967,2.5954 v 0 z m -16.724,12.0988 5.1458,-3.7227 v 0 l -13.3127,-23.0565 v 0 l -5.7966,2.5954 v 0 z m -16.7241,12.0988 5.1459,-3.7227 v 0 l -15.428,-26.7201 -5.7967,2.5954 v 0 z m -28.9795,20.9649 17.4013,-12.5888 -17.5432,-30.3837 -19.6024,8.7768 19.7439,11.398 z" stroke="none" id="path22"/>
    </g>
    <g fill="#333399" stroke="#333399" text-rendering="geometricPrecision" id="g24">
      <path clip-path="url(#274782259571-clipPath1)" d="m 96.4952,447.9429 v 0 l 99.5541,57.4799 c 1.5109,0.8723 2.0285,2.8043 1.1561,4.3151 -0.8723,1.5109 -2.8042,2.0285 -4.3151,1.1562 v 0 L 93.3362,453.4142 c -1.5108,-0.8724 -2.0285,-2.8043 -1.1561,-4.3152 0.8723,-1.5108 2.8042,-2.0284 4.3151,-1.1561 z" stroke="none" id="path23"/>
      <path clip-path="url(#274782259631-clipPath1)" d="m 96.4952,447.9429 v 0 l 99.5541,57.4799 c 1.5109,0.8723 2.0285,2.8043 1.1561,4.3151 -0.8723,1.5109 -2.8042,2.0285 -4.3151,1.1562 v 0 L 93.3362,453.4142 c -1.5108,-0.8724 -2.0285,-2.8043 -1.1561,-4.3152 0.8723,-1.5108 2.8042,-2.0284 4.3151,-1.1561 z" fill="#000000" stroke="none" id="path24"/>
    </g>
    <g text-rendering="geometricPrecision" id="g26">
      <path clip-path="url(#274782259571-clipPath1)" d="m 233.4042,482.6258 c -1.5109,0.8723 -2.0286,2.8043 -1.1563,4.3151 0.8723,1.5109 2.8043,2.0286 4.3151,1.1563 l 83.6686,-48.3061 c 1.5109,-0.8723 2.0286,-2.8043 1.1562,-4.3151 -0.8722,-1.5109 -2.8042,-2.0286 -4.315,-1.1563 z m 13.1621,22.7975 c -1.5109,0.8723 -2.0285,2.8042 -1.1562,4.3151 0.8723,1.5109 2.8042,2.0285 4.3151,1.1563 l 99.5666,-57.4849 c 1.5109,-0.8723 2.0286,-2.8042 1.1563,-4.3151 -0.8723,-1.5109 -2.8043,-2.0285 -4.3151,-1.1562 z" stroke="none" id="path25"/>
      <path clip-path="url(#274782259253-clipPath1)" d="m 233.4042,482.6258 c -1.5109,0.8723 -2.0286,2.8043 -1.1563,4.3151 0.8723,1.5109 2.8043,2.0286 4.3151,1.1563 l 83.6686,-48.3061 c 1.5109,-0.8723 2.0286,-2.8043 1.1562,-4.3151 -0.8722,-1.5109 -2.8042,-2.0286 -4.315,-1.1563 z m 13.1621,22.7975 c -1.5109,0.8723 -2.0285,2.8042 -1.1562,4.3151 0.8723,1.5109 2.8042,2.0285 4.3151,1.1563 l 99.5666,-57.4849 c 1.5109,-0.8723 2.0286,-2.8042 1.1563,-4.3151 -0.8723,-1.5109 -2.8043,-2.0285 -4.3151,-1.1562 z" fill="#333399" stroke="none" id="path26"/>
    </g>
    <g fill="#333333" stroke="#333333" text-rendering="geometricPrecision" id="g28">
      <path clip-path="url(#274782259571-clipPath1)" d="m 474.097,231.753 1.7206,-2.6492 -85.9802,-75.6157 -10.7536,16.5577 -10.7535,16.5576 104.0462,47.7988 z" stroke="none" id="path27"/>
      <path clip-path="url(#274782259407-clipPath1)" d="m 474.097,231.753 1.7206,-2.6492 -85.9802,-75.6157 -10.7536,16.5577 -10.7535,16.5576 104.0462,47.7988 z" fill="#000000" stroke="none" id="path28"/>
    </g>
    <g text-rendering="geometricPrecision" id="g30">
      <path clip-path="url(#274782259571-clipPath1)" d="m 618.0442,325.8371 v 0 l 20.1959,94.9985 c 0.3627,1.7065 -0.7265,3.3839 -2.433,3.7467 -1.7065,0.3628 -3.3839,-0.7265 -3.7467,-2.4329 v 0 l -20.1958,-94.9986 c -0.3628,-1.7064 0.7265,-3.3839 2.4329,-3.7467 1.7065,-0.3627 3.384,0.7265 3.7467,2.433 z" stroke="none" id="path29"/>
      <path clip-path="url(#274782259643-clipPath1)" d="m 618.0442,325.8371 v 0 l 20.1959,94.9985 c 0.3627,1.7065 -0.7265,3.3839 -2.433,3.7467 -1.7065,0.3628 -3.3839,-0.7265 -3.7467,-2.4329 v 0 l -20.1958,-94.9986 c -0.3628,-1.7064 0.7265,-3.3839 2.4329,-3.7467 1.7065,-0.3627 3.384,0.7265 3.7467,2.433 z" fill="#333399" stroke="none" id="path30"/>
    </g>
    <g fill="#333399" font-family="sans-serif" font-size="52px" stroke="#333399" text-rendering="geometricPrecision" transform="translate(201.9639,492.6539)" id="g31">
      <text clip-path="url(#274782259247-clipPath1)" stroke="none" x="0" xml:space="preserve" y="49" id="text30">N</text>
    </g>
    <g fill="#333399" font-family="sans-serif" font-size="52px" stroke="#333399" text-rendering="geometricPrecision" transform="translate(588.0862,260.1001)" id="g32">
      <text clip-path="url(#274782259505-clipPath1)" stroke="none" x="0" xml:space="preserve" y="49" id="text31">N</text>
    </g>
    <g fill="#333333" font-family="sans-serif" font-size="52px" stroke="#333333" text-rendering="geometricPrecision" transform="translate(332.2574,121.2629)" id="g33">
      <text clip-path="url(#274782259574-clipPath1)" stroke="none" x="0" xml:space="preserve" y="49" id="text32">H</text>
    </g>
  </g>
</svg>