<?xml version="1.0" encoding="UTF-8" standalone="no"?>
<svg xmlns:dc="http://purl.org/dc/elements/1.1/" xmlns:cc="http://creativecommons.org/ns#" xmlns:rdf="http://www.w3.org/1999/02/22-rdf-syntax-ns#" xmlns:svg="http://www.w3.org/2000/svg" xmlns="http://www.w3.org/2000/svg" xmlns:sodipodi="http://sodipodi.sourceforge.net/DTD/sodipodi-0.dtd" xmlns:inkscape="http://www.inkscape.org/namespaces/inkscape" width="741.44684" stroke-miterlimit="10" font-weight="normal" height="559.61212" font-style="normal" font-size="12px" id="svg2" version="1.1" inkscape:version="0.91 r13725" sodipodi:docname="Noopept.svg" style="font-style:normal;font-weight:normal;font-size:12px;font-family:Dialog;color-interpolation:auto;fill:#000000;fill-opacity:1;stroke:#000000;stroke-width:1;stroke-linecap:square;stroke-linejoin:miter;stroke-miterlimit:10;stroke-dasharray:none;stroke-dashoffset:0;stroke-opacity:1;color-rendering:auto;image-rendering:auto;shape-rendering:auto;text-rendering:auto">
  <metadata id="metadata222">
    <rdf:RDF>
      <cc:Work rdf:about="">
        <dc:format>image/svg+xml</dc:format>
        <dc:type rdf:resource="http://purl.org/dc/dcmitype/StillImage"/>
        <dc:title/>
      </cc:Work>
    </rdf:RDF>
  </metadata>
  <sodipodi:namedview pagecolor="#ffffff" bordercolor="#666666" borderopacity="1" objecttolerance="10" gridtolerance="10" guidetolerance="10" inkscape:pageopacity="0" inkscape:pageshadow="2" inkscape:window-width="1060" inkscape:window-height="480" id="namedview220" showgrid="false" fit-margin-top="10" fit-margin-left="10" fit-margin-right="10" fit-margin-bottom="10" inkscape:zoom="0.36375" inkscape:cx="370.72345" inkscape:cy="279.9341" inkscape:window-x="0" inkscape:window-y="0" inkscape:window-maximized="0" inkscape:current-layer="svg2"/>
  <!--Generated by Marvin with Batik SVG Generator-->
  <defs id="genericDefs"/>
  <g id="g5" transform="translate(-29.276554,-20.321979)">
    <defs id="128225985285-defs1">
      <clipPath clipPathUnits="userSpaceOnUse" id="1282259852266-clipPath1">
        <path d="M 0,0 800,0 800,600 0,600 0,0 Z" id="path9" inkscape:connector-curvature="0"/>
      </clipPath>
      <clipPath clipPathUnits="userSpaceOnUse" id="1282259852152-clipPath1">
        <path d="m 548.6408,441.0062 c -17.1678,0 -31.0851,13.9173 -31.0851,31.0851 0,17.1679 13.9173,31.0851 31.0851,31.0851 17.1679,0 31.0851,-13.9172 31.0851,-31.0851 0,-17.1678 -13.9172,-31.0851 -31.0851,-31.0851 z" id="path12" inkscape:connector-curvature="0"/>
      </clipPath>
      <clipPath clipPathUnits="userSpaceOnUse" id="1282259852403-clipPath1">
        <path d="m 548.6408,440.2943 c -17.561,0 -31.797,14.236 -31.797,31.797 0,17.561 14.236,31.7971 31.797,31.7971 17.561,0 31.7971,-14.2361 31.7971,-31.7971 0,-17.561 -14.2361,-31.797 -31.7971,-31.797 z" id="path15" inkscape:connector-curvature="0"/>
      </clipPath>
      <clipPath clipPathUnits="userSpaceOnUse" id="1282259852666-clipPath1">
        <path d="m 637.9186,408.5004 c -17.5609,0 -31.797,14.236 -31.797,31.7969 0,17.561 14.2361,31.797 31.797,31.797 17.561,0 31.7969,-14.236 31.7969,-31.797 0,-17.5609 -14.2359,-31.7969 -31.7969,-31.7969 z" id="path18" inkscape:connector-curvature="0"/>
      </clipPath>
      <clipPath clipPathUnits="userSpaceOnUse" id="1282259852693-clipPath1">
        <path d="m 332.1162,399.602 c -17.0168,0 -30.8117,13.7949 -30.8117,30.8117 0,17.0168 13.7949,30.8116 30.8117,30.8116 17.0168,0 30.8117,-13.7948 30.8117,-30.8116 0,-17.0168 -13.7949,-30.8117 -30.8117,-30.8117 z" id="path21" inkscape:connector-curvature="0"/>
      </clipPath>
      <clipPath clipPathUnits="userSpaceOnUse" id="1282259852657-clipPath1">
        <path d="m 185.4332,292.2898 c -17.4189,0 -31.5398,14.1208 -31.5398,31.5397 0,17.4189 14.1209,31.5397 31.5398,31.5397 17.4189,0 31.5397,-14.1208 31.5397,-31.5397 0,-17.4189 -14.1208,-31.5397 -31.5397,-31.5397 z" id="path24" inkscape:connector-curvature="0"/>
      </clipPath>
      <clipPath clipPathUnits="userSpaceOnUse" id="128225985250-clipPath1">
        <path d="m 170.7225,385.2818 c -17.9927,0 -32.5787,14.5861 -32.5787,32.5788 0,17.9928 14.586,32.5789 32.5787,32.5789 17.9928,0 32.5789,-14.5861 32.5789,-32.5789 0,-17.9927 -14.5861,-32.5788 -32.5789,-32.5788 z" id="path27" inkscape:connector-curvature="0"/>
      </clipPath>
      <clipPath clipPathUnits="userSpaceOnUse" id="1282259852410-clipPath1">
        <path d="m 200.1438,385.2818 c -17.9928,0 -32.5788,14.5861 -32.5788,32.5788 0,17.9928 14.586,32.5789 32.5788,32.5789 17.9928,0 32.5788,-14.5861 32.5788,-32.5789 0,-17.9927 -14.586,-32.5788 -32.5788,-32.5788 z" id="path30" inkscape:connector-curvature="0"/>
      </clipPath>
      <clipPath clipPathUnits="userSpaceOnUse" id="1282259852417-clipPath1">
        <path d="m 185.4332,355.1148 c -17.2784,0 -31.2853,14.0069 -31.2853,31.2853 0,17.2785 14.0069,31.2854 31.2853,31.2854 17.2784,0 31.2853,-14.0069 31.2853,-31.2854 0,-17.2784 -14.0069,-31.2853 -31.2853,-31.2853 z" id="path33" inkscape:connector-curvature="0"/>
      </clipPath>
      <clipPath clipPathUnits="userSpaceOnUse" id="1282259852894-clipPath1">
        <path d="m 332.1162,397.6362 c -18.1025,0 -32.7775,14.675 -32.7775,32.7775 0,18.1024 14.675,32.7774 32.7775,32.7774 18.1025,0 32.7774,-14.675 32.7774,-32.7774 0,-18.1025 -14.6749,-32.7775 -32.7774,-32.7775 z" id="path36" inkscape:connector-curvature="0"/>
      </clipPath>
      <clipPath clipPathUnits="userSpaceOnUse" id="1282259852418-clipPath1">
        <path d="m 419.6934,430.4166 c -18.1025,0 -32.7775,14.675 -32.7775,32.7775 0,18.1025 14.675,32.7775 32.7775,32.7775 18.1025,0 32.7775,-14.675 32.7775,-32.7775 0,-18.1025 -14.675,-32.7775 -32.7775,-32.7775 z" id="path39" inkscape:connector-curvature="0"/>
      </clipPath>
      <clipPath clipPathUnits="userSpaceOnUse" id="1282259852493-clipPath1">
        <path d="m -175.1519,-389.6704 800,0 0,600 -800,0 0,-600 z" id="path42" inkscape:connector-curvature="0"/>
      </clipPath>
      <clipPath clipPathUnits="userSpaceOnUse" id="1282259852184-clipPath1">
        <path d="m -245.9757,-264.6591 800,0 0,600 -800,0 0,-600 z" id="path45" inkscape:connector-curvature="0"/>
      </clipPath>
      <clipPath clipPathUnits="userSpaceOnUse" id="1282259852390-clipPath1">
        <path d="m -320.4861,-329.5728 800,0 0,600 -800,0 0,-600 z" id="path48" inkscape:connector-curvature="0"/>
      </clipPath>
      <clipPath clipPathUnits="userSpaceOnUse" id="1282259852445-clipPath1">
        <path d="m -394.0089,-454.5865 800,0 0,600 -800,0 0,-600 z" id="path51" inkscape:connector-curvature="0"/>
      </clipPath>
      <clipPath clipPathUnits="userSpaceOnUse" id="1282259852823-clipPath1">
        <path d="m -393.5099,-484.3511 800,0 0,600 -800,0 0,-600 z" id="path54" inkscape:connector-curvature="0"/>
      </clipPath>
      <clipPath clipPathUnits="userSpaceOnUse" id="1282259852991-clipPath1">
        <path d="m -537.0052,-537.9322 800,0 0,600 -800,0 0,-600 z" id="path57" inkscape:connector-curvature="0"/>
      </clipPath>
      <clipPath clipPathUnits="userSpaceOnUse" id="1282259852483-clipPath1">
        <path d="m -609.1847,-412.9233 800,0 0,600 -800,0 0,-600 z" id="path60" inkscape:connector-curvature="0"/>
      </clipPath>
    </defs>
    <g id="g62" style="text-rendering:geometricPrecision">
      <path d="m 116.2973,456.7221 25.7498,79.2598 c 0.3079,0.9477 1.3253,1.4661 2.273,1.1582 0.9477,-0.3079 1.4661,-1.3253 1.1582,-2.273 l -25.7498,-79.2597 c -0.3079,-0.9477 -1.3253,-1.4661 -2.273,-1.1583 -0.9477,0.3079 -1.4661,1.3253 -1.1582,2.273 z" clip-path="url(#1282259852266-clipPath1)" id="path64" inkscape:connector-curvature="0" style="stroke:none"/>
    </g>
    <g id="g66" style="text-rendering:geometricPrecision">
      <path d="m 143.7627,537.2284 83.3409,0 c 0.9965,0 1.8039,-0.8074 1.8039,-1.8039 0,-0.9965 -0.8074,-1.8039 -1.8039,-1.8039 l -83.3409,0 c -0.9964,0 -1.8039,0.8074 -1.8039,1.8039 0,0.9965 0.8075,1.8039 1.8039,1.8039 z" clip-path="url(#1282259852266-clipPath1)" id="path68" inkscape:connector-curvature="0" style="stroke:none"/>
    </g>
    <g id="g70" style="text-rendering:geometricPrecision">
      <path d="m 228.8192,535.9819 25.7498,-79.2598 c 0.3079,-0.9477 -0.2105,-1.9651 -1.1582,-2.2729 -0.9477,-0.3079 -1.9651,0.2105 -2.273,1.1582 l -25.7498,79.2597 c -0.3079,0.9477 0.2105,1.9651 1.1582,2.273 0.9477,0.3079 1.9652,-0.2105 2.273,-1.1582 z" clip-path="url(#1282259852266-clipPath1)" id="path72" inkscape:connector-curvature="0" style="stroke:none"/>
    </g>
    <g id="g74" style="text-rendering:geometricPrecision">
      <path d="m 186.3351,322.2673 -72.1753,-41.6704 c -0.863,-0.4983 -1.966,-0.2027 -2.4642,0.6602 -0.4982,0.863 -0.2027,1.966 0.6603,2.4642 l 72.1753,41.6705 c 0.863,0.4982 1.9659,0.2027 2.4642,-0.6603 0.4982,-0.863 0.2027,-1.966 -0.6603,-2.4642 z" clip-path="url(#1282259852266-clipPath1)" id="path76" inkscape:connector-curvature="0" style="stroke:none"/>
    </g>
    <g id="g78" style="text-rendering:geometricPrecision">
      <path d="m 115.0617,282.1591 0,-83.3409 c 0,-0.9965 -0.8074,-1.8039 -1.8039,-1.8039 -0.9964,0 -1.8039,0.8074 -1.8039,1.8039 l 0,83.3409 c 0,0.9964 0.8075,1.8039 1.8039,1.8039 0.9965,0 1.8039,-0.8075 1.8039,-1.8039 z" clip-path="url(#1282259852266-clipPath1)" id="path80" inkscape:connector-curvature="0" style="stroke:none"/>
    </g>
    <g id="g82" style="text-rendering:geometricPrecision">
      <path d="m 187.2312,157.15 0.002,-83.351 c 0,-0.9965 -0.8074,-1.8039 -1.8039,-1.804 -0.9964,0 -1.8039,0.8074 -1.8039,1.8039 l -0.002,83.351 c -1e-4,0.9964 0.8073,1.8039 1.8038,1.8039 0.9965,1e-4 1.8039,-0.8074 1.804,-1.8038 z" clip-path="url(#1282259852266-clipPath1)" id="path84" inkscape:connector-curvature="0" style="stroke:none"/>
    </g>
    <g id="g86" style="text-rendering:geometricPrecision">
      <path d="m 167.9327,83.1372 c 0.8629,0.4983 1.9659,0.2028 2.4642,-0.6601 0.4983,-0.8629 0.2028,-1.9659 -0.6601,-2.4642 L 115.7261,48.8245 c -0.863,-0.4983 -1.966,-0.2028 -2.4643,0.6601 -0.4983,0.8629 -0.2028,1.9659 0.6601,2.4642 z m 16.595,-7.7761 c 0.8629,0.4983 1.9659,0.2028 2.4642,-0.6601 0.4983,-0.8629 0.2029,-1.9659 -0.6601,-2.4642 L 114.1649,30.5641 c -0.8629,-0.4983 -1.9659,-0.2028 -2.4642,0.6601 -0.4983,0.863 -0.2028,1.966 0.6601,2.4642 z" clip-path="url(#1282259852266-clipPath1)" id="path88" inkscape:connector-curvature="0" style="stroke:none"/>
    </g>
    <g id="g90" style="text-rendering:geometricPrecision">
      <path d="M 112.361,30.564 40.1815,72.2323 c -0.863,0.4982 -1.1586,1.6011 -0.6604,2.4641 0.4982,0.863 1.6011,1.1586 2.4641,0.6604 l 72.1796,-41.6682 c 0.8629,-0.4982 1.1585,-1.6012 0.6603,-2.4642 -0.4981,-0.863 -1.6011,-1.1586 -2.4641,-0.6604 z" clip-path="url(#1282259852266-clipPath1)" id="path92" inkscape:connector-curvature="0" style="stroke:none"/>
    </g>
    <g id="g94" style="text-rendering:geometricPrecision">
      <path d="m 57.9195,84.2782 c 1e-4,-0.9964 -0.8073,-1.8039 -1.8038,-1.8039 -0.9965,-1e-4 -1.8039,0.8073 -1.8039,1.8038 l -0.0019,62.3847 c -10e-5,0.9965 0.8073,1.8039 1.8038,1.8039 0.9965,1e-4 1.8039,-0.8073 1.804,-1.8038 z M 42.8872,73.7946 c 1e-4,-0.9965 -0.8073,-1.8039 -1.8038,-1.8039 -0.9965,-1e-4 -1.8039,0.8073 -1.8039,1.8038 l -0.0026,83.351 c 0,0.9965 0.8074,1.8039 1.8039,1.8039 0.9964,1e-4 1.8039,-0.8073 1.8039,-1.8038 z" clip-path="url(#1282259852266-clipPath1)" id="path96" inkscape:connector-curvature="0" style="stroke:none"/>
    </g>
    <g id="g98" style="text-rendering:geometricPrecision">
      <path d="m 113.9181,178.9957 c -0.863,0.4983 -1.1585,1.6012 -0.6603,2.4642 0.4983,0.8629 1.6013,1.1585 2.4642,0.6602 l 54.0127,-31.1851 c 0.8629,-0.4982 1.1584,-1.6012 0.6602,-2.4642 -0.4982,-0.8629 -1.6012,-1.1585 -2.4642,-0.6602 z m -1.5622,18.2603 c -0.863,0.4982 -1.1585,1.6012 -0.6603,2.4642 0.4983,0.8629 1.6012,1.1584 2.4642,0.6602 l 72.1694,-41.6683 c 0.863,-0.4982 1.1585,-1.6012 0.6603,-2.4641 -0.4983,-0.863 -1.6013,-1.1585 -2.4642,-0.6603 z" clip-path="url(#1282259852266-clipPath1)" id="path100" inkscape:connector-curvature="0" style="stroke:none"/>
    </g>
    <g id="g102" style="text-rendering:geometricPrecision">
      <path d="m 40.1789,158.7078 72.177,41.6726 c 0.8629,0.4982 1.9659,0.2027 2.4641,-0.6602 0.4983,-0.863 0.2028,-1.966 -0.6602,-2.4642 l -72.177,-41.6727 c -0.863,-0.4982 -1.9659,-0.2027 -2.4642,0.6603 -0.4982,0.8629 -0.2027,1.9659 0.6603,2.4642 z" clip-path="url(#1282259852266-clipPath1)" id="path104" inkscape:connector-curvature="0" style="stroke:none"/>
    </g>
    <g id="g106" style="text-rendering:geometricPrecision">
      <path d="m 253.4108,457.8804 79.2628,-25.7511 c 0.9476,-0.3079 1.4661,-1.3253 1.1582,-2.273 -0.3079,-0.9477 -1.3253,-1.4662 -2.273,-1.1583 l -79.2627,25.7512 c -0.9478,0.3078 -1.4662,1.3252 -1.1583,2.2729 0.3079,0.9478 1.3253,1.4662 2.273,1.1583 z" clip-path="url(#1282259852266-clipPath1)" id="path108" inkscape:connector-curvature="0" style="stroke:none"/>
    </g>
    <g id="g110" style="text-rendering:geometricPrecision">
      <path d="m 475.5648,431.9807 72.174,41.6728 c 0.8629,0.4983 1.9659,0.2028 2.4642,-0.6602 0.4982,-0.8629 0.2028,-1.9659 -0.6602,-2.4642 l -72.174,-41.6728 c -0.8629,-0.4983 -1.9659,-0.2028 -2.4641,0.6601 -0.4983,0.863 -0.2028,1.966 0.6601,2.4643 z" clip-path="url(#1282259852266-clipPath1)" id="path112" inkscape:connector-curvature="0" style="stroke:none"/>
    </g>
    <g id="g114" style="fill:#ff0000;stroke:#ff0000;text-rendering:geometricPrecision">
      <path d="m 557.9611,467.7521 c 10e-5,-0.9965 -0.8074,-1.8039 -1.8038,-1.804 -0.9965,0 -1.8039,0.8074 -1.804,1.8039 l -0.002,66.5097 c 0,0.9965 0.8074,1.804 1.8039,1.804 0.9964,0 1.8039,-0.8074 1.8039,-1.8039 z m -15.0326,-5e-4 c 10e-5,-0.9965 -0.8073,-1.8039 -1.8038,-1.804 -0.9965,0 -1.804,0.8074 -1.804,1.8039 l -0.002,66.5097 c 0,0.9965 0.8074,1.8039 1.8039,1.804 0.9964,0 1.8039,-0.8074 1.8039,-1.8038 z" clip-path="url(#1282259852266-clipPath1)" id="path116" inkscape:connector-curvature="0" style="stroke:none"/>
      <path d="m 557.9611,467.7521 c 10e-5,-0.9965 -0.8074,-1.8039 -1.8038,-1.804 -0.9965,0 -1.8039,0.8074 -1.804,1.8039 l -0.002,66.5097 c 0,0.9965 0.8074,1.804 1.8039,1.804 0.9964,0 1.8039,-0.8074 1.8039,-1.8039 z m -15.0326,-5e-4 c 10e-5,-0.9965 -0.8073,-1.8039 -1.8038,-1.804 -0.9965,0 -1.804,0.8074 -1.804,1.8039 l -0.002,66.5097 c 0,0.9965 0.8074,1.8039 1.8039,1.804 0.9964,0 1.8039,-0.8074 1.8039,-1.8038 z" clip-path="url(#1282259852152-clipPath1)" id="path118" inkscape:connector-curvature="0" style="fill:#000000;stroke:none"/>
    </g>
    <g id="g120" style="fill:#ff0000;stroke:#ff0000;text-rendering:geometricPrecision">
      <path d="m 549.5427,473.6536 55.0752,-31.7953 c 0.8629,-0.4982 1.1585,-1.6011 0.6603,-2.4641 -0.4982,-0.863 -1.6011,-1.1586 -2.4641,-0.6604 l -55.0752,31.7953 c -0.863,0.4982 -1.1586,1.6011 -0.6603,2.4641 0.4981,0.863 1.6011,1.1586 2.4641,0.6604 z" clip-path="url(#1282259852266-clipPath1)" id="path122" inkscape:connector-curvature="0" style="stroke:none"/>
      <path d="m 549.5427,473.6536 55.0752,-31.7953 c 0.8629,-0.4982 1.1585,-1.6011 0.6603,-2.4641 -0.4982,-0.863 -1.6011,-1.1586 -2.4641,-0.6604 l -55.0752,31.7953 c -0.863,0.4982 -1.1586,1.6011 -0.6603,2.4641 0.4981,0.863 1.6011,1.1586 2.4641,0.6604 z" clip-path="url(#1282259852403-clipPath1)" id="path124" inkscape:connector-curvature="0" style="fill:#000000;stroke:none"/>
    </g>
    <g id="g126" style="text-rendering:geometricPrecision">
      <path d="m 637.0166,441.8595 55.0729,31.7988 c 0.8629,0.4983 1.9659,0.2028 2.4641,-0.6602 0.4983,-0.8629 0.2028,-1.9659 -0.6602,-2.4642 l -55.0728,-31.7988 c -0.863,-0.4982 -1.9659,-0.2027 -2.4642,0.6603 -0.4982,0.8629 -0.2028,1.9659 0.6602,2.4641 z" clip-path="url(#1282259852266-clipPath1)" id="path128" inkscape:connector-curvature="0" style="stroke:none"/>
      <path d="m 637.0166,441.8595 55.0729,31.7988 c 0.8629,0.4983 1.9659,0.2028 2.4641,-0.6602 0.4983,-0.8629 0.2028,-1.9659 -0.6602,-2.4642 l -55.0728,-31.7988 c -0.863,-0.4982 -1.9659,-0.2027 -2.4642,0.6603 -0.4982,0.8629 -0.2028,1.9659 0.6602,2.4641 z" clip-path="url(#1282259852666-clipPath1)" id="path130" inkscape:connector-curvature="0" style="fill:#ff0000;stroke:none"/>
    </g>
    <g id="g132" style="fill:#ff0000;stroke:#ff0000;text-rendering:geometricPrecision">
      <path d="m 322.7959,432.8555 c 0,0.9965 0.8074,1.804 1.8038,1.804 0.9965,0 1.804,-0.8074 1.804,-1.8038 l 0.002,-64.0656 c 10e-5,-0.9965 -0.8074,-1.8039 -1.8038,-1.804 -0.9965,0 -1.8039,0.8074 -1.804,1.8039 z m 15.0326,1.8979 c -1e-4,0.9964 0.8073,1.8039 1.8038,1.8039 0.9965,10e-5 1.8039,-0.8073 1.8039,-1.8038 l 0.002,-65.9629 c 1e-4,-0.9964 -0.8073,-1.8039 -1.8038,-1.8039 -0.9965,-10e-5 -1.8039,0.8073 -1.804,1.8038 z" clip-path="url(#1282259852266-clipPath1)" id="path134" inkscape:connector-curvature="0" style="stroke:none"/>
      <path d="m 322.7959,432.8555 c 0,0.9965 0.8074,1.804 1.8038,1.804 0.9965,0 1.804,-0.8074 1.804,-1.8038 l 0.002,-64.0656 c 10e-5,-0.9965 -0.8074,-1.8039 -1.8038,-1.804 -0.9965,0 -1.8039,0.8074 -1.804,1.8039 z m 15.0326,1.8979 c -1e-4,0.9964 0.8073,1.8039 1.8038,1.8039 0.9965,10e-5 1.8039,-0.8073 1.8039,-1.8038 l 0.002,-65.9629 c 1e-4,-0.9964 -0.8073,-1.8039 -1.8038,-1.8039 -0.9965,-10e-5 -1.8039,0.8073 -1.804,1.8038 z" clip-path="url(#1282259852693-clipPath1)" id="path136" inkscape:connector-curvature="0" style="fill:#000000;stroke:none"/>
    </g>
    <g id="g138" style="fill:#ff0000;stroke:#ff0000;text-rendering:geometricPrecision">
      <path d="m 177.0149,317.9278 c -0.863,0.4982 -1.1585,1.6012 -0.6603,2.4641 0.4983,0.863 1.6012,1.1585 2.4642,0.6603 l 58.3866,-33.7095 c 0.8629,-0.4982 1.1584,-1.6012 0.6602,-2.4642 -0.4982,-0.8629 -1.6012,-1.1584 -2.4642,-0.6602 z m 7.5163,13.0186 c -0.8629,0.4982 -1.1585,1.6012 -0.6603,2.4642 0.4983,0.8629 1.6013,1.1585 2.4642,0.6602 l 58.3865,-33.7094 c 0.863,-0.4983 1.1586,-1.6013 0.6603,-2.4642 -0.4982,-0.863 -1.6012,-1.1585 -2.4641,-0.6603 z" clip-path="url(#1282259852266-clipPath1)" id="path140" inkscape:connector-curvature="0" style="stroke:none"/>
      <path d="m 177.0149,317.9278 c -0.863,0.4982 -1.1585,1.6012 -0.6603,2.4641 0.4983,0.863 1.6012,1.1585 2.4642,0.6603 l 58.3866,-33.7095 c 0.8629,-0.4982 1.1584,-1.6012 0.6602,-2.4642 -0.4982,-0.8629 -1.6012,-1.1584 -2.4642,-0.6602 z m 7.5163,13.0186 c -0.8629,0.4982 -1.1585,1.6012 -0.6603,2.4642 0.4983,0.8629 1.6013,1.1585 2.4642,0.6602 l 58.3865,-33.7094 c 0.863,-0.4983 1.1586,-1.6013 0.6603,-2.4642 -0.4982,-0.863 -1.6012,-1.1585 -2.4641,-0.6603 z" clip-path="url(#1282259852657-clipPath1)" id="path142" inkscape:connector-curvature="0" style="fill:#000000;stroke:none"/>
    </g>
    <g id="g144" style="text-rendering:geometricPrecision">
      <path d="m 169.6621,416.4014 -52.7096,38.3041 c -0.8061,0.5858 -0.9847,1.7136 -0.3989,2.5197 0.5858,0.8061 1.7137,0.9846 2.5198,0.3989 l 52.7096,-38.3042 c 0.8061,-0.5858 0.9846,-1.7136 0.3988,-2.5197 -0.5858,-0.8061 -1.7136,-0.9846 -2.5197,-0.3988 z" clip-path="url(#1282259852266-clipPath1)" id="path146" inkscape:connector-curvature="0" style="stroke:none"/>
      <path d="m 169.6621,416.4014 -52.7096,38.3041 c -0.8061,0.5858 -0.9847,1.7136 -0.3989,2.5197 0.5858,0.8061 1.7137,0.9846 2.5198,0.3989 l 52.7096,-38.3042 c 0.8061,-0.5858 0.9846,-1.7136 0.3988,-2.5197 -0.5858,-0.8061 -1.7136,-0.9846 -2.5197,-0.3988 z" clip-path="url(#128225985250-clipPath1)" id="path148" inkscape:connector-curvature="0" style="fill:#333399;stroke:none"/>
    </g>
    <g id="g150" style="text-rendering:geometricPrecision">
      <path d="m 199.0833,419.3199 52.7097,38.3042 c 0.8061,0.5857 1.9339,0.4072 2.5197,-0.3989 0.5858,-0.8061 0.4073,-1.9339 -0.3988,-2.5197 l -52.7097,-38.3041 c -0.8061,-0.5858 -1.9339,-0.4073 -2.5197,0.3988 -0.5858,0.8061 -0.4073,1.9339 0.3988,2.5197 z" clip-path="url(#1282259852266-clipPath1)" id="path152" inkscape:connector-curvature="0" style="stroke:none"/>
      <path d="m 199.0833,419.3199 52.7097,38.3042 c 0.8061,0.5857 1.9339,0.4072 2.5197,-0.3989 0.5858,-0.8061 0.4073,-1.9339 -0.3988,-2.5197 l -52.7097,-38.3041 c -0.8061,-0.5858 -1.9339,-0.4073 -2.5197,0.3988 -0.5858,0.8061 -0.4073,1.9339 0.3988,2.5197 z" clip-path="url(#1282259852410-clipPath1)" id="path154" inkscape:connector-curvature="0" style="fill:#333399;stroke:none"/>
    </g>
    <g id="g156" style="text-rendering:geometricPrecision">
      <path d="m 187.2371,386.4001 0,-62.5706 c 0,-0.9964 -0.8075,-1.8039 -1.8039,-1.8039 -0.9965,0 -1.8039,0.8075 -1.8039,1.8039 l 0,62.5706 c 0,0.9965 0.8074,1.8039 1.8039,1.8039 0.9964,0 1.8039,-0.8074 1.8039,-1.8039 z" clip-path="url(#1282259852266-clipPath1)" id="path158" inkscape:connector-curvature="0" style="stroke:none"/>
      <path d="m 187.2371,386.4001 0,-62.5706 c 0,-0.9964 -0.8075,-1.8039 -1.8039,-1.8039 -0.9965,0 -1.8039,0.8075 -1.8039,1.8039 l 0,62.5706 c 0,0.9965 0.8074,1.8039 1.8039,1.8039 0.9964,0 1.8039,-0.8074 1.8039,-1.8039 z" clip-path="url(#1282259852417-clipPath1)" id="path160" inkscape:connector-curvature="0" style="fill:#333399;stroke:none"/>
    </g>
    <g id="g162" style="fill:#333399;stroke:#333399;text-rendering:geometricPrecision">
      <path d="m 331.2142,431.9759 56.7711,32.7793 c 0.8629,0.4982 1.9659,0.2027 2.4642,-0.6602 0.4982,-0.863 0.2027,-1.966 -0.6602,-2.4642 l -56.7711,-32.7793 c -0.863,-0.4983 -1.966,-0.2028 -2.4642,0.6602 -0.4983,0.8629 -0.2028,1.9659 0.6602,2.4642 z" clip-path="url(#1282259852266-clipPath1)" id="path164" inkscape:connector-curvature="0" style="stroke:none"/>
      <path d="m 331.2142,431.9759 56.7711,32.7793 c 0.8629,0.4982 1.9659,0.2027 2.4642,-0.6602 0.4982,-0.863 0.2027,-1.966 -0.6602,-2.4642 l -56.7711,-32.7793 c -0.863,-0.4983 -1.966,-0.2028 -2.4642,0.6602 -0.4983,0.8629 -0.2028,1.9659 0.6602,2.4642 z" clip-path="url(#1282259852894-clipPath1)" id="path166" inkscape:connector-curvature="0" style="fill:#000000;stroke:none"/>
    </g>
    <g id="g168" style="text-rendering:geometricPrecision">
      <path d="m 420.5953,464.7563 56.7734,-32.7756 c 0.863,-0.4982 1.1586,-1.6012 0.6604,-2.4641 -0.4982,-0.863 -1.6012,-1.1586 -2.4642,-0.6604 l -56.7734,32.7757 c -0.863,0.4982 -1.1586,1.6011 -0.6604,2.4641 0.4983,0.863 1.6012,1.1585 2.4642,0.6603 z" clip-path="url(#1282259852266-clipPath1)" id="path170" inkscape:connector-curvature="0" style="stroke:none"/>
      <path d="m 420.5953,464.7563 56.7734,-32.7756 c 0.863,-0.4982 1.1586,-1.6012 0.6604,-2.4641 -0.4982,-0.863 -1.6012,-1.1586 -2.4642,-0.6604 l -56.7734,32.7757 c -0.863,0.4982 -1.1586,1.6011 -0.6604,2.4641 0.4983,0.863 1.6012,1.1585 2.4642,0.6603 z" clip-path="url(#1282259852418-clipPath1)" id="path172" inkscape:connector-curvature="0" style="fill:#333399;stroke:none"/>
    </g>
    <g id="g174" style="text-rendering:geometricPrecision">
      <path d="m 693.8934,473.6584 65.9276,-38.0605 c 0.863,-0.4982 1.1586,-1.6012 0.6604,-2.4641 -0.4982,-0.863 -1.6012,-1.1586 -2.4641,-0.6604 l -65.9278,38.0605 c -0.8629,0.4982 -1.1585,1.6011 -0.6603,2.4641 0.4982,0.863 1.6012,1.1586 2.4642,0.6604 z" clip-path="url(#1282259852266-clipPath1)" id="path176" inkscape:connector-curvature="0" style="stroke:none"/>
    </g>
    <g id="g178" style="fill:#ffffff;stroke:#ffffff;text-rendering:geometricPrecision">
      <path d="m 183.9293,393.6157 c -3.7431,0 -6.7774,3.0344 -6.7774,6.7774 l 0,13.5547 c 0,3.743 3.0343,6.7773 6.7774,6.7773 l 3.0078,0 c 3.743,0 6.7773,-3.0343 6.7773,-6.7773 l 0,-13.5547 c 0,-3.743 -3.0343,-6.7774 -6.7773,-6.7774 z" clip-path="url(#1282259852266-clipPath1)" id="path180" inkscape:connector-curvature="0" style="stroke:none"/>
    </g>
    <g font-size="29px" transform="translate(175.1519,389.6704)" id="g182" style="font-size:29px;font-family:sans-serif;fill:#333399;stroke:#333399;text-rendering:geometricPrecision">
      <text x="0" xml:space="preserve" y="28" clip-path="url(#1282259852493-clipPath1)" id="text184" style="stroke:none">N</text>
    </g>
    <g font-size="29px" id="g186" style="font-size:29px;font-family:sans-serif;fill:#ffffff;stroke:#ffffff;text-rendering:geometricPrecision">
      <path d="m 254.5899,268.204 c -3.9291,0 -7.1142,3.1852 -7.1142,7.1143 l 0,14.2285 c 0,3.9291 3.1851,7.1142 7.1142,7.1142 l 6.0371,0 c 3.9292,0 7.1143,-3.1851 7.1143,-7.1142 l 0,-14.2285 c 0,-3.9291 -3.1851,-7.1143 -7.1143,-7.1143 z" clip-path="url(#1282259852266-clipPath1)" id="path188" inkscape:connector-curvature="0" style="stroke:none"/>
      <text x="0" y="28" transform="translate(245.9757,264.6591)" clip-path="url(#1282259852184-clipPath1)" xml:space="preserve" id="text190" style="fill:#ff0000;stroke:none">O</text>
    </g>
    <g font-size="29px" id="g192" style="font-size:29px;font-family:sans-serif;fill:#ffffff;stroke:#ffffff;text-rendering:geometricPrecision">
      <path d="m 329.1004,333.1177 c -3.9291,0 -7.1143,3.1852 -7.1143,7.1142 l 0,14.2285 c 0,3.9292 3.1852,7.1143 7.1143,7.1143 l 6.0371,0 c 3.9291,0 7.1143,-3.1851 7.1143,-7.1143 l 0,-14.2285 c 0,-3.929 -3.1852,-7.1142 -7.1143,-7.1142 z" clip-path="url(#1282259852266-clipPath1)" id="path194" inkscape:connector-curvature="0" style="stroke:none"/>
      <text x="0" y="28" transform="translate(320.4861,329.5728)" clip-path="url(#1282259852390-clipPath1)" xml:space="preserve" id="text196" style="fill:#ff0000;stroke:none">O</text>
    </g>
    <g font-size="29px" id="g198" style="font-size:29px;font-family:sans-serif;fill:#ffffff;stroke:#ffffff;text-rendering:geometricPrecision">
      <path d="m 402.7862,458.5318 c -3.743,0 -6.7773,3.0343 -6.7773,6.7774 l 0,13.5547 c 0,3.743 3.0343,6.7773 6.7773,6.7773 l 3.0078,0 c 3.743,0 6.7774,-3.0343 6.7774,-6.7773 l 0,-13.5547 c 0,-3.7431 -3.0344,-6.7774 -6.7774,-6.7774 z m 10e-4,29.7646 c -3.743,0 -6.7773,3.0343 -6.7773,6.7774 l 0,13.5546 c 0,3.7431 3.0343,6.7774 6.7773,6.7774 l 2.9141,0 c 3.743,0 6.7773,-3.0343 6.7773,-6.7774 l 0,-13.5546 c 0,-3.7431 -3.0343,-6.7774 -6.7773,-6.7774 z" clip-path="url(#1282259852266-clipPath1)" id="path200" inkscape:connector-curvature="0" style="stroke:none"/>
      <text x="0" y="28" transform="translate(394.0089,454.5865)" clip-path="url(#1282259852445-clipPath1)" xml:space="preserve" id="text202" style="fill:#333399;stroke:none">N</text>
    </g>
    <g font-size="29px" transform="translate(393.5099,484.3511)" id="g204" style="font-size:29px;font-family:sans-serif;fill:#333399;stroke:#333399;text-rendering:geometricPrecision">
      <text x="0" xml:space="preserve" y="28" clip-path="url(#1282259852823-clipPath1)" id="text206" style="stroke:none">H</text>
    </g>
    <g font-size="29px" id="g208" style="font-size:29px;font-family:sans-serif;fill:#ffffff;stroke:#ffffff;text-rendering:geometricPrecision">
      <path d="m 545.6194,541.4771 c -3.929,0 -7.1142,3.1852 -7.1142,7.1143 l 0,14.2285 c 0,3.9291 3.1852,7.1142 7.1142,7.1142 l 6.0372,0 c 3.9291,0 7.1142,-3.1851 7.1142,-7.1142 l 0,-14.2285 c 0,-3.9291 -3.1851,-7.1143 -7.1142,-7.1143 z" clip-path="url(#1282259852266-clipPath1)" id="path210" inkscape:connector-curvature="0" style="stroke:none"/>
      <text x="0" y="28" transform="translate(537.0052,537.9322)" clip-path="url(#1282259852991-clipPath1)" xml:space="preserve" id="text212" style="fill:#ff0000;stroke:none">O</text>
    </g>
    <g font-size="29px" id="g214" style="font-size:29px;font-family:sans-serif;fill:#ffffff;stroke:#ffffff;text-rendering:geometricPrecision">
      <path d="m 617.799,416.4682 c -3.9291,0 -7.1143,3.1852 -7.1143,7.1143 l 0,14.2285 c 0,3.9291 3.1852,7.1142 7.1143,7.1142 l 6.0371,0 c 3.929,0 7.1142,-3.1851 7.1142,-7.1142 l 0,-14.2285 c 0,-3.9291 -3.1852,-7.1143 -7.1142,-7.1143 z" clip-path="url(#1282259852266-clipPath1)" id="path216" inkscape:connector-curvature="0" style="stroke:none"/>
      <text x="0" y="28" transform="translate(609.1847,412.9233)" clip-path="url(#1282259852483-clipPath1)" xml:space="preserve" id="text218" style="fill:#ff0000;stroke:none">O</text>
    </g>
  </g>
</svg>