<?xml version="1.0" encoding="UTF-8" standalone="no"?>
<svg xmlns:dc="http://purl.org/dc/elements/1.1/" xmlns:cc="http://creativecommons.org/ns#" xmlns:rdf="http://www.w3.org/1999/02/22-rdf-syntax-ns#" xmlns:svg="http://www.w3.org/2000/svg" xmlns="http://www.w3.org/2000/svg" xmlns:sodipodi="http://sodipodi.sourceforge.net/DTD/sodipodi-0.dtd" xmlns:inkscape="http://www.inkscape.org/namespaces/inkscape" width="610.64087" stroke-miterlimit="10" font-weight="normal" height="269.82291" font-style="normal" font-size="12px" id="svg2" version="1.1" inkscape:version="0.91 r13725" sodipodi:docname="Pregabalin.svg" style="font-style:normal;font-weight:normal;font-size:12px;font-family:Dialog;color-interpolation:auto;fill:#000000;fill-opacity:1;stroke:#000000;stroke-width:1;stroke-linecap:square;stroke-linejoin:miter;stroke-miterlimit:10;stroke-dasharray:none;stroke-dashoffset:0;stroke-opacity:1;color-rendering:auto;image-rendering:auto;shape-rendering:auto;text-rendering:auto">
  <metadata id="metadata111">
    <rdf:RDF>
      <cc:Work rdf:about="">
        <dc:format>image/svg+xml</dc:format>
        <dc:type rdf:resource="http://purl.org/dc/dcmitype/StillImage"/>
        <dc:title/>
      </cc:Work>
    </rdf:RDF>
  </metadata>
  <sodipodi:namedview pagecolor="#ffffff" bordercolor="#666666" borderopacity="1" objecttolerance="10" gridtolerance="10" guidetolerance="10" inkscape:pageopacity="0" inkscape:pageshadow="2" inkscape:window-width="1060" inkscape:window-height="480" id="namedview109" showgrid="false" fit-margin-top="10" fit-margin-left="10" fit-margin-right="10" fit-margin-bottom="10" inkscape:zoom="0.36375" inkscape:cx="305.15576" inkscape:cy="-1.5228" inkscape:window-x="0" inkscape:window-y="0" inkscape:window-maximized="0" inkscape:current-layer="svg2"/>
  <!--Generated by Marvin with Batik SVG Generator-->
  <defs id="genericDefs"/>
  <g id="g5" transform="translate(-94.84424,-28.6543)">
    <defs id="6439401377-defs1">
      <clipPath clipPathUnits="userSpaceOnUse" id="6439401982-clipPath1">
        <path d="M 0,0 800,0 800,600 0,600 0,0 Z" id="path9" inkscape:connector-curvature="0"/>
      </clipPath>
      <clipPath clipPathUnits="userSpaceOnUse" id="6439401586-clipPath1">
        <path d="m 563.0669,175.4156 c -22.7138,0 -41.1269,18.4131 -41.1269,41.1269 0,22.7138 18.4131,41.1269 41.1269,41.1269 22.7137,0 41.1269,-18.4131 41.1269,-41.1269 0,-22.7138 -18.4132,-41.1269 -41.1269,-41.1269 z" id="path12" inkscape:connector-curvature="0"/>
      </clipPath>
      <clipPath clipPathUnits="userSpaceOnUse" id="643940159-clipPath1">
        <path d="m 563.0669,176.7907 c -21.9544,0 -39.7518,17.7975 -39.7518,39.7518 0,21.9543 17.7974,39.7518 39.7518,39.7518 21.9543,0 39.7518,-17.7975 39.7518,-39.7518 0,-21.9543 -17.7975,-39.7518 -39.7518,-39.7518 z" id="path15" inkscape:connector-curvature="0"/>
      </clipPath>
      <clipPath clipPathUnits="userSpaceOnUse" id="6439401984-clipPath1">
        <path d="m 377.4961,67.1611 c -23.3255,0 -42.2345,18.9091 -42.2345,42.2346 0,23.3255 18.909,42.2345 42.2345,42.2345 23.3255,0 42.2346,-18.909 42.2346,-42.2345 0,-23.3255 -18.9091,-42.2346 -42.2346,-42.2346 z" id="path18" inkscape:connector-curvature="0"/>
      </clipPath>
      <clipPath clipPathUnits="userSpaceOnUse" id="6439401901-clipPath1">
        <path d="m -548.2342,-86.4013 800,0 0,600 -800,0 0,-600 z" id="path21" inkscape:connector-curvature="0"/>
      </clipPath>
      <clipPath clipPathUnits="userSpaceOnUse" id="6439401875-clipPath1">
        <path d="m -640.0164,-247.1159 800.0001,0 0,600 -800.0001,0 0,-600 z" id="path24" inkscape:connector-curvature="0"/>
      </clipPath>
      <clipPath clipPathUnits="userSpaceOnUse" id="6439401714-clipPath1">
        <path d="m -233.3904,-32.8223 800,0 0,600 -800,0 0,-600 z" id="path27" inkscape:connector-curvature="0"/>
      </clipPath>
      <clipPath clipPathUnits="userSpaceOnUse" id="6439401545-clipPath1">
        <path d="m -256.2498,-52.532 800,0 0,600 -800,0 0,-600 z" id="path30" inkscape:connector-curvature="0"/>
      </clipPath>
      <clipPath clipPathUnits="userSpaceOnUse" id="6439401861-clipPath1">
        <path d="m -270.7185,-32.8223 799.9999,0 0,600 -799.9999,0 0,-600 z" id="path33" inkscape:connector-curvature="0"/>
      </clipPath>
    </defs>
    <g id="g35" style="text-rendering:geometricPrecision">
      <path d="m 376.3334,214.5285 -92.7886,53.5678 c -1.1094,0.6405 -1.4894,2.0584 -0.849,3.1678 0.6405,1.1095 2.0585,1.4894 3.1679,0.849 l 92.7886,-53.5678 c 1.1094,-0.6405 1.4895,-2.0585 0.849,-3.1679 -0.6405,-1.1094 -2.0585,-1.4894 -3.1679,-0.8489 z" clip-path="url(#6439401982-clipPath1)" id="path37" inkscape:connector-curvature="0" style="stroke:none"/>
    </g>
    <g id="g39" style="text-rendering:geometricPrecision">
      <path d="m 376.3333,218.5452 92.7854,53.5734 c 1.1094,0.6406 2.5273,0.2607 3.1679,-0.8487 0.6405,-1.1094 0.2606,-2.5274 -0.8488,-3.1679 l -92.7853,-53.5735 c -1.1094,-0.6405 -2.5274,-0.2606 -3.1679,0.8488 -0.6406,1.1094 -0.2607,2.5273 0.8487,3.1679 z" clip-path="url(#6439401982-clipPath1)" id="path41" inkscape:connector-curvature="0" style="stroke:none"/>
    </g>
    <g id="g43" style="text-rendering:geometricPrecision">
      <path d="m 471.4377,272.1187 92.7887,-53.5678 c 1.1094,-0.6405 1.4894,-2.0585 0.8489,-3.1679 -0.6405,-1.1094 -2.0585,-1.4894 -3.1679,-0.8489 l -92.7886,53.5678 c -1.1094,0.6405 -1.4894,2.0584 -0.8489,3.1678 0.6404,1.1095 2.0584,1.4895 3.1678,0.849 z" clip-path="url(#6439401982-clipPath1)" id="path45" inkscape:connector-curvature="0" style="stroke:none"/>
    </g>
    <g id="g47" style="fill:#ff0000;stroke:#ff0000;text-rendering:geometricPrecision">
      <path d="m 561.9073,218.5508 71.2327,41.1291 c 1.1093,0.6405 2.5273,0.2606 3.1679,-0.8488 0.6405,-1.1094 0.2606,-2.5273 -0.8488,-3.1679 l -71.2326,-41.129 c -1.1094,-0.6406 -2.5274,-0.2607 -3.1679,0.8487 -0.6406,1.1094 -0.2607,2.5274 0.8487,3.1679 z" clip-path="url(#6439401982-clipPath1)" id="path49" inkscape:connector-curvature="0" style="stroke:none"/>
      <path d="m 561.9073,218.5508 71.2327,41.1291 c 1.1093,0.6405 2.5273,0.2606 3.1679,-0.8488 0.6405,-1.1094 0.2606,-2.5273 -0.8488,-3.1679 l -71.2326,-41.129 c -1.1094,-0.6406 -2.5274,-0.2607 -3.1679,0.8487 -0.6406,1.1094 -0.2607,2.5274 0.8487,3.1679 z" clip-path="url(#6439401586-clipPath1)" id="path51" inkscape:connector-curvature="0" style="fill:#000000;stroke:none"/>
    </g>
    <g id="g53" style="fill:#ff0000;stroke:#ff0000;text-rendering:geometricPrecision">
      <path d="m 551.0849,222.121 c -10e-5,1.281 1.0379,2.319 2.319,2.3191 1.281,0 2.3191,-1.038 2.3191,-2.319 l 0.003,-85.0825 c 10e-5,-1.281 -1.0379,-2.3191 -2.3189,-2.3191 -1.2811,-1e-4 -2.3191,1.0379 -2.3191,2.319 z m 19.3256,5e-4 c -10e-5,1.2811 1.0379,2.3191 2.3189,2.3192 1.2811,0 2.3191,-1.038 2.3192,-2.319 l 0.003,-85.0825 c 10e-5,-1.2811 -1.0379,-2.3191 -2.3189,-2.3191 -1.2811,-1e-4 -2.3191,1.0379 -2.3192,2.3189 z" clip-path="url(#6439401982-clipPath1)" id="path55" inkscape:connector-curvature="0" style="stroke:none"/>
      <path d="m 551.0849,222.121 c -10e-5,1.281 1.0379,2.319 2.319,2.3191 1.281,0 2.3191,-1.038 2.3191,-2.319 l 0.003,-85.0825 c 10e-5,-1.281 -1.0379,-2.3191 -2.3189,-2.3191 -1.2811,-1e-4 -2.3191,1.0379 -2.3191,2.319 z m 19.3256,5e-4 c -10e-5,1.2811 1.0379,2.3191 2.3189,2.3192 1.2811,0 2.3191,-1.038 2.3192,-2.319 l 0.003,-85.0825 c 10e-5,-1.2811 -1.0379,-2.3191 -2.3189,-2.3191 -1.2811,-1e-4 -2.3191,1.0379 -2.3192,2.3189 z" clip-path="url(#643940159-clipPath1)" id="path57" inkscape:connector-curvature="0" style="fill:#000000;stroke:none"/>
    </g>
    <g id="g59" style="text-rendering:geometricPrecision">
      <path d="m 285.8638,268.0963 -92.7854,-53.5734 c -1.1093,-0.6405 -2.5273,-0.2606 -3.1679,0.8488 -0.6405,1.1093 -0.2606,2.5273 0.8488,3.1679 l 92.7853,53.5734 c 1.1095,0.6405 2.5274,0.2606 3.168,-0.8487 0.6405,-1.1094 0.2606,-2.5274 -0.8488,-3.168 z" clip-path="url(#6439401982-clipPath1)" id="path61" inkscape:connector-curvature="0" style="stroke:none"/>
    </g>
    <g id="g63" style="text-rendering:geometricPrecision">
      <path d="m 375.0066,214.9131 0.1672,1.6237 2.3191,1e-4 2.319,0 0.1949,-1.6236 0,0 -5.0002,-2e-4 z m -1.5524,-15.074 0.4777,4.6381 0,0 7.3277,3e-4 0,0 0.5567,-4.6381 0,0 -8.3621,-3e-4 z m -1.5524,-15.0739 0.4777,4.6381 10.6895,3e-4 0.5568,-4.6381 0,0 -11.724,-3e-4 z m -1.5524,-15.074 0.4777,4.6381 14.0514,4e-4 0,0 0.5568,-4.6381 -15.0859,-4e-4 z m -1.5524,-15.074 0.4777,4.6381 17.4133,5e-4 0.5568,-4.638 -18.4478,-6e-4 z m -1.5524,-15.074 0.4777,4.6381 20.7752,7e-4 0.5568,-4.6381 -21.8097,-7e-4 z m -4.2424,-41.194 1.6153,15.6842 25.55,7e-4 -12.6713,-7.3162 -14.494,-8.3687 z m 2.69,26.12 0.4777,4.6382 0,0 24.1371,7e-4 0,0 0.5567,-4.6381 0,0 -25.1715,-8e-4 z" clip-path="url(#6439401982-clipPath1)" id="path65" inkscape:connector-curvature="0" style="stroke:none"/>
    </g>
    <g id="g67" style="fill:#333399;stroke:#333399;text-rendering:geometricPrecision">
      <path d="M 378.6557,107.3873 305.5046,65.1506 c -1.1094,-0.6406 -2.5274,-0.2607 -3.1679,0.8487 -0.6406,1.1094 -0.2607,2.5274 0.8487,3.1679 l 73.1511,42.2368 c 1.1094,0.6405 2.5274,0.2606 3.1679,-0.8487 0.6406,-1.1094 0.2607,-2.5274 -0.8487,-3.168 z" clip-path="url(#6439401982-clipPath1)" id="path69" inkscape:connector-curvature="0" style="stroke:none"/>
      <path d="M 378.6557,107.3873 305.5046,65.1506 c -1.1094,-0.6406 -2.5274,-0.2607 -3.1679,0.8487 -0.6406,1.1094 -0.2607,2.5274 0.8487,3.1679 l 73.1511,42.2368 c 1.1094,0.6405 2.5274,0.2606 3.1679,-0.8487 0.6406,-1.1094 0.2607,-2.5274 -0.8487,-3.168 z" clip-path="url(#6439401984-clipPath1)" id="path71" inkscape:connector-curvature="0" style="fill:#000000;stroke:none"/>
    </g>
    <g id="g73" style="text-rendering:geometricPrecision">
      <path d="m 194.2379,216.5313 0.003,-97.865 c 0,-1.281 -1.038,-2.3191 -2.319,-2.3191 -1.281,0 -2.3191,1.0379 -2.3191,2.319 l -0.003,97.865 c 0,1.281 1.038,2.3191 2.319,2.3191 1.281,0 2.3191,-1.038 2.3191,-2.319 z" clip-path="url(#6439401982-clipPath1)" id="path75" inkscape:connector-curvature="0" style="stroke:none"/>
    </g>
    <g id="g77" style="text-rendering:geometricPrecision">
      <path d="m 190.7594,214.5229 -84.7551,48.9299 c -1.1094,0.6405 -1.4894,2.0584 -0.8489,3.1678 0.6405,1.1095 2.0584,1.4894 3.1679,0.849 l 84.755,-48.93 c 1.1094,-0.6404 1.4894,-2.0584 0.8489,-3.1678 -0.6404,-1.1094 -2.0584,-1.4894 -3.1678,-0.8489 z" clip-path="url(#6439401982-clipPath1)" id="path79" inkscape:connector-curvature="0" style="stroke:none"/>
    </g>
    <g id="g81" style="fill:#ffffff;stroke:#ffffff;text-rendering:geometricPrecision">
      <path d="m 559.243,91.7275 c -4.9754,0 -9.0088,4.0333 -9.0088,9.0088 l 0,18.0175 c 0,4.9754 4.0334,9.0088 9.0088,9.0088 l 7.6543,0 c 4.9754,0 9.0088,-4.0334 9.0088,-9.0088 l 0,-18.0175 c 0,-4.9755 -4.0334,-9.0088 -9.0088,-9.0088 z" clip-path="url(#6439401982-clipPath1)" id="path83" inkscape:connector-curvature="0" style="stroke:none"/>
    </g>
    <g font-size="38px" transform="translate(548.2342,86.4013)" id="g85" style="font-size:38px;font-family:sans-serif;fill:#ff0000;stroke:#ff0000;text-rendering:geometricPrecision">
      <text x="0" xml:space="preserve" y="37" clip-path="url(#6439401901-clipPath1)" id="text87" style="stroke:none">O</text>
    </g>
    <g font-size="38px" id="g89" style="font-size:38px;font-family:sans-serif;fill:#ffffff;stroke:#ffffff;text-rendering:geometricPrecision">
      <path d="m 652.0251,252.4421 c -4.9754,0 -9.0087,4.0334 -9.0087,9.0088 l 0,18.0175 c 0,4.9755 4.0333,9.0088 9.0087,9.0088 l 34.4512,0 c 4.9754,0 9.0088,-4.0333 9.0088,-9.0088 l 0,-18.0175 c 0,-4.9754 -4.0334,-9.0088 -9.0088,-9.0088 z" clip-path="url(#6439401982-clipPath1)" id="path91" inkscape:connector-curvature="0" style="stroke:none"/>
      <text x="0" y="37" transform="translate(640.0163,247.1159)" clip-path="url(#6439401875-clipPath1)" xml:space="preserve" id="text93" style="fill:#ff0000;stroke:none">OH</text>
    </g>
    <g font-size="38px" id="g95" style="font-size:38px;font-family:sans-serif;fill:#ffffff;stroke:#ffffff;text-rendering:geometricPrecision">
      <path d="m 245.4744,38.6543 c -4.7408,0 -8.584,3.8432 -8.584,8.584 l 0,17.1679 c 0,4.7408 3.8432,8.584 8.584,8.584 l 3.6914,0 c 4.7408,0 8.584,-3.8432 8.584,-8.584 l 0,14.9198 c 0,4.8567 3.6867,8.7939 8.2344,8.7939 4.5477,0 8.2343,-3.9372 8.2343,-8.7939 l 0,-14.9198 c 0,4.7408 3.8432,8.584 8.584,8.584 l 3.8164,0 c 4.7408,0 8.584,-3.8432 8.584,-8.584 l 0,-17.1679 c 0,-4.7408 -3.8432,-8.584 -8.584,-8.584 l -3.8164,0 c -4.7408,0 -8.584,3.8432 -8.584,8.584 l 0,14.4998 c 0,-4.8568 -3.6866,-8.794 -8.2343,-8.794 -4.5477,0 -8.2344,3.9372 -8.2344,8.794 l 0,-14.4998 c 0,-4.7408 -3.8432,-8.584 -8.584,-8.584 z" clip-path="url(#6439401982-clipPath1)" id="path97" inkscape:connector-curvature="0" style="stroke:none"/>
      <text x="0" y="37" transform="translate(233.3904,32.8222)" clip-path="url(#6439401714-clipPath1)" xml:space="preserve" id="text99" style="fill:#333399;stroke:none">H</text>
    </g>
    <g font-size="30px" transform="translate(256.2498,52.532)" id="g101" style="font-size:30px;font-family:sans-serif;fill:#333399;stroke:#333399;text-rendering:geometricPrecision">
      <text x="0" xml:space="preserve" y="29" clip-path="url(#6439401545-clipPath1)" id="text103" style="stroke:none">2</text>
    </g>
    <g font-size="38px" transform="translate(270.7185,32.8222)" id="g105" style="font-size:38px;font-family:sans-serif;fill:#333399;stroke:#333399;text-rendering:geometricPrecision">
      <text x="0" xml:space="preserve" y="37" clip-path="url(#6439401861-clipPath1)" id="text107" style="stroke:none">N</text>
    </g>
  </g>
</svg>