<?xml version="1.0" encoding="UTF-8" standalone="no"?>
<svg color-interpolation="auto" color-rendering="auto" fill="#000000" fill-opacity="1" font-family="Dialog" font-size="12px" font-style="normal" font-weight="normal" height="447.284" image-rendering="auto" shape-rendering="auto" stroke="#000000" stroke-dasharray="none" stroke-dashoffset="0" stroke-linecap="square" stroke-linejoin="miter" stroke-miterlimit="10" stroke-opacity="1" stroke-width="1" text-rendering="auto" width="721.20605" version="1.1" id="svg26" xmlns="http://www.w3.org/2000/svg" xmlns:svg="http://www.w3.org/2000/svg">
  <!--Generated by Marvin with Batik SVG Generator-->
  <defs id="genericDefs"/>
  <g id="g26" transform="translate(-39.396999,-78.817001)">
    <defs id="9607399213-defs1">
      <clipPath clipPathUnits="userSpaceOnUse" id="9607399762-clipPath1">
        <path d="M 0,0 H 800 V 600 H 0 Z" id="path1"/>
      </clipPath>
      <clipPath clipPathUnits="userSpaceOnUse" id="9607399154-clipPath1">
        <path d="m 522.6794,255.9569 c -29.5662,0 -53.5344,23.9682 -53.5344,53.5344 0,29.5663 23.9682,53.5344 53.5344,53.5344 29.5662,0 53.5344,-23.9681 53.5344,-53.5344 0,-29.5662 -23.9682,-53.5344 -53.5344,-53.5344 z" id="path2"/>
      </clipPath>
      <clipPath clipPathUnits="userSpaceOnUse" id="9607399470-clipPath1">
        <path d="m 405.0972,191.1162 c -27.8843,0 -50.489,22.6047 -50.489,50.489 0,27.8843 22.6047,50.4891 50.489,50.4891 27.8843,0 50.489,-22.6048 50.489,-50.4891 0,-27.8843 -22.6047,-50.489 -50.489,-50.489 z" id="path3"/>
      </clipPath>
      <clipPath clipPathUnits="userSpaceOnUse" id="9607399836-clipPath1">
        <path d="m 665.1194,208.3001 c -26.3201,0 -47.6568,21.3367 -47.6568,47.6568 0,26.3202 21.3367,47.6569 47.6568,47.6569 26.3202,0 47.6569,-21.3367 47.6569,-47.6569 0,-26.3201 -21.3367,-47.6568 -47.6569,-47.6568 z" id="path4"/>
      </clipPath>
      <clipPath clipPathUnits="userSpaceOnUse" id="9607399650-clipPath1">
        <path d="m -622.5193,-164.6151 h 799.9999 v 600 h -799.9999 z" id="path5"/>
      </clipPath>
      <clipPath clipPathUnits="userSpaceOnUse" id="9607399477-clipPath1">
        <path d="m -622.0193,-213.1052 h 799.9999 v 600 h -799.9999 z" id="path6"/>
      </clipPath>
      <clipPath clipPathUnits="userSpaceOnUse" id="9607399816-clipPath1">
        <path d="m -385.4019,-77.333 h 800 v 600 h -800 z" id="path7"/>
      </clipPath>
    </defs>
    <g text-rendering="geometricPrecision" id="g8">
      <path clip-path="url(#9607399762-clipPath1)" d="m 259.011,324.7072 c 1.4056,0.8115 3.2029,0.3298 4.0144,-1.0758 0.8114,-1.4056 0.3298,-3.2029 -1.0759,-4.0144 l -87.9958,-50.7993 c -1.4056,-0.8115 -3.2029,-0.3298 -4.0144,1.0758 -0.8114,1.4056 -0.3298,3.2029 1.0758,4.0144 z m 27.0348,-12.6708 c 1.4056,0.8115 3.2029,0.3298 4.0144,-1.0758 0.8114,-1.4056 0.3297,-3.2029 -1.0759,-4.0144 L 171.408,239.0702 c -1.4057,-0.8114 -3.203,-0.3298 -4.0144,1.0759 -0.8115,1.4056 -0.3298,3.2029 1.0758,4.0143 z" stroke="none" id="path8"/>
    </g>
    <g text-rendering="geometricPrecision" id="g9">
      <path clip-path="url(#9607399762-clipPath1)" d="m 171.4081,244.1604 v 0 L 53.8116,312.0547 c -1.4055,0.8115 -3.2029,0.3299 -4.0144,-1.0757 -0.8115,-1.4055 -0.3299,-3.2029 1.0757,-4.0144 v 0 l 117.5964,-67.8943 c 1.4056,-0.8115 3.2029,-0.3299 4.0144,1.0757 0.8116,1.4055 0.33,3.2029 -1.0756,4.0144 z" stroke="none" id="path9"/>
    </g>
    <g text-rendering="geometricPrecision" id="g10">
      <path clip-path="url(#9607399762-clipPath1)" d="m 79.7702,326.5882 c 1e-4,-1.6231 -1.3156,-2.9389 -2.9386,-2.9389 -1.6231,-10e-5 -2.9388,1.3156 -2.9389,2.9386 l -0.0044,101.6063 c -1e-4,1.6231 1.3156,2.9389 2.9387,2.9389 1.623,10e-5 2.9388,-1.3156 2.9388,-2.9386 z M 55.281,309.5098 c 1e-4,-1.6231 -1.3156,-2.9388 -2.9386,-2.9389 -1.623,-10e-5 -2.9388,1.3156 -2.9389,2.9386 l -0.0058,135.7621 c -1e-4,1.6231 1.3156,2.9388 2.9386,2.9389 1.623,10e-5 2.9388,-1.3156 2.9389,-2.9386 z" stroke="none" id="path10"/>
    </g>
    <g text-rendering="geometricPrecision" id="g11">
      <path clip-path="url(#9607399762-clipPath1)" d="m 53.8059,442.7267 v 0 l 117.5845,67.8903 c 1.4056,0.8115 1.8872,2.6088 1.0756,4.0144 -0.8115,1.4056 -2.6089,1.8872 -4.0144,1.0756 v 0 L 50.867,447.8168 c -1.4056,-0.8116 -1.8871,-2.6089 -1.0756,-4.0145 0.8116,-1.4055 2.6089,-1.8871 4.0145,-1.0756 z" stroke="none" id="path11"/>
    </g>
    <g text-rendering="geometricPrecision" id="g12">
      <path clip-path="url(#9607399762-clipPath1)" d="m 170.9969,480.8689 c -1.4056,0.8115 -1.8872,2.6089 -1.0757,4.0144 0.8116,1.4056 2.6089,1.8872 4.0145,1.0757 l 88.0159,-50.816 c 1.4056,-0.8115 1.8872,-2.6089 1.0757,-4.0145 -0.8115,-1.4055 -2.6089,-1.8871 -4.0145,-1.0756 z m -2.5453,29.748 c -1.4056,0.8116 -1.8872,2.6089 -1.0757,4.0144 0.8116,1.4057 2.6089,1.8873 4.0145,1.0757 l 117.5964,-67.8943 c 1.4056,-0.8115 1.8872,-2.6088 1.0757,-4.0144 -0.8116,-1.4056 -2.6089,-1.8872 -4.0145,-1.0757 z" stroke="none" id="path12"/>
    </g>
    <g text-rendering="geometricPrecision" id="g13">
      <path clip-path="url(#9607399762-clipPath1)" d="m 284.5787,445.2677 v 0 l -0.002,-135.7763 c -1e-4,-1.6231 1.3156,-2.9388 2.9387,-2.9388 1.623,-10e-5 2.9388,1.3156 2.9388,2.9387 v 0 l 0.002,135.7763 c 0,1.6231 -1.3157,2.9388 -2.9387,2.9388 -1.6231,1e-4 -2.9388,-1.3157 -2.9388,-2.9387 z" stroke="none" id="path13"/>
    </g>
    <g text-rendering="geometricPrecision" id="g14">
      <path clip-path="url(#9607399762-clipPath1)" d="m 286.0457,306.9463 v 0 l 117.5821,-67.8861 c 1.4056,-0.8115 3.2029,-0.33 4.0144,1.0756 0.8116,1.4056 0.33,3.2029 -1.0756,4.0145 v 0 l -117.5822,67.886 c -1.4056,0.8116 -3.2029,0.33 -4.0144,-1.0756 -0.8115,-1.4056 -0.3299,-3.2029 1.0757,-4.0144 z" stroke="none" id="path14"/>
    </g>
    <g text-rendering="geometricPrecision" id="g15">
      <path clip-path="url(#9607399762-clipPath1)" d="m 406.5666,239.0602 v 0 l 117.5821,67.8861 c 1.4057,0.8115 1.8872,2.6088 1.0757,4.0144 -0.8115,1.4056 -2.6088,1.8872 -4.0144,1.0756 v 0 l -117.5822,-67.886 c -1.4056,-0.8116 -1.8871,-2.6089 -1.0756,-4.0145 0.8115,-1.4056 2.6088,-1.8871 4.0144,-1.0756 z" stroke="none" id="path15"/>
    </g>
    <g fill="#333399" stroke="#333399" text-rendering="geometricPrecision" id="g17">
      <path clip-path="url(#9607399762-clipPath1)" d="m 521.21,306.9463 v 0 l 92.7243,-53.5344 c 1.4056,-0.8115 3.2029,-0.3299 4.0144,1.0756 0.8116,1.4056 0.3299,3.203 -1.0757,4.0145 v 0 l -92.7243,53.5343 c -1.4055,0.8116 -3.2028,0.33 -4.0144,-1.0756 -0.8115,-1.4056 -0.3299,-3.2029 1.0757,-4.0144 z" stroke="none" id="path16"/>
      <path clip-path="url(#9607399154-clipPath1)" d="m 521.21,306.9463 v 0 l 92.7243,-53.5344 c 1.4056,-0.8115 3.2029,-0.3299 4.0144,1.0756 0.8116,1.4056 0.3299,3.203 -1.0757,4.0145 v 0 l -92.7243,53.5343 c -1.4055,0.8116 -3.2028,0.33 -4.0144,-1.0756 -0.8115,-1.4056 -0.3299,-3.2029 1.0757,-4.0144 z" fill="#000000" stroke="none" id="path17"/>
    </g>
    <g fill="#ff0000" stroke="#ff0000" text-rendering="geometricPrecision" id="g19">
      <path clip-path="url(#9607399762-clipPath1)" d="m 401.323,236.1376 0.8354,5.4676 h 2.9388 2.9388 l 0.8354,-5.4676 v 0 z m -2.9186,-19.1021 0.898,5.8775 h 11.5896 l 0.898,-5.8775 v 0 z m -2.9187,-19.1021 0.8981,5.8775 h 17.4269 l 0.898,-5.8775 z m -2.9186,-19.1021 0.898,5.8775 v 0 h 23.2642 l 0.898,-5.8775 z m -2.9187,-19.1021 0.898,5.8776 h 29.1016 l 0.898,-5.8776 z m -2.9186,-19.1021 0.898,5.8776 h 34.9388 l 0.8981,-5.8776 h -18.3675 z" stroke="none" id="path18"/>
      <path clip-path="url(#9607399470-clipPath1)" d="m 401.323,236.1376 0.8354,5.4676 h 2.9388 2.9388 l 0.8354,-5.4676 v 0 z m -2.9186,-19.1021 0.898,5.8775 h 11.5896 l 0.898,-5.8775 v 0 z m -2.9187,-19.1021 0.8981,5.8775 h 17.4269 l 0.898,-5.8775 z m -2.9186,-19.1021 0.898,5.8775 v 0 h 23.2642 l 0.898,-5.8775 z m -2.9187,-19.1021 0.898,5.8776 h 29.1016 l 0.898,-5.8776 z m -2.9186,-19.1021 0.898,5.8776 h 34.9388 l 0.8981,-5.8776 h -18.3675 z" fill="#000000" stroke="none" id="path19"/>
    </g>
    <g text-rendering="geometricPrecision" id="g20">
      <path clip-path="url(#9607399762-clipPath1)" d="m 522.6794,309.4913 h -2.9388 L 504.312,433.5085 h 18.3674 18.3674 L 525.6182,309.4913 Z" stroke="none" id="path20"/>
    </g>
    <g text-rendering="geometricPrecision" id="g22">
      <path clip-path="url(#9607399762-clipPath1)" d="m 666.5888,253.4119 v 0 l 82.5441,47.6569 c 1.4056,0.8115 1.8872,2.6088 1.0757,4.0144 -0.8115,1.4056 -2.6088,1.8872 -4.0144,1.0756 v 0 L 663.6501,258.502 c -1.4056,-0.8115 -1.8872,-2.6089 -1.0757,-4.0145 0.8115,-1.4055 2.6088,-1.8871 4.0144,-1.0756 z" stroke="none" id="path21"/>
      <path clip-path="url(#9607399836-clipPath1)" d="m 666.5888,253.4119 v 0 l 82.5441,47.6569 c 1.4056,0.8115 1.8872,2.6088 1.0757,4.0144 -0.8115,1.4056 -2.6088,1.8872 -4.0144,1.0756 v 0 L 663.6501,258.502 c -1.4056,-0.8115 -1.8872,-2.6089 -1.0757,-4.0145 0.8115,-1.4055 2.6088,-1.8871 4.0144,-1.0756 z" fill="#333399" stroke="none" id="path22"/>
    </g>
    <g fill="#333399" font-family="sans-serif" font-size="48px" stroke="#333399" text-rendering="geometricPrecision" transform="translate(622.5194,164.6151)" id="g23">
      <text clip-path="url(#9607399650-clipPath1)" stroke="none" x="0" xml:space="preserve" y="45" id="text22">H</text>
    </g>
    <g fill="#333399" font-family="sans-serif" font-size="48px" stroke="#333399" text-rendering="geometricPrecision" transform="translate(622.0194,213.1052)" id="g24">
      <text clip-path="url(#9607399477-clipPath1)" stroke="none" x="0" xml:space="preserve" y="45" id="text23">N</text>
    </g>
    <g fill="#ff0000" font-family="sans-serif" font-size="48px" stroke="#ff0000" text-rendering="geometricPrecision" transform="translate(385.4019,77.333)" id="g25">
      <text clip-path="url(#9607399816-clipPath1)" stroke="none" x="0" xml:space="preserve" y="45" id="text24">OH</text>
    </g>
  </g>
</svg>